<ttFont>
    <TTGlyph name="A" xMin="-39" yMin="0" xMax="607" yMax="690">
      <contour>
        <pt x="432" y="180" on="1"/>
        <pt x="194" y="180" on="1"/>
        <pt x="120" y="0" on="1"/>
        <pt x="-39" y="0" on="1"/>
        <pt x="251" y="653" on="1"/>
        <pt x="265" y="690" on="0"/>
        <pt x="306" y="690" on="1"/>
        <pt x="450" y="690" on="1"/>
        <pt x="469" y="690" on="0"/>
        <pt x="498" y="665" on="0"/>
        <pt x="499" y="647" on="1"/>
        <pt x="607" y="0" on="1"/>
        <pt x="455" y="0" on="1"/>
      </contour>
      <contour>
        <pt x="416" y="301" on="1"/>
        <pt x="389" y="510" on="1"/>
        <pt x="386" y="532" on="0"/>
        <pt x="384" y="577" on="1"/>
        <pt x="355" y="577" on="1"/>
        <pt x="337" y="526" on="0"/>
        <pt x="331" y="511" on="1"/>
        <pt x="244" y="301" on="1"/>
      </contour>
    </TTGlyph>
    <TTGlyph name="AE" xMin="-51" yMin="-3" xMax="943" yMax="691">
      <contour>
        <pt x="924" y="571" on="1"/>
        <pt x="681" y="571" on="1"/>
        <pt x="653" y="571" on="0"/>
        <pt x="623" y="547" on="0"/>
        <pt x="619" y="517" on="1"/>
        <pt x="604" y="411" on="1"/>
        <pt x="864" y="411" on="1"/>
        <pt x="851" y="306" on="1"/>
        <pt x="589" y="306" on="1"/>
        <pt x="570" y="171" on="1"/>
        <pt x="567" y="142" on="0"/>
        <pt x="586" y="119" on="0"/>
        <pt x="615" y="119" on="1"/>
        <pt x="860" y="119" on="1"/>
        <pt x="856" y="7" on="1"/>
        <pt x="761" y="-3" on="0"/>
        <pt x="561" y="-3" on="1"/>
        <pt x="489" y="-3" on="0"/>
        <pt x="416" y="81" on="0"/>
        <pt x="426" y="152" on="1"/>
        <pt x="431" y="186" on="1"/>
        <pt x="228" y="186" on="1"/>
        <pt x="108" y="0" on="1"/>
        <pt x="-51" y="0" on="1"/>
        <pt x="317" y="561" on="1"/>
        <pt x="365" y="636" on="0"/>
        <pt x="489" y="691" on="0"/>
        <pt x="618" y="691" on="1"/>
        <pt x="839" y="691" on="0"/>
        <pt x="943" y="683" on="1"/>
      </contour>
      <contour>
        <pt x="448" y="307" on="1"/>
        <pt x="479" y="531" on="1"/>
        <pt x="484" y="570" on="0"/>
        <pt x="509" y="597" on="1"/>
        <pt x="502" y="597" on="1"/>
        <pt x="479" y="575" on="0"/>
        <pt x="455" y="539" on="1"/>
        <pt x="306" y="307" on="1"/>
      </contour>
    </TTGlyph>
    <TTGlyph name="Aacute" xMin="-39" yMin="0" xMax="607" yMax="937">
      <contour>
        <pt x="347" y="723" on="1"/>
        <pt x="310" y="786" on="1"/>
        <pt x="528" y="937" on="1"/>
        <pt x="585" y="829" on="1"/>
      </contour>
      <contour>
        <pt x="432" y="180" on="1"/>
        <pt x="194" y="180" on="1"/>
        <pt x="120" y="0" on="1"/>
        <pt x="-39" y="0" on="1"/>
        <pt x="251" y="653" on="1"/>
        <pt x="265" y="690" on="0"/>
        <pt x="306" y="690" on="1"/>
        <pt x="450" y="690" on="1"/>
        <pt x="469" y="690" on="0"/>
        <pt x="498" y="665" on="0"/>
        <pt x="499" y="647" on="1"/>
        <pt x="607" y="0" on="1"/>
        <pt x="455" y="0" on="1"/>
      </contour>
      <contour>
        <pt x="416" y="301" on="1"/>
        <pt x="389" y="510" on="1"/>
        <pt x="386" y="532" on="0"/>
        <pt x="384" y="577" on="1"/>
        <pt x="355" y="577" on="1"/>
        <pt x="337" y="526" on="0"/>
        <pt x="331" y="511" on="1"/>
        <pt x="244" y="301" on="1"/>
      </contour>
    </TTGlyph>
    <TTGlyph name="Abreve" xMin="-39" yMin="0" xMax="607" yMax="902">
      <contour>
        <pt x="503" y="902" on="1"/>
        <pt x="572" y="889" on="1"/>
        <pt x="570" y="824" on="0"/>
        <pt x="473" y="740" on="0"/>
        <pt x="393" y="740" on="1"/>
        <pt x="310" y="740" on="0"/>
        <pt x="226" y="831" on="0"/>
        <pt x="244" y="894" on="1"/>
        <pt x="315" y="898" on="1"/>
        <pt x="310" y="867" on="0"/>
        <pt x="352" y="837" on="0"/>
        <pt x="396" y="837" on="1"/>
        <pt x="495" y="837" on="0"/>
      </contour>
      <contour>
        <pt x="432" y="180" on="1"/>
        <pt x="194" y="180" on="1"/>
        <pt x="120" y="0" on="1"/>
        <pt x="-39" y="0" on="1"/>
        <pt x="251" y="653" on="1"/>
        <pt x="265" y="690" on="0"/>
        <pt x="306" y="690" on="1"/>
        <pt x="450" y="690" on="1"/>
        <pt x="469" y="690" on="0"/>
        <pt x="498" y="665" on="0"/>
        <pt x="499" y="647" on="1"/>
        <pt x="607" y="0" on="1"/>
        <pt x="455" y="0" on="1"/>
      </contour>
      <contour>
        <pt x="416" y="301" on="1"/>
        <pt x="389" y="510" on="1"/>
        <pt x="386" y="532" on="0"/>
        <pt x="384" y="577" on="1"/>
        <pt x="355" y="577" on="1"/>
        <pt x="337" y="526" on="0"/>
        <pt x="331" y="511" on="1"/>
        <pt x="244" y="301" on="1"/>
      </contour>
    </TTGlyph>
    <TTGlyph name="Acircumflex" xMin="-39" yMin="0" xMax="607" yMax="912">
      <contour>
        <pt x="241" y="723" on="1"/>
        <pt x="204" y="779" on="1"/>
        <pt x="353" y="912" on="1"/>
        <pt x="454" y="912" on="1"/>
        <pt x="581" y="773" on="1"/>
        <pt x="536" y="721" on="1"/>
        <pt x="405" y="819" on="1"/>
        <pt x="397" y="819" on="1"/>
      </contour>
      <contour>
        <pt x="432" y="180" on="1"/>
        <pt x="194" y="180" on="1"/>
        <pt x="120" y="0" on="1"/>
        <pt x="-39" y="0" on="1"/>
        <pt x="251" y="653" on="1"/>
        <pt x="265" y="690" on="0"/>
        <pt x="306" y="690" on="1"/>
        <pt x="450" y="690" on="1"/>
        <pt x="469" y="690" on="0"/>
        <pt x="498" y="665" on="0"/>
        <pt x="499" y="647" on="1"/>
        <pt x="607" y="0" on="1"/>
        <pt x="455" y="0" on="1"/>
      </contour>
      <contour>
        <pt x="416" y="301" on="1"/>
        <pt x="389" y="510" on="1"/>
        <pt x="386" y="532" on="0"/>
        <pt x="384" y="577" on="1"/>
        <pt x="355" y="577" on="1"/>
        <pt x="337" y="526" on="0"/>
        <pt x="331" y="511" on="1"/>
        <pt x="244" y="301" on="1"/>
      </contour>
    </TTGlyph>
    <TTGlyph name="Adieresis" xMin="-39" yMin="0" xMax="607" yMax="886">
      <contour>
        <pt x="330" y="763" on="1"/>
        <pt x="277" y="763" on="1"/>
        <pt x="245" y="763" on="0"/>
        <pt x="249" y="792" on="1"/>
        <pt x="259" y="855" on="1"/>
        <pt x="263" y="886" on="0"/>
        <pt x="295" y="886" on="1"/>
        <pt x="344" y="886" on="1"/>
        <pt x="377" y="886" on="0"/>
        <pt x="373" y="856" on="1"/>
        <pt x="363" y="793" on="1"/>
        <pt x="359" y="763" on="0"/>
      </contour>
      <contour>
        <pt x="505" y="763" on="1"/>
        <pt x="452" y="763" on="1"/>
        <pt x="420" y="763" on="0"/>
        <pt x="424" y="792" on="1"/>
        <pt x="434" y="855" on="1"/>
        <pt x="438" y="886" on="0"/>
        <pt x="469" y="886" on="1"/>
        <pt x="519" y="886" on="1"/>
        <pt x="552" y="886" on="0"/>
        <pt x="548" y="856" on="1"/>
        <pt x="538" y="793" on="1"/>
        <pt x="534" y="763" on="0"/>
      </contour>
      <contour>
        <pt x="432" y="180" on="1"/>
        <pt x="194" y="180" on="1"/>
        <pt x="120" y="0" on="1"/>
        <pt x="-39" y="0" on="1"/>
        <pt x="251" y="653" on="1"/>
        <pt x="265" y="690" on="0"/>
        <pt x="306" y="690" on="1"/>
        <pt x="450" y="690" on="1"/>
        <pt x="469" y="690" on="0"/>
        <pt x="498" y="665" on="0"/>
        <pt x="499" y="647" on="1"/>
        <pt x="607" y="0" on="1"/>
        <pt x="455" y="0" on="1"/>
      </contour>
      <contour>
        <pt x="416" y="301" on="1"/>
        <pt x="389" y="510" on="1"/>
        <pt x="386" y="532" on="0"/>
        <pt x="384" y="577" on="1"/>
        <pt x="355" y="577" on="1"/>
        <pt x="337" y="526" on="0"/>
        <pt x="331" y="511" on="1"/>
        <pt x="244" y="301" on="1"/>
      </contour>
    </TTGlyph>
    <TTGlyph name="Agrave" xMin="-39" yMin="0" xMax="607" yMax="934">
      <contour>
        <pt x="416" y="723" on="1"/>
        <pt x="195" y="837" on="1"/>
        <pt x="261" y="934" on="1"/>
        <pt x="465" y="786" on="1"/>
      </contour>
      <contour>
        <pt x="432" y="180" on="1"/>
        <pt x="194" y="180" on="1"/>
        <pt x="120" y="0" on="1"/>
        <pt x="-39" y="0" on="1"/>
        <pt x="251" y="653" on="1"/>
        <pt x="265" y="690" on="0"/>
        <pt x="306" y="690" on="1"/>
        <pt x="450" y="690" on="1"/>
        <pt x="469" y="690" on="0"/>
        <pt x="498" y="665" on="0"/>
        <pt x="499" y="647" on="1"/>
        <pt x="607" y="0" on="1"/>
        <pt x="455" y="0" on="1"/>
      </contour>
      <contour>
        <pt x="416" y="301" on="1"/>
        <pt x="389" y="510" on="1"/>
        <pt x="386" y="532" on="0"/>
        <pt x="384" y="577" on="1"/>
        <pt x="355" y="577" on="1"/>
        <pt x="337" y="526" on="0"/>
        <pt x="331" y="511" on="1"/>
        <pt x="244" y="301" on="1"/>
      </contour>
    </TTGlyph>
    <TTGlyph name="Amacron" xMin="-39" yMin="0" xMax="607" yMax="872">
      <contour>
        <pt x="540" y="776" on="1"/>
        <pt x="241" y="776" on="1"/>
        <pt x="255" y="872" on="1"/>
        <pt x="554" y="872" on="1"/>
      </contour>
      <contour>
        <pt x="432" y="180" on="1"/>
        <pt x="194" y="180" on="1"/>
        <pt x="120" y="0" on="1"/>
        <pt x="-39" y="0" on="1"/>
        <pt x="251" y="653" on="1"/>
        <pt x="265" y="690" on="0"/>
        <pt x="306" y="690" on="1"/>
        <pt x="450" y="690" on="1"/>
        <pt x="469" y="690" on="0"/>
        <pt x="498" y="665" on="0"/>
        <pt x="499" y="647" on="1"/>
        <pt x="607" y="0" on="1"/>
        <pt x="455" y="0" on="1"/>
      </contour>
      <contour>
        <pt x="416" y="301" on="1"/>
        <pt x="389" y="510" on="1"/>
        <pt x="386" y="532" on="0"/>
        <pt x="384" y="577" on="1"/>
        <pt x="355" y="577" on="1"/>
        <pt x="337" y="526" on="0"/>
        <pt x="331" y="511" on="1"/>
        <pt x="244" y="301" on="1"/>
      </contour>
    </TTGlyph>
    <TTGlyph name="Aogonek" xMin="-39" yMin="-212" xMax="608" yMax="690">
      <contour>
        <pt x="499" y="647" on="1"/>
        <pt x="608" y="0" on="1"/>
        <pt x="565" y="-48" on="0"/>
        <pt x="536" y="-104" on="1"/>
        <pt x="522" y="-130" on="0"/>
        <pt x="549" y="-145" on="0"/>
        <pt x="585" y="-135" on="1"/>
        <pt x="599" y="-192" on="1"/>
        <pt x="555" y="-208" on="0"/>
        <pt x="484" y="-215" on="0"/>
        <pt x="442" y="-198" on="0"/>
        <pt x="419" y="-167" on="0"/>
        <pt x="420" y="-126" on="0"/>
        <pt x="431" y="-104" on="1"/>
        <pt x="457" y="-52" on="0"/>
        <pt x="536" y="0" on="1"/>
        <pt x="455" y="0" on="1"/>
        <pt x="432" y="180" on="1"/>
        <pt x="194" y="180" on="1"/>
        <pt x="120" y="0" on="1"/>
        <pt x="-39" y="0" on="1"/>
        <pt x="251" y="653" on="1"/>
        <pt x="265" y="690" on="0"/>
        <pt x="306" y="690" on="1"/>
        <pt x="450" y="690" on="1"/>
        <pt x="469" y="690" on="0"/>
        <pt x="498" y="665" on="0"/>
      </contour>
      <contour>
        <pt x="416" y="301" on="1"/>
        <pt x="389" y="510" on="1"/>
        <pt x="386" y="532" on="0"/>
        <pt x="384" y="577" on="1"/>
        <pt x="355" y="577" on="1"/>
        <pt x="337" y="526" on="0"/>
        <pt x="331" y="511" on="1"/>
        <pt x="244" y="301" on="1"/>
      </contour>
    </TTGlyph>
    <TTGlyph name="Aring" xMin="-39" yMin="0" xMax="607" yMax="941">
      <contour>
        <pt x="395" y="715" on="1"/>
        <pt x="342" y="715" on="0"/>
        <pt x="277" y="783" on="0"/>
        <pt x="283" y="833" on="1"/>
        <pt x="288" y="879" on="0"/>
        <pt x="354" y="941" on="0"/>
        <pt x="405" y="941" on="1"/>
        <pt x="457" y="941" on="0"/>
        <pt x="524" y="873" on="0"/>
        <pt x="517" y="822" on="1"/>
        <pt x="511" y="776" on="0"/>
        <pt x="446" y="715" on="0"/>
      </contour>
      <contour>
        <pt x="350" y="829" on="1"/>
        <pt x="348" y="804" on="0"/>
        <pt x="374" y="776" on="0"/>
        <pt x="396" y="776" on="1"/>
        <pt x="419" y="776" on="0"/>
        <pt x="448" y="806" on="0"/>
        <pt x="450" y="830" on="1"/>
        <pt x="452" y="853" on="0"/>
        <pt x="426" y="880" on="0"/>
        <pt x="382" y="880" on="0"/>
        <pt x="352" y="851" on="0"/>
      </contour>
      <contour>
        <pt x="432" y="180" on="1"/>
        <pt x="194" y="180" on="1"/>
        <pt x="120" y="0" on="1"/>
        <pt x="-39" y="0" on="1"/>
        <pt x="251" y="653" on="1"/>
        <pt x="265" y="690" on="0"/>
        <pt x="306" y="690" on="1"/>
        <pt x="450" y="690" on="1"/>
        <pt x="469" y="690" on="0"/>
        <pt x="498" y="665" on="0"/>
        <pt x="499" y="647" on="1"/>
        <pt x="607" y="0" on="1"/>
        <pt x="455" y="0" on="1"/>
      </contour>
      <contour>
        <pt x="416" y="301" on="1"/>
        <pt x="389" y="510" on="1"/>
        <pt x="386" y="532" on="0"/>
        <pt x="384" y="577" on="1"/>
        <pt x="355" y="577" on="1"/>
        <pt x="337" y="526" on="0"/>
        <pt x="331" y="511" on="1"/>
        <pt x="244" y="301" on="1"/>
      </contour>
    </TTGlyph>
    <TTGlyph name="Atilde" xMin="-39" yMin="0" xMax="607" yMax="899">
      <contour>
        <pt x="514" y="896" on="1"/>
        <pt x="577" y="891" on="1"/>
        <pt x="578" y="822" on="0"/>
        <pt x="527" y="751" on="0"/>
        <pt x="485" y="753" on="1"/>
        <pt x="449" y="755" on="0"/>
        <pt x="345" y="801" on="0"/>
        <pt x="331" y="803" on="1"/>
        <pt x="305" y="807" on="0"/>
        <pt x="283" y="782" on="0"/>
        <pt x="279" y="754" on="1"/>
        <pt x="216" y="760" on="1"/>
        <pt x="216" y="830" on="0"/>
        <pt x="269" y="901" on="0"/>
        <pt x="310" y="899" on="1"/>
        <pt x="343" y="897" on="0"/>
        <pt x="444" y="853" on="0"/>
        <pt x="461" y="850" on="1"/>
        <pt x="508" y="842" on="0"/>
      </contour>
      <contour>
        <pt x="432" y="180" on="1"/>
        <pt x="194" y="180" on="1"/>
        <pt x="120" y="0" on="1"/>
        <pt x="-39" y="0" on="1"/>
        <pt x="251" y="653" on="1"/>
        <pt x="265" y="690" on="0"/>
        <pt x="306" y="690" on="1"/>
        <pt x="450" y="690" on="1"/>
        <pt x="469" y="690" on="0"/>
        <pt x="498" y="665" on="0"/>
        <pt x="499" y="647" on="1"/>
        <pt x="607" y="0" on="1"/>
        <pt x="455" y="0" on="1"/>
      </contour>
      <contour>
        <pt x="416" y="301" on="1"/>
        <pt x="389" y="510" on="1"/>
        <pt x="386" y="532" on="0"/>
        <pt x="384" y="577" on="1"/>
        <pt x="355" y="577" on="1"/>
        <pt x="337" y="526" on="0"/>
        <pt x="331" y="511" on="1"/>
        <pt x="244" y="301" on="1"/>
      </contour>
    </TTGlyph>
    <TTGlyph name="B" xMin="28" yMin="-8" xMax="599" yMax="698">
      <contour>
        <pt x="28" y="0" on="1"/>
        <pt x="125" y="690" on="1"/>
        <pt x="214" y="698" on="0"/>
        <pt x="376" y="698" on="1"/>
        <pt x="509" y="698" on="0"/>
        <pt x="613" y="618" on="0"/>
        <pt x="599" y="512" on="1"/>
        <pt x="588" y="438" on="0"/>
        <pt x="524" y="366" on="0"/>
        <pt x="459" y="360" on="1"/>
        <pt x="458" y="354" on="1"/>
        <pt x="602" y="343" on="0"/>
        <pt x="576" y="166" on="1"/>
        <pt x="561" y="63" on="0"/>
        <pt x="451" y="-8" on="0"/>
        <pt x="325" y="-8" on="1"/>
        <pt x="129" y="-8" on="0"/>
      </contour>
      <contour>
        <pt x="235" y="409" on="1"/>
        <pt x="340" y="409" on="1"/>
        <pt x="397" y="409" on="0"/>
        <pt x="445" y="448" on="0"/>
        <pt x="452" y="503" on="1"/>
        <pt x="459" y="551" on="0"/>
        <pt x="425" y="582" on="0"/>
        <pt x="370" y="582" on="1"/>
        <pt x="259" y="582" on="1"/>
      </contour>
      <contour>
        <pt x="192" y="108" on="1"/>
        <pt x="299" y="108" on="1"/>
        <pt x="366" y="108" on="0"/>
        <pt x="417" y="147" on="0"/>
        <pt x="426" y="207" on="1"/>
        <pt x="434" y="266" on="0"/>
        <pt x="397" y="305" on="0"/>
        <pt x="336" y="306" on="1"/>
        <pt x="220" y="306" on="1"/>
      </contour>
    </TTGlyph>
    <TTGlyph name="C" xMin="54" yMin="-12" xMax="592" yMax="702">
      <contour>
        <pt x="516" y="129" on="1"/>
        <pt x="522" y="15" on="1"/>
        <pt x="432" y="-12" on="0"/>
        <pt x="302" y="-12" on="1"/>
        <pt x="142" y="-12" on="0"/>
        <pt x="27" y="157" on="0"/>
        <pt x="54" y="351" on="1"/>
        <pt x="82" y="551" on="0"/>
        <pt x="226" y="702" on="0"/>
        <pt x="386" y="702" on="1"/>
        <pt x="501" y="702" on="0"/>
        <pt x="592" y="678" on="1"/>
        <pt x="572" y="565" on="1"/>
        <pt x="491" y="570" on="0"/>
        <pt x="380" y="570" on="1"/>
        <pt x="327" y="570" on="0"/>
        <pt x="267" y="536" on="0"/>
        <pt x="226" y="437" on="0"/>
        <pt x="213" y="339" on="1"/>
        <pt x="195" y="210" on="0"/>
        <pt x="233" y="120" on="0"/>
        <pt x="307" y="120" on="1"/>
        <pt x="426" y="119" on="0"/>
      </contour>
    </TTGlyph>
    <TTGlyph name="Cacute" xMin="54" yMin="-12" xMax="592" yMax="937">
      <contour>
        <pt x="588" y="830" on="1"/>
        <pt x="351" y="723" on="1"/>
        <pt x="314" y="787" on="1"/>
        <pt x="532" y="937" on="1"/>
      </contour>
      <contour>
        <pt x="516" y="129" on="1"/>
        <pt x="522" y="15" on="1"/>
        <pt x="432" y="-12" on="0"/>
        <pt x="302" y="-12" on="1"/>
        <pt x="142" y="-12" on="0"/>
        <pt x="27" y="157" on="0"/>
        <pt x="54" y="351" on="1"/>
        <pt x="82" y="551" on="0"/>
        <pt x="226" y="702" on="0"/>
        <pt x="386" y="702" on="1"/>
        <pt x="501" y="702" on="0"/>
        <pt x="592" y="678" on="1"/>
        <pt x="572" y="565" on="1"/>
        <pt x="491" y="570" on="0"/>
        <pt x="380" y="570" on="1"/>
        <pt x="327" y="570" on="0"/>
        <pt x="267" y="536" on="0"/>
        <pt x="226" y="437" on="0"/>
        <pt x="213" y="339" on="1"/>
        <pt x="195" y="210" on="0"/>
        <pt x="233" y="120" on="0"/>
        <pt x="307" y="120" on="1"/>
        <pt x="426" y="119" on="0"/>
      </contour>
    </TTGlyph>
    <TTGlyph name="Ccaron" xMin="54" yMin="-12" xMax="593" yMax="930">
      <contour>
        <pt x="593" y="871" on="1"/>
        <pt x="433" y="740" on="1"/>
        <pt x="353" y="740" on="1"/>
        <pt x="219" y="880" on="1"/>
        <pt x="268" y="930" on="1"/>
        <pt x="394" y="838" on="1"/>
        <pt x="402" y="838" on="1"/>
        <pt x="558" y="928" on="1"/>
      </contour>
      <contour>
        <pt x="516" y="129" on="1"/>
        <pt x="522" y="15" on="1"/>
        <pt x="432" y="-12" on="0"/>
        <pt x="302" y="-12" on="1"/>
        <pt x="142" y="-12" on="0"/>
        <pt x="27" y="157" on="0"/>
        <pt x="54" y="351" on="1"/>
        <pt x="82" y="551" on="0"/>
        <pt x="226" y="702" on="0"/>
        <pt x="386" y="702" on="1"/>
        <pt x="501" y="702" on="0"/>
        <pt x="592" y="678" on="1"/>
        <pt x="572" y="565" on="1"/>
        <pt x="491" y="570" on="0"/>
        <pt x="380" y="570" on="1"/>
        <pt x="327" y="570" on="0"/>
        <pt x="267" y="536" on="0"/>
        <pt x="226" y="437" on="0"/>
        <pt x="213" y="339" on="1"/>
        <pt x="195" y="210" on="0"/>
        <pt x="233" y="120" on="0"/>
        <pt x="307" y="120" on="1"/>
        <pt x="426" y="119" on="0"/>
      </contour>
    </TTGlyph>
    <TTGlyph name="Ccedilla" xMin="54" yMin="-257" xMax="592" yMax="702">
      <contour>
        <pt x="516" y="129" on="1"/>
        <pt x="522" y="15" on="1"/>
        <pt x="432" y="-12" on="0"/>
        <pt x="302" y="-12" on="1"/>
        <pt x="142" y="-12" on="0"/>
        <pt x="27" y="157" on="0"/>
        <pt x="54" y="351" on="1"/>
        <pt x="82" y="551" on="0"/>
        <pt x="226" y="702" on="0"/>
        <pt x="386" y="702" on="1"/>
        <pt x="501" y="702" on="0"/>
        <pt x="592" y="678" on="1"/>
        <pt x="572" y="565" on="1"/>
        <pt x="491" y="570" on="0"/>
        <pt x="380" y="570" on="1"/>
        <pt x="327" y="570" on="0"/>
        <pt x="267" y="536" on="0"/>
        <pt x="226" y="437" on="0"/>
        <pt x="213" y="339" on="1"/>
        <pt x="195" y="210" on="0"/>
        <pt x="233" y="120" on="0"/>
        <pt x="307" y="120" on="1"/>
        <pt x="426" y="119" on="0"/>
      </contour>
      <contour>
        <pt x="197" y="-116" on="1"/>
        <pt x="212" y="-58" on="1"/>
        <pt x="291" y="-49" on="0"/>
        <pt x="359" y="-77" on="0"/>
        <pt x="351" y="-128" on="1"/>
        <pt x="339" y="-200" on="0"/>
        <pt x="219" y="-269" on="0"/>
        <pt x="136" y="-257" on="1"/>
        <pt x="157" y="-193" on="1"/>
        <pt x="194" y="-194" on="0"/>
        <pt x="248" y="-164" on="0"/>
        <pt x="254" y="-135" on="1"/>
        <pt x="256" y="-123" on="0"/>
        <pt x="237" y="-116" on="0"/>
      </contour>
    </TTGlyph>
    <TTGlyph name="Cdotaccent" xMin="54" yMin="-12" xMax="592" yMax="887">
      <contour>
        <pt x="385" y="887" on="1"/>
        <pt x="429" y="887" on="1"/>
        <pt x="449" y="887" on="0"/>
        <pt x="472" y="864" on="0"/>
        <pt x="469" y="844" on="1"/>
        <pt x="463" y="791" on="1"/>
        <pt x="457" y="753" on="0"/>
        <pt x="420" y="753" on="1"/>
        <pt x="374" y="753" on="1"/>
        <pt x="329" y="753" on="0"/>
        <pt x="335" y="797" on="1"/>
        <pt x="341" y="849" on="1"/>
        <pt x="347" y="887" on="0"/>
      </contour>
      <contour>
        <pt x="516" y="129" on="1"/>
        <pt x="522" y="15" on="1"/>
        <pt x="432" y="-12" on="0"/>
        <pt x="302" y="-12" on="1"/>
        <pt x="142" y="-12" on="0"/>
        <pt x="27" y="157" on="0"/>
        <pt x="54" y="351" on="1"/>
        <pt x="82" y="551" on="0"/>
        <pt x="226" y="702" on="0"/>
        <pt x="386" y="702" on="1"/>
        <pt x="501" y="702" on="0"/>
        <pt x="592" y="678" on="1"/>
        <pt x="572" y="565" on="1"/>
        <pt x="491" y="570" on="0"/>
        <pt x="380" y="570" on="1"/>
        <pt x="327" y="570" on="0"/>
        <pt x="267" y="536" on="0"/>
        <pt x="226" y="437" on="0"/>
        <pt x="213" y="339" on="1"/>
        <pt x="195" y="210" on="0"/>
        <pt x="233" y="120" on="0"/>
        <pt x="307" y="120" on="1"/>
        <pt x="426" y="119" on="0"/>
      </contour>
    </TTGlyph>
    <TTGlyph name="D" xMin="28" yMin="-9" xMax="638" yMax="699">
      <contour>
        <pt x="28" y="0" on="1"/>
        <pt x="125" y="690" on="1"/>
        <pt x="255" y="699" on="0"/>
        <pt x="372" y="699" on="1"/>
        <pt x="486" y="699" on="0"/>
        <pt x="612" y="635" on="0"/>
        <pt x="657" y="477" on="0"/>
        <pt x="638" y="339" on="1"/>
        <pt x="622" y="227" on="0"/>
        <pt x="573" y="91" on="0"/>
        <pt x="486" y="16" on="0"/>
        <pt x="378" y="-9" on="0"/>
        <pt x="289" y="-9" on="1"/>
        <pt x="176" y="-9" on="0"/>
      </contour>
      <contour>
        <pt x="262" y="579" on="1"/>
        <pt x="196" y="112" on="1"/>
        <pt x="213" y="112" on="0"/>
        <pt x="275" y="111" on="0"/>
        <pt x="287" y="111" on="1"/>
        <pt x="335" y="111" on="0"/>
        <pt x="392" y="128" on="0"/>
        <pt x="440" y="179" on="0"/>
        <pt x="467" y="273" on="0"/>
        <pt x="478" y="351" on="1"/>
        <pt x="489" y="426" on="0"/>
        <pt x="490" y="512" on="0"/>
        <pt x="463" y="564" on="0"/>
        <pt x="413" y="580" on="0"/>
        <pt x="367" y="580" on="1"/>
      </contour>
    </TTGlyph>
    <TTGlyph name="Dcaron" xMin="28" yMin="-9" xMax="638" yMax="929">
      <contour>
        <pt x="349" y="739" on="1"/>
        <pt x="214" y="880" on="1"/>
        <pt x="263" y="929" on="1"/>
        <pt x="389" y="837" on="1"/>
        <pt x="397" y="837" on="1"/>
        <pt x="553" y="928" on="1"/>
        <pt x="588" y="870" on="1"/>
        <pt x="428" y="739" on="1"/>
      </contour>
      <contour>
        <pt x="28" y="0" on="1"/>
        <pt x="125" y="690" on="1"/>
        <pt x="255" y="699" on="0"/>
        <pt x="372" y="699" on="1"/>
        <pt x="486" y="699" on="0"/>
        <pt x="612" y="635" on="0"/>
        <pt x="657" y="477" on="0"/>
        <pt x="638" y="339" on="1"/>
        <pt x="622" y="227" on="0"/>
        <pt x="573" y="91" on="0"/>
        <pt x="486" y="16" on="0"/>
        <pt x="378" y="-9" on="0"/>
        <pt x="289" y="-9" on="1"/>
        <pt x="176" y="-9" on="0"/>
      </contour>
      <contour>
        <pt x="262" y="579" on="1"/>
        <pt x="196" y="112" on="1"/>
        <pt x="213" y="112" on="0"/>
        <pt x="275" y="111" on="0"/>
        <pt x="287" y="111" on="1"/>
        <pt x="335" y="111" on="0"/>
        <pt x="392" y="128" on="0"/>
        <pt x="440" y="179" on="0"/>
        <pt x="467" y="273" on="0"/>
        <pt x="478" y="351" on="1"/>
        <pt x="489" y="426" on="0"/>
        <pt x="490" y="512" on="0"/>
        <pt x="463" y="564" on="0"/>
        <pt x="413" y="580" on="0"/>
        <pt x="367" y="580" on="1"/>
      </contour>
    </TTGlyph>
    <TTGlyph name="Dcroat" xMin="19" yMin="-9" xMax="638" yMax="699">
      <contour>
        <pt x="85" y="402" on="1"/>
        <pt x="125" y="690" on="1"/>
        <pt x="255" y="699" on="0"/>
        <pt x="372" y="699" on="1"/>
        <pt x="486" y="699" on="0"/>
        <pt x="612" y="635" on="0"/>
        <pt x="657" y="477" on="0"/>
        <pt x="638" y="339" on="1"/>
        <pt x="622" y="227" on="0"/>
        <pt x="573" y="91" on="0"/>
        <pt x="486" y="16" on="0"/>
        <pt x="378" y="-9" on="0"/>
        <pt x="289" y="-9" on="1"/>
        <pt x="176" y="-9" on="0"/>
        <pt x="28" y="0" on="1"/>
        <pt x="74" y="326" on="1"/>
        <pt x="19" y="326" on="1"/>
        <pt x="29" y="402" on="1"/>
      </contour>
      <contour>
        <pt x="226" y="326" on="1"/>
        <pt x="196" y="112" on="1"/>
        <pt x="213" y="112" on="0"/>
        <pt x="275" y="111" on="0"/>
        <pt x="287" y="111" on="1"/>
        <pt x="335" y="111" on="0"/>
        <pt x="392" y="128" on="0"/>
        <pt x="440" y="179" on="0"/>
        <pt x="467" y="273" on="0"/>
        <pt x="478" y="351" on="1"/>
        <pt x="489" y="426" on="0"/>
        <pt x="490" y="512" on="0"/>
        <pt x="463" y="564" on="0"/>
        <pt x="413" y="580" on="0"/>
        <pt x="367" y="580" on="1"/>
        <pt x="262" y="579" on="1"/>
        <pt x="237" y="402" on="1"/>
        <pt x="359" y="402" on="1"/>
        <pt x="349" y="326" on="1"/>
      </contour>
    </TTGlyph>
    <TTGlyph name="Delta" xMin="-17" yMin="0" xMax="609" yMax="690">
      <contour>
        <pt x="609" y="53" on="1"/>
        <pt x="603" y="0" on="1"/>
        <pt x="-17" y="0" on="1"/>
        <pt x="-11" y="53" on="1"/>
        <pt x="313" y="690" on="1"/>
        <pt x="464" y="690" on="1"/>
      </contour>
      <contour>
        <pt x="449" y="114" on="1"/>
        <pt x="381" y="458" on="1"/>
        <pt x="373" y="501" on="0"/>
        <pt x="372" y="545" on="1"/>
        <pt x="353" y="484" on="0"/>
        <pt x="340" y="457" on="1"/>
        <pt x="174" y="114" on="1"/>
      </contour>
    </TTGlyph>
    <TTGlyph name="E" xMin="45" yMin="-3" xMax="583" yMax="693">
      <contour>
        <pt x="564" y="570" on="1"/>
        <pt x="306" y="570" on="1"/>
        <pt x="277" y="570" on="0"/>
        <pt x="252" y="547" on="0"/>
        <pt x="248" y="516" on="1"/>
        <pt x="233" y="412" on="1"/>
        <pt x="505" y="412" on="1"/>
        <pt x="491" y="304" on="1"/>
        <pt x="218" y="304" on="1"/>
        <pt x="200" y="171" on="1"/>
        <pt x="196" y="143" on="0"/>
        <pt x="217" y="120" on="0"/>
        <pt x="245" y="120" on="1"/>
        <pt x="500" y="120" on="1"/>
        <pt x="496" y="7" on="1"/>
        <pt x="408" y="-3" on="0"/>
        <pt x="197" y="-3" on="1"/>
        <pt x="113" y="-3" on="0"/>
        <pt x="35" y="86" on="0"/>
        <pt x="45" y="163" on="1"/>
        <pt x="100" y="557" on="1"/>
        <pt x="109" y="621" on="0"/>
        <pt x="194" y="693" on="0"/>
        <pt x="265" y="693" on="1"/>
        <pt x="483" y="693" on="0"/>
        <pt x="583" y="682" on="1"/>
      </contour>
    </TTGlyph>
    <TTGlyph name="Eacute" xMin="45" yMin="-3" xMax="583" yMax="949">
      <contour>
        <pt x="337" y="735" on="1"/>
        <pt x="300" y="798" on="1"/>
        <pt x="518" y="949" on="1"/>
        <pt x="575" y="841" on="1"/>
      </contour>
      <contour>
        <pt x="564" y="570" on="1"/>
        <pt x="306" y="570" on="1"/>
        <pt x="277" y="570" on="0"/>
        <pt x="252" y="547" on="0"/>
        <pt x="248" y="516" on="1"/>
        <pt x="233" y="412" on="1"/>
        <pt x="505" y="412" on="1"/>
        <pt x="491" y="304" on="1"/>
        <pt x="218" y="304" on="1"/>
        <pt x="200" y="171" on="1"/>
        <pt x="196" y="143" on="0"/>
        <pt x="217" y="120" on="0"/>
        <pt x="245" y="120" on="1"/>
        <pt x="500" y="120" on="1"/>
        <pt x="496" y="7" on="1"/>
        <pt x="408" y="-3" on="0"/>
        <pt x="197" y="-3" on="1"/>
        <pt x="113" y="-3" on="0"/>
        <pt x="35" y="86" on="0"/>
        <pt x="45" y="163" on="1"/>
        <pt x="100" y="557" on="1"/>
        <pt x="109" y="621" on="0"/>
        <pt x="194" y="693" on="0"/>
        <pt x="265" y="693" on="1"/>
        <pt x="483" y="693" on="0"/>
        <pt x="583" y="682" on="1"/>
      </contour>
    </TTGlyph>
    <TTGlyph name="Ecaron" xMin="45" yMin="-3" xMax="583" yMax="941">
      <contour>
        <pt x="340" y="751" on="1"/>
        <pt x="205" y="891" on="1"/>
        <pt x="254" y="941" on="1"/>
        <pt x="380" y="849" on="1"/>
        <pt x="388" y="849" on="1"/>
        <pt x="544" y="939" on="1"/>
        <pt x="579" y="882" on="1"/>
        <pt x="419" y="751" on="1"/>
      </contour>
      <contour>
        <pt x="564" y="570" on="1"/>
        <pt x="306" y="570" on="1"/>
        <pt x="277" y="570" on="0"/>
        <pt x="252" y="547" on="0"/>
        <pt x="248" y="516" on="1"/>
        <pt x="233" y="412" on="1"/>
        <pt x="505" y="412" on="1"/>
        <pt x="491" y="304" on="1"/>
        <pt x="218" y="304" on="1"/>
        <pt x="200" y="171" on="1"/>
        <pt x="196" y="143" on="0"/>
        <pt x="217" y="120" on="0"/>
        <pt x="245" y="120" on="1"/>
        <pt x="500" y="120" on="1"/>
        <pt x="496" y="7" on="1"/>
        <pt x="408" y="-3" on="0"/>
        <pt x="197" y="-3" on="1"/>
        <pt x="113" y="-3" on="0"/>
        <pt x="35" y="86" on="0"/>
        <pt x="45" y="163" on="1"/>
        <pt x="100" y="557" on="1"/>
        <pt x="109" y="621" on="0"/>
        <pt x="194" y="693" on="0"/>
        <pt x="265" y="693" on="1"/>
        <pt x="483" y="693" on="0"/>
        <pt x="583" y="682" on="1"/>
      </contour>
    </TTGlyph>
    <TTGlyph name="Ecircumflex" xMin="45" yMin="-3" xMax="583" yMax="923">
      <contour>
        <pt x="231" y="734" on="1"/>
        <pt x="194" y="790" on="1"/>
        <pt x="343" y="923" on="1"/>
        <pt x="444" y="923" on="1"/>
        <pt x="571" y="785" on="1"/>
        <pt x="526" y="732" on="1"/>
        <pt x="395" y="831" on="1"/>
        <pt x="387" y="831" on="1"/>
      </contour>
      <contour>
        <pt x="564" y="570" on="1"/>
        <pt x="306" y="570" on="1"/>
        <pt x="277" y="570" on="0"/>
        <pt x="252" y="547" on="0"/>
        <pt x="248" y="516" on="1"/>
        <pt x="233" y="412" on="1"/>
        <pt x="505" y="412" on="1"/>
        <pt x="491" y="304" on="1"/>
        <pt x="218" y="304" on="1"/>
        <pt x="200" y="171" on="1"/>
        <pt x="196" y="143" on="0"/>
        <pt x="217" y="120" on="0"/>
        <pt x="245" y="120" on="1"/>
        <pt x="500" y="120" on="1"/>
        <pt x="496" y="7" on="1"/>
        <pt x="408" y="-3" on="0"/>
        <pt x="197" y="-3" on="1"/>
        <pt x="113" y="-3" on="0"/>
        <pt x="35" y="86" on="0"/>
        <pt x="45" y="163" on="1"/>
        <pt x="100" y="557" on="1"/>
        <pt x="109" y="621" on="0"/>
        <pt x="194" y="693" on="0"/>
        <pt x="265" y="693" on="1"/>
        <pt x="483" y="693" on="0"/>
        <pt x="583" y="682" on="1"/>
      </contour>
    </TTGlyph>
    <TTGlyph name="Edieresis" xMin="45" yMin="-3" xMax="583" yMax="898">
      <contour>
        <pt x="495" y="775" on="1"/>
        <pt x="442" y="775" on="1"/>
        <pt x="410" y="775" on="0"/>
        <pt x="414" y="804" on="1"/>
        <pt x="424" y="867" on="1"/>
        <pt x="428" y="898" on="0"/>
        <pt x="459" y="898" on="1"/>
        <pt x="509" y="898" on="1"/>
        <pt x="542" y="898" on="0"/>
        <pt x="538" y="867" on="1"/>
        <pt x="528" y="805" on="1"/>
        <pt x="524" y="775" on="0"/>
      </contour>
      <contour>
        <pt x="320" y="775" on="1"/>
        <pt x="267" y="775" on="1"/>
        <pt x="235" y="775" on="0"/>
        <pt x="239" y="804" on="1"/>
        <pt x="249" y="867" on="1"/>
        <pt x="253" y="898" on="0"/>
        <pt x="285" y="898" on="1"/>
        <pt x="334" y="898" on="1"/>
        <pt x="367" y="898" on="0"/>
        <pt x="363" y="867" on="1"/>
        <pt x="353" y="804" on="1"/>
        <pt x="349" y="775" on="0"/>
      </contour>
      <contour>
        <pt x="564" y="570" on="1"/>
        <pt x="306" y="570" on="1"/>
        <pt x="277" y="570" on="0"/>
        <pt x="252" y="547" on="0"/>
        <pt x="248" y="516" on="1"/>
        <pt x="233" y="412" on="1"/>
        <pt x="505" y="412" on="1"/>
        <pt x="491" y="304" on="1"/>
        <pt x="218" y="304" on="1"/>
        <pt x="200" y="171" on="1"/>
        <pt x="196" y="143" on="0"/>
        <pt x="217" y="120" on="0"/>
        <pt x="245" y="120" on="1"/>
        <pt x="500" y="120" on="1"/>
        <pt x="496" y="7" on="1"/>
        <pt x="408" y="-3" on="0"/>
        <pt x="197" y="-3" on="1"/>
        <pt x="113" y="-3" on="0"/>
        <pt x="35" y="86" on="0"/>
        <pt x="45" y="163" on="1"/>
        <pt x="100" y="557" on="1"/>
        <pt x="109" y="621" on="0"/>
        <pt x="194" y="693" on="0"/>
        <pt x="265" y="693" on="1"/>
        <pt x="483" y="693" on="0"/>
        <pt x="583" y="682" on="1"/>
      </contour>
    </TTGlyph>
    <TTGlyph name="Edotaccent" xMin="45" yMin="-3" xMax="583" yMax="898">
      <contour>
        <pt x="406" y="764" on="1"/>
        <pt x="361" y="764" on="1"/>
        <pt x="315" y="764" on="0"/>
        <pt x="321" y="808" on="1"/>
        <pt x="328" y="860" on="1"/>
        <pt x="334" y="898" on="0"/>
        <pt x="371" y="898" on="1"/>
        <pt x="415" y="898" on="1"/>
        <pt x="435" y="898" on="0"/>
        <pt x="458" y="875" on="0"/>
        <pt x="456" y="855" on="1"/>
        <pt x="449" y="803" on="1"/>
        <pt x="444" y="764" on="0"/>
      </contour>
      <contour>
        <pt x="564" y="570" on="1"/>
        <pt x="306" y="570" on="1"/>
        <pt x="277" y="570" on="0"/>
        <pt x="252" y="547" on="0"/>
        <pt x="248" y="516" on="1"/>
        <pt x="233" y="412" on="1"/>
        <pt x="505" y="412" on="1"/>
        <pt x="491" y="304" on="1"/>
        <pt x="218" y="304" on="1"/>
        <pt x="200" y="171" on="1"/>
        <pt x="196" y="143" on="0"/>
        <pt x="217" y="120" on="0"/>
        <pt x="245" y="120" on="1"/>
        <pt x="500" y="120" on="1"/>
        <pt x="496" y="7" on="1"/>
        <pt x="408" y="-3" on="0"/>
        <pt x="197" y="-3" on="1"/>
        <pt x="113" y="-3" on="0"/>
        <pt x="35" y="86" on="0"/>
        <pt x="45" y="163" on="1"/>
        <pt x="100" y="557" on="1"/>
        <pt x="109" y="621" on="0"/>
        <pt x="194" y="693" on="0"/>
        <pt x="265" y="693" on="1"/>
        <pt x="483" y="693" on="0"/>
        <pt x="583" y="682" on="1"/>
      </contour>
    </TTGlyph>
    <TTGlyph name="Egrave" xMin="45" yMin="-3" xMax="583" yMax="946">
      <contour>
        <pt x="406" y="735" on="1"/>
        <pt x="185" y="849" on="1"/>
        <pt x="251" y="946" on="1"/>
        <pt x="454" y="797" on="1"/>
      </contour>
      <contour>
        <pt x="564" y="570" on="1"/>
        <pt x="306" y="570" on="1"/>
        <pt x="277" y="570" on="0"/>
        <pt x="252" y="547" on="0"/>
        <pt x="248" y="516" on="1"/>
        <pt x="233" y="412" on="1"/>
        <pt x="505" y="412" on="1"/>
        <pt x="491" y="304" on="1"/>
        <pt x="218" y="304" on="1"/>
        <pt x="200" y="171" on="1"/>
        <pt x="196" y="143" on="0"/>
        <pt x="217" y="120" on="0"/>
        <pt x="245" y="120" on="1"/>
        <pt x="500" y="120" on="1"/>
        <pt x="496" y="7" on="1"/>
        <pt x="408" y="-3" on="0"/>
        <pt x="197" y="-3" on="1"/>
        <pt x="113" y="-3" on="0"/>
        <pt x="35" y="86" on="0"/>
        <pt x="45" y="163" on="1"/>
        <pt x="100" y="557" on="1"/>
        <pt x="109" y="621" on="0"/>
        <pt x="194" y="693" on="0"/>
        <pt x="265" y="693" on="1"/>
        <pt x="483" y="693" on="0"/>
        <pt x="583" y="682" on="1"/>
      </contour>
    </TTGlyph>
    <TTGlyph name="Emacron" xMin="45" yMin="-3" xMax="583" yMax="883">
      <contour>
        <pt x="530" y="788" on="1"/>
        <pt x="231" y="788" on="1"/>
        <pt x="244" y="883" on="1"/>
        <pt x="544" y="883" on="1"/>
      </contour>
      <contour>
        <pt x="564" y="570" on="1"/>
        <pt x="306" y="570" on="1"/>
        <pt x="277" y="570" on="0"/>
        <pt x="252" y="547" on="0"/>
        <pt x="248" y="516" on="1"/>
        <pt x="233" y="412" on="1"/>
        <pt x="505" y="412" on="1"/>
        <pt x="491" y="304" on="1"/>
        <pt x="218" y="304" on="1"/>
        <pt x="200" y="171" on="1"/>
        <pt x="196" y="143" on="0"/>
        <pt x="217" y="120" on="0"/>
        <pt x="245" y="120" on="1"/>
        <pt x="500" y="120" on="1"/>
        <pt x="496" y="7" on="1"/>
        <pt x="408" y="-3" on="0"/>
        <pt x="197" y="-3" on="1"/>
        <pt x="113" y="-3" on="0"/>
        <pt x="35" y="86" on="0"/>
        <pt x="45" y="163" on="1"/>
        <pt x="100" y="557" on="1"/>
        <pt x="109" y="621" on="0"/>
        <pt x="194" y="693" on="0"/>
        <pt x="265" y="693" on="1"/>
        <pt x="483" y="693" on="0"/>
        <pt x="583" y="682" on="1"/>
      </contour>
    </TTGlyph>
    <TTGlyph name="Eng" xMin="28" yMin="-210" xMax="706" yMax="690">
      <contour>
        <pt x="706" y="690" on="1"/>
        <pt x="600" y="-59" on="1"/>
        <pt x="590" y="-131" on="0"/>
        <pt x="507" y="-211" on="0"/>
        <pt x="447" y="-210" on="1"/>
        <pt x="374" y="-210" on="0"/>
        <pt x="328" y="-189" on="1"/>
        <pt x="354" y="-95" on="1"/>
        <pt x="393" y="-95" on="1"/>
        <pt x="457" y="-95" on="0"/>
        <pt x="466" y="-41" on="1"/>
        <pt x="473" y="6" on="1"/>
        <pt x="455" y="5" on="1"/>
        <pt x="452" y="5" on="0"/>
        <pt x="447" y="7" on="0"/>
        <pt x="442" y="13" on="0"/>
        <pt x="438" y="18" on="0"/>
        <pt x="434" y="27" on="0"/>
        <pt x="431" y="33" on="0"/>
        <pt x="427" y="44" on="0"/>
        <pt x="426" y="46" on="1"/>
        <pt x="278" y="404" on="1"/>
        <pt x="260" y="445" on="0"/>
        <pt x="250" y="509" on="1"/>
        <pt x="239" y="509" on="1"/>
        <pt x="239" y="454" on="0"/>
        <pt x="230" y="398" on="1"/>
        <pt x="174" y="0" on="1"/>
        <pt x="28" y="0" on="1"/>
        <pt x="118" y="638" on="1"/>
        <pt x="125" y="690" on="0"/>
        <pt x="176" y="690" on="1"/>
        <pt x="255" y="690" on="1"/>
        <pt x="278" y="690" on="0"/>
        <pt x="302" y="667" on="0"/>
        <pt x="311" y="642" on="1"/>
        <pt x="449" y="298" on="1"/>
        <pt x="476" y="233" on="0"/>
        <pt x="486" y="186" on="1"/>
        <pt x="496" y="186" on="1"/>
        <pt x="496" y="235" on="0"/>
        <pt x="505" y="305" on="1"/>
        <pt x="560" y="690" on="1"/>
      </contour>
    </TTGlyph>
    <TTGlyph name="Eogonek" xMin="45" yMin="-205" xMax="583" yMax="693">
      <contour>
        <pt x="564" y="570" on="1"/>
        <pt x="306" y="570" on="1"/>
        <pt x="277" y="570" on="0"/>
        <pt x="252" y="547" on="0"/>
        <pt x="248" y="516" on="1"/>
        <pt x="233" y="412" on="1"/>
        <pt x="505" y="412" on="1"/>
        <pt x="491" y="304" on="1"/>
        <pt x="218" y="304" on="1"/>
        <pt x="200" y="171" on="1"/>
        <pt x="196" y="143" on="0"/>
        <pt x="217" y="120" on="0"/>
        <pt x="245" y="120" on="1"/>
        <pt x="500" y="120" on="1"/>
        <pt x="496" y="7" on="1"/>
        <pt x="452" y="-41" on="0"/>
        <pt x="424" y="-98" on="1"/>
        <pt x="411" y="-123" on="0"/>
        <pt x="437" y="-139" on="0"/>
        <pt x="474" y="-128" on="1"/>
        <pt x="488" y="-185" on="1"/>
        <pt x="444" y="-201" on="0"/>
        <pt x="373" y="-208" on="0"/>
        <pt x="330" y="-191" on="0"/>
        <pt x="307" y="-160" on="0"/>
        <pt x="308" y="-119" on="0"/>
        <pt x="319" y="-97" on="1"/>
        <pt x="346" y="-47" on="0"/>
        <pt x="416" y="1" on="1"/>
        <pt x="344" y="-3" on="0"/>
        <pt x="197" y="-3" on="1"/>
        <pt x="113" y="-3" on="0"/>
        <pt x="35" y="86" on="0"/>
        <pt x="45" y="163" on="1"/>
        <pt x="100" y="557" on="1"/>
        <pt x="109" y="621" on="0"/>
        <pt x="194" y="693" on="0"/>
        <pt x="265" y="693" on="1"/>
        <pt x="483" y="693" on="0"/>
        <pt x="583" y="682" on="1"/>
      </contour>
    </TTGlyph>
    <TTGlyph name="Eth" xMin="19" yMin="-9" xMax="638" yMax="699">
      <contour>
        <pt x="85" y="402" on="1"/>
        <pt x="125" y="690" on="1"/>
        <pt x="255" y="699" on="0"/>
        <pt x="372" y="699" on="1"/>
        <pt x="486" y="699" on="0"/>
        <pt x="612" y="635" on="0"/>
        <pt x="657" y="477" on="0"/>
        <pt x="638" y="339" on="1"/>
        <pt x="622" y="227" on="0"/>
        <pt x="573" y="91" on="0"/>
        <pt x="486" y="16" on="0"/>
        <pt x="378" y="-9" on="0"/>
        <pt x="289" y="-9" on="1"/>
        <pt x="176" y="-9" on="0"/>
        <pt x="28" y="0" on="1"/>
        <pt x="74" y="326" on="1"/>
        <pt x="19" y="326" on="1"/>
        <pt x="29" y="402" on="1"/>
      </contour>
      <contour>
        <pt x="226" y="326" on="1"/>
        <pt x="196" y="112" on="1"/>
        <pt x="213" y="112" on="0"/>
        <pt x="275" y="111" on="0"/>
        <pt x="287" y="111" on="1"/>
        <pt x="335" y="111" on="0"/>
        <pt x="392" y="128" on="0"/>
        <pt x="440" y="179" on="0"/>
        <pt x="467" y="273" on="0"/>
        <pt x="478" y="351" on="1"/>
        <pt x="489" y="426" on="0"/>
        <pt x="490" y="512" on="0"/>
        <pt x="463" y="564" on="0"/>
        <pt x="413" y="580" on="0"/>
        <pt x="367" y="580" on="1"/>
        <pt x="262" y="579" on="1"/>
        <pt x="237" y="402" on="1"/>
        <pt x="359" y="402" on="1"/>
        <pt x="349" y="326" on="1"/>
      </contour>
    </TTGlyph>
    <TTGlyph name="Euro" xMin="30" yMin="-12" xMax="631" yMax="702">
      <contour>
        <pt x="63" y="463" on="1"/>
        <pt x="138" y="463" on="1"/>
        <pt x="172" y="586" on="0"/>
        <pt x="322" y="702" on="0"/>
        <pt x="457" y="702" on="1"/>
        <pt x="552" y="702" on="0"/>
        <pt x="631" y="678" on="1"/>
        <pt x="611" y="568" on="1"/>
        <pt x="529" y="579" on="0"/>
        <pt x="445" y="573" on="1"/>
        <pt x="387" y="569" on="0"/>
        <pt x="320" y="518" on="0"/>
        <pt x="300" y="463" on="1"/>
        <pt x="524" y="463" on="1"/>
        <pt x="501" y="369" on="1"/>
        <pt x="49" y="369" on="1"/>
      </contour>
      <contour>
        <pt x="456" y="236" on="1"/>
        <pt x="266" y="236" on="1"/>
        <pt x="268" y="178" on="0"/>
        <pt x="315" y="120" on="0"/>
        <pt x="367" y="116" on="1"/>
        <pt x="457" y="108" on="0"/>
        <pt x="556" y="127" on="1"/>
        <pt x="562" y="15" on="1"/>
        <pt x="483" y="-12" on="0"/>
        <pt x="373" y="-12" on="1"/>
        <pt x="240" y="-12" on="0"/>
        <pt x="111" y="110" on="0"/>
        <pt x="108" y="236" on="1"/>
        <pt x="30" y="236" on="1"/>
        <pt x="44" y="330" on="1"/>
        <pt x="478" y="330" on="1"/>
      </contour>
    </TTGlyph>
    <TTGlyph name="F" xMin="26" yMin="0" xMax="577" yMax="693">
      <contour>
        <pt x="558" y="570" on="1"/>
        <pt x="317" y="570" on="1"/>
        <pt x="283" y="570" on="0"/>
        <pt x="255" y="548" on="0"/>
        <pt x="251" y="516" on="1"/>
        <pt x="235" y="399" on="1"/>
        <pt x="498" y="399" on="1"/>
        <pt x="483" y="291" on="1"/>
        <pt x="220" y="291" on="1"/>
        <pt x="179" y="0" on="1"/>
        <pt x="26" y="0" on="1"/>
        <pt x="103" y="553" on="1"/>
        <pt x="113" y="620" on="0"/>
        <pt x="199" y="693" on="0"/>
        <pt x="268" y="693" on="1"/>
        <pt x="481" y="693" on="0"/>
        <pt x="577" y="681" on="1"/>
      </contour>
    </TTGlyph>
    <TTGlyph name="G" xMin="55" yMin="-13" xMax="618" yMax="703">
      <contour>
        <pt x="460" y="399" on="1"/>
        <pt x="606" y="399" on="1"/>
        <pt x="550" y="0" on="1"/>
        <pt x="439" y="0" on="1"/>
        <pt x="435" y="85" on="1"/>
        <pt x="345" y="-13" on="0"/>
        <pt x="227" y="-13" on="1"/>
        <pt x="121" y="-13" on="0"/>
        <pt x="32" y="161" on="0"/>
        <pt x="55" y="351" on="1"/>
        <pt x="69" y="459" on="0"/>
        <pt x="124" y="599" on="0"/>
        <pt x="215" y="675" on="0"/>
        <pt x="325" y="703" on="0"/>
        <pt x="407" y="703" on="1"/>
        <pt x="531" y="703" on="0"/>
        <pt x="618" y="678" on="1"/>
        <pt x="599" y="567" on="1"/>
        <pt x="486" y="572" on="0"/>
        <pt x="409" y="572" on="1"/>
        <pt x="312" y="572" on="0"/>
        <pt x="233" y="481" on="0"/>
        <pt x="214" y="339" on="1"/>
        <pt x="198" y="212" on="0"/>
        <pt x="230" y="119" on="0"/>
        <pt x="290" y="119" on="1"/>
        <pt x="332" y="119" on="0"/>
        <pt x="392" y="152" on="0"/>
        <pt x="431" y="188" on="1"/>
      </contour>
    </TTGlyph>
    <TTGlyph name="Gbreve" xMin="55" yMin="-13" xMax="618" yMax="902">
      <contour>
        <pt x="514" y="902" on="1"/>
        <pt x="583" y="889" on="1"/>
        <pt x="581" y="825" on="0"/>
        <pt x="484" y="740" on="0"/>
        <pt x="405" y="740" on="1"/>
        <pt x="322" y="740" on="0"/>
        <pt x="238" y="830" on="0"/>
        <pt x="255" y="894" on="1"/>
        <pt x="326" y="898" on="1"/>
        <pt x="322" y="867" on="0"/>
        <pt x="363" y="837" on="0"/>
        <pt x="408" y="837" on="1"/>
        <pt x="506" y="837" on="0"/>
      </contour>
      <contour>
        <pt x="460" y="399" on="1"/>
        <pt x="606" y="399" on="1"/>
        <pt x="550" y="0" on="1"/>
        <pt x="439" y="0" on="1"/>
        <pt x="435" y="85" on="1"/>
        <pt x="345" y="-13" on="0"/>
        <pt x="227" y="-13" on="1"/>
        <pt x="121" y="-13" on="0"/>
        <pt x="32" y="161" on="0"/>
        <pt x="55" y="351" on="1"/>
        <pt x="69" y="459" on="0"/>
        <pt x="124" y="599" on="0"/>
        <pt x="215" y="675" on="0"/>
        <pt x="325" y="703" on="0"/>
        <pt x="407" y="703" on="1"/>
        <pt x="531" y="703" on="0"/>
        <pt x="618" y="678" on="1"/>
        <pt x="599" y="567" on="1"/>
        <pt x="486" y="572" on="0"/>
        <pt x="409" y="572" on="1"/>
        <pt x="312" y="572" on="0"/>
        <pt x="233" y="481" on="0"/>
        <pt x="214" y="339" on="1"/>
        <pt x="198" y="212" on="0"/>
        <pt x="230" y="119" on="0"/>
        <pt x="290" y="119" on="1"/>
        <pt x="332" y="119" on="0"/>
        <pt x="392" y="152" on="0"/>
        <pt x="431" y="188" on="1"/>
      </contour>
    </TTGlyph>
    <TTGlyph name="Gcommaaccent" xMin="55" yMin="-294" xMax="618" yMax="703">
      <contour>
        <pt x="460" y="399" on="1"/>
        <pt x="606" y="399" on="1"/>
        <pt x="550" y="0" on="1"/>
        <pt x="439" y="0" on="1"/>
        <pt x="435" y="85" on="1"/>
        <pt x="345" y="-13" on="0"/>
        <pt x="227" y="-13" on="1"/>
        <pt x="121" y="-13" on="0"/>
        <pt x="32" y="161" on="0"/>
        <pt x="55" y="351" on="1"/>
        <pt x="69" y="459" on="0"/>
        <pt x="124" y="599" on="0"/>
        <pt x="215" y="675" on="0"/>
        <pt x="325" y="703" on="0"/>
        <pt x="407" y="703" on="1"/>
        <pt x="531" y="703" on="0"/>
        <pt x="618" y="678" on="1"/>
        <pt x="599" y="567" on="1"/>
        <pt x="486" y="572" on="0"/>
        <pt x="409" y="572" on="1"/>
        <pt x="312" y="572" on="0"/>
        <pt x="233" y="481" on="0"/>
        <pt x="214" y="339" on="1"/>
        <pt x="198" y="212" on="0"/>
        <pt x="230" y="119" on="0"/>
        <pt x="290" y="119" on="1"/>
        <pt x="332" y="119" on="0"/>
        <pt x="392" y="152" on="0"/>
        <pt x="431" y="188" on="1"/>
      </contour>
      <contour>
        <pt x="290" y="-52" on="1"/>
        <pt x="320" y="-52" on="1"/>
        <pt x="346" y="-52" on="0"/>
        <pt x="367" y="-73" on="0"/>
        <pt x="363" y="-96" on="1"/>
        <pt x="355" y="-148" on="1"/>
        <pt x="344" y="-224" on="0"/>
        <pt x="288" y="-294" on="1"/>
        <pt x="229" y="-275" on="1"/>
        <pt x="252" y="-223" on="0"/>
        <pt x="264" y="-172" on="1"/>
        <pt x="243" y="-173" on="0"/>
        <pt x="225" y="-154" on="0"/>
        <pt x="227" y="-135" on="1"/>
        <pt x="234" y="-93" on="1"/>
        <pt x="238" y="-69" on="0"/>
        <pt x="263" y="-52" on="0"/>
      </contour>
    </TTGlyph>
    <TTGlyph name="Gdotaccent" xMin="55" yMin="-13" xMax="618" yMax="887">
      <contour>
        <pt x="427" y="753" on="1"/>
        <pt x="382" y="753" on="1"/>
        <pt x="360" y="753" on="0"/>
        <pt x="339" y="776" on="0"/>
        <pt x="343" y="797" on="1"/>
        <pt x="349" y="848" on="1"/>
        <pt x="355" y="887" on="0"/>
        <pt x="393" y="887" on="1"/>
        <pt x="437" y="887" on="1"/>
        <pt x="457" y="887" on="0"/>
        <pt x="480" y="864" on="0"/>
        <pt x="477" y="844" on="1"/>
        <pt x="470" y="791" on="1"/>
        <pt x="466" y="753" on="0"/>
      </contour>
      <contour>
        <pt x="460" y="399" on="1"/>
        <pt x="606" y="399" on="1"/>
        <pt x="550" y="0" on="1"/>
        <pt x="439" y="0" on="1"/>
        <pt x="435" y="85" on="1"/>
        <pt x="345" y="-13" on="0"/>
        <pt x="227" y="-13" on="1"/>
        <pt x="121" y="-13" on="0"/>
        <pt x="32" y="161" on="0"/>
        <pt x="55" y="351" on="1"/>
        <pt x="69" y="459" on="0"/>
        <pt x="124" y="599" on="0"/>
        <pt x="215" y="675" on="0"/>
        <pt x="325" y="703" on="0"/>
        <pt x="407" y="703" on="1"/>
        <pt x="531" y="703" on="0"/>
        <pt x="618" y="678" on="1"/>
        <pt x="599" y="567" on="1"/>
        <pt x="486" y="572" on="0"/>
        <pt x="409" y="572" on="1"/>
        <pt x="312" y="572" on="0"/>
        <pt x="233" y="481" on="0"/>
        <pt x="214" y="339" on="1"/>
        <pt x="198" y="212" on="0"/>
        <pt x="230" y="119" on="0"/>
        <pt x="290" y="119" on="1"/>
        <pt x="332" y="119" on="0"/>
        <pt x="392" y="152" on="0"/>
        <pt x="431" y="188" on="1"/>
      </contour>
    </TTGlyph>
    <TTGlyph name="H" xMin="28" yMin="0" xMax="670" yMax="690">
      <contour>
        <pt x="670" y="690" on="1"/>
        <pt x="573" y="0" on="1"/>
        <pt x="421" y="0" on="1"/>
        <pt x="464" y="307" on="1"/>
        <pt x="225" y="307" on="1"/>
        <pt x="181" y="0" on="1"/>
        <pt x="28" y="0" on="1"/>
        <pt x="125" y="690" on="1"/>
        <pt x="278" y="690" on="1"/>
        <pt x="241" y="426" on="1"/>
        <pt x="481" y="426" on="1"/>
        <pt x="518" y="690" on="1"/>
      </contour>
    </TTGlyph>
    <TTGlyph name="Hbar" xMin="28" yMin="0" xMax="719" yMax="690">
      <contour>
        <pt x="709" y="514" on="1"/>
        <pt x="645" y="514" on="1"/>
        <pt x="573" y="0" on="1"/>
        <pt x="421" y="0" on="1"/>
        <pt x="464" y="307" on="1"/>
        <pt x="225" y="307" on="1"/>
        <pt x="181" y="0" on="1"/>
        <pt x="28" y="0" on="1"/>
        <pt x="101" y="514" on="1"/>
        <pt x="42" y="514" on="1"/>
        <pt x="52" y="585" on="1"/>
        <pt x="111" y="585" on="1"/>
        <pt x="125" y="690" on="1"/>
        <pt x="278" y="690" on="1"/>
        <pt x="264" y="585" on="1"/>
        <pt x="503" y="585" on="1"/>
        <pt x="518" y="690" on="1"/>
        <pt x="670" y="690" on="1"/>
        <pt x="655" y="585" on="1"/>
        <pt x="719" y="585" on="1"/>
      </contour>
      <contour>
        <pt x="493" y="514" on="1"/>
        <pt x="254" y="514" on="1"/>
        <pt x="241" y="426" on="1"/>
        <pt x="481" y="426" on="1"/>
      </contour>
    </TTGlyph>
    <TTGlyph name="I" xMin="28" yMin="0" xMax="278" yMax="690">
      <contour>
        <pt x="181" y="0" on="1"/>
        <pt x="28" y="0" on="1"/>
        <pt x="125" y="690" on="1"/>
        <pt x="278" y="690" on="1"/>
      </contour>
    </TTGlyph>
    <TTGlyph name="IJ" xMin="28" yMin="-12" xMax="645" yMax="690">
      <contour>
        <pt x="181" y="0" on="1"/>
        <pt x="28" y="0" on="1"/>
        <pt x="125" y="690" on="1"/>
        <pt x="278" y="690" on="1"/>
      </contour>
      <contour>
        <pt x="645" y="690" on="1"/>
        <pt x="568" y="142" on="1"/>
        <pt x="558" y="67" on="0"/>
        <pt x="471" y="-12" on="0"/>
        <pt x="402" y="-12" on="1"/>
        <pt x="322" y="-12" on="0"/>
        <pt x="275" y="9" on="1"/>
        <pt x="302" y="110" on="1"/>
        <pt x="343" y="110" on="1"/>
        <pt x="412" y="110" on="0"/>
        <pt x="418" y="166" on="1"/>
        <pt x="493" y="690" on="1"/>
      </contour>
    </TTGlyph>
    <TTGlyph name="Iacute" xMin="28" yMin="0" xMax="407" yMax="937">
      <contour>
        <pt x="407" y="829" on="1"/>
        <pt x="169" y="723" on="1"/>
        <pt x="132" y="786" on="1"/>
        <pt x="351" y="937" on="1"/>
      </contour>
      <contour>
        <pt x="181" y="0" on="1"/>
        <pt x="28" y="0" on="1"/>
        <pt x="125" y="690" on="1"/>
        <pt x="278" y="690" on="1"/>
      </contour>
    </TTGlyph>
    <TTGlyph name="Icircumflex" xMin="27" yMin="0" xMax="403" yMax="912">
      <contour>
        <pt x="403" y="773" on="1"/>
        <pt x="358" y="721" on="1"/>
        <pt x="227" y="819" on="1"/>
        <pt x="219" y="819" on="1"/>
        <pt x="64" y="723" on="1"/>
        <pt x="27" y="779" on="1"/>
        <pt x="175" y="912" on="1"/>
        <pt x="276" y="912" on="1"/>
      </contour>
      <contour>
        <pt x="181" y="0" on="1"/>
        <pt x="28" y="0" on="1"/>
        <pt x="125" y="690" on="1"/>
        <pt x="278" y="690" on="1"/>
      </contour>
    </TTGlyph>
    <TTGlyph name="Idieresis" xMin="28" yMin="0" xMax="370" yMax="886">
      <contour>
        <pt x="291" y="886" on="1"/>
        <pt x="342" y="886" on="1"/>
        <pt x="374" y="886" on="0"/>
        <pt x="370" y="856" on="1"/>
        <pt x="360" y="793" on="1"/>
        <pt x="357" y="763" on="0"/>
        <pt x="327" y="763" on="1"/>
        <pt x="274" y="763" on="1"/>
        <pt x="243" y="763" on="0"/>
        <pt x="246" y="792" on="1"/>
        <pt x="256" y="855" on="1"/>
        <pt x="260" y="886" on="0"/>
      </contour>
      <contour>
        <pt x="117" y="886" on="1"/>
        <pt x="167" y="886" on="1"/>
        <pt x="185" y="886" on="0"/>
        <pt x="197" y="872" on="0"/>
        <pt x="195" y="856" on="1"/>
        <pt x="185" y="793" on="1"/>
        <pt x="182" y="763" on="0"/>
        <pt x="152" y="763" on="1"/>
        <pt x="99" y="763" on="1"/>
        <pt x="68" y="763" on="0"/>
        <pt x="71" y="792" on="1"/>
        <pt x="81" y="855" on="1"/>
        <pt x="85" y="886" on="0"/>
      </contour>
      <contour>
        <pt x="181" y="0" on="1"/>
        <pt x="28" y="0" on="1"/>
        <pt x="125" y="690" on="1"/>
        <pt x="278" y="690" on="1"/>
      </contour>
    </TTGlyph>
    <TTGlyph name="Idotaccent" xMin="28" yMin="0" xMax="288" yMax="887">
      <contour>
        <pt x="204" y="887" on="1"/>
        <pt x="247" y="887" on="1"/>
        <pt x="268" y="887" on="0"/>
        <pt x="290" y="864" on="0"/>
        <pt x="288" y="844" on="1"/>
        <pt x="281" y="791" on="1"/>
        <pt x="277" y="753" on="0"/>
        <pt x="238" y="753" on="1"/>
        <pt x="193" y="753" on="1"/>
        <pt x="147" y="753" on="0"/>
        <pt x="153" y="797" on="1"/>
        <pt x="160" y="848" on="1"/>
        <pt x="166" y="887" on="0"/>
      </contour>
      <contour>
        <pt x="181" y="0" on="1"/>
        <pt x="28" y="0" on="1"/>
        <pt x="125" y="690" on="1"/>
        <pt x="278" y="690" on="1"/>
      </contour>
    </TTGlyph>
    <TTGlyph name="Igrave" xMin="17" yMin="0" xMax="287" yMax="934">
      <contour>
        <pt x="287" y="786" on="1"/>
        <pt x="238" y="723" on="1"/>
        <pt x="17" y="837" on="1"/>
        <pt x="83" y="934" on="1"/>
      </contour>
      <contour>
        <pt x="181" y="0" on="1"/>
        <pt x="28" y="0" on="1"/>
        <pt x="125" y="690" on="1"/>
        <pt x="278" y="690" on="1"/>
      </contour>
    </TTGlyph>
    <TTGlyph name="Imacron" xMin="28" yMin="0" xMax="376" yMax="872">
      <contour>
        <pt x="363" y="776" on="1"/>
        <pt x="63" y="776" on="1"/>
        <pt x="77" y="872" on="1"/>
        <pt x="376" y="872" on="1"/>
      </contour>
      <contour>
        <pt x="181" y="0" on="1"/>
        <pt x="28" y="0" on="1"/>
        <pt x="125" y="690" on="1"/>
        <pt x="278" y="690" on="1"/>
      </contour>
    </TTGlyph>
    <TTGlyph name="Iogonek" xMin="-28" yMin="-212" xMax="278" yMax="690">
      <contour>
        <pt x="181" y="0" on="1"/>
        <pt x="161" y="0" on="1"/>
        <pt x="118" y="-48" on="0"/>
        <pt x="89" y="-104" on="1"/>
        <pt x="75" y="-130" on="0"/>
        <pt x="102" y="-145" on="0"/>
        <pt x="139" y="-135" on="1"/>
        <pt x="152" y="-192" on="1"/>
        <pt x="108" y="-208" on="0"/>
        <pt x="37" y="-215" on="0"/>
        <pt x="-5" y="-198" on="0"/>
        <pt x="-28" y="-167" on="0"/>
        <pt x="-27" y="-126" on="0"/>
        <pt x="-16" y="-104" on="1"/>
        <pt x="10" y="-51" on="0"/>
        <pt x="90" y="0" on="1"/>
        <pt x="28" y="0" on="1"/>
        <pt x="125" y="690" on="1"/>
        <pt x="278" y="690" on="1"/>
      </contour>
    </TTGlyph>
    <TTGlyph name="J" xMin="-16" yMin="-12" xMax="354" yMax="690">
      <contour>
        <pt x="354" y="690" on="1"/>
        <pt x="277" y="142" on="1"/>
        <pt x="267" y="67" on="0"/>
        <pt x="180" y="-12" on="0"/>
        <pt x="111" y="-12" on="1"/>
        <pt x="30" y="-12" on="0"/>
        <pt x="-16" y="9" on="1"/>
        <pt x="10" y="110" on="1"/>
        <pt x="51" y="110" on="1"/>
        <pt x="119" y="110" on="0"/>
        <pt x="127" y="166" on="1"/>
        <pt x="201" y="690" on="1"/>
      </contour>
    </TTGlyph>
    <TTGlyph name="K" xMin="28" yMin="0" xMax="671" yMax="690">
      <contour>
        <pt x="396" y="353" on="1"/>
        <pt x="395" y="349" on="1"/>
        <pt x="419" y="329" on="0"/>
        <pt x="440" y="286" on="1"/>
        <pt x="583" y="0" on="1"/>
        <pt x="415" y="0" on="1"/>
        <pt x="273" y="304" on="1"/>
        <pt x="216" y="304" on="1"/>
        <pt x="219" y="271" on="0"/>
        <pt x="214" y="235" on="1"/>
        <pt x="181" y="0" on="1"/>
        <pt x="28" y="0" on="1"/>
        <pt x="125" y="690" on="1"/>
        <pt x="278" y="690" on="1"/>
        <pt x="249" y="487" on="1"/>
        <pt x="244" y="449" on="0"/>
        <pt x="233" y="413" on="1"/>
        <pt x="289" y="413" on="1"/>
        <pt x="495" y="690" on="1"/>
        <pt x="671" y="690" on="1"/>
        <pt x="456" y="406" on="1"/>
        <pt x="432" y="373" on="0"/>
      </contour>
    </TTGlyph>
    <TTGlyph name="Kcommaaccent" xMin="28" yMin="-294" xMax="671" yMax="690">
      <contour>
        <pt x="396" y="353" on="1"/>
        <pt x="395" y="349" on="1"/>
        <pt x="419" y="329" on="0"/>
        <pt x="440" y="286" on="1"/>
        <pt x="583" y="0" on="1"/>
        <pt x="415" y="0" on="1"/>
        <pt x="273" y="304" on="1"/>
        <pt x="216" y="304" on="1"/>
        <pt x="219" y="271" on="0"/>
        <pt x="214" y="235" on="1"/>
        <pt x="181" y="0" on="1"/>
        <pt x="28" y="0" on="1"/>
        <pt x="125" y="690" on="1"/>
        <pt x="278" y="690" on="1"/>
        <pt x="249" y="487" on="1"/>
        <pt x="244" y="449" on="0"/>
        <pt x="233" y="413" on="1"/>
        <pt x="289" y="413" on="1"/>
        <pt x="495" y="690" on="1"/>
        <pt x="671" y="690" on="1"/>
        <pt x="456" y="406" on="1"/>
        <pt x="432" y="373" on="0"/>
      </contour>
      <contour>
        <pt x="274" y="-52" on="1"/>
        <pt x="304" y="-52" on="1"/>
        <pt x="330" y="-52" on="0"/>
        <pt x="351" y="-73" on="0"/>
        <pt x="347" y="-96" on="1"/>
        <pt x="339" y="-148" on="1"/>
        <pt x="326" y="-226" on="0"/>
        <pt x="272" y="-294" on="1"/>
        <pt x="213" y="-275" on="1"/>
        <pt x="235" y="-222" on="0"/>
        <pt x="248" y="-172" on="1"/>
        <pt x="227" y="-173" on="0"/>
        <pt x="209" y="-154" on="0"/>
        <pt x="211" y="-135" on="1"/>
        <pt x="218" y="-93" on="1"/>
        <pt x="222" y="-69" on="0"/>
        <pt x="247" y="-52" on="0"/>
      </contour>
    </TTGlyph>
    <TTGlyph name="L" xMin="49" yMin="-3" xMax="483" yMax="690">
      <contour>
        <pt x="275" y="690" on="1"/>
        <pt x="202" y="175" on="1"/>
        <pt x="199" y="149" on="0"/>
        <pt x="218" y="124" on="0"/>
        <pt x="247" y="124" on="1"/>
        <pt x="483" y="124" on="1"/>
        <pt x="480" y="7" on="1"/>
        <pt x="382" y="-3" on="0"/>
        <pt x="190" y="-3" on="1"/>
        <pt x="116" y="-3" on="0"/>
        <pt x="38" y="82" on="0"/>
        <pt x="49" y="156" on="1"/>
        <pt x="122" y="690" on="1"/>
      </contour>
    </TTGlyph>
    <TTGlyph name="Lacute" xMin="49" yMin="-3" xMax="483" yMax="932">
      <contour>
        <pt x="405" y="824" on="1"/>
        <pt x="168" y="718" on="1"/>
        <pt x="131" y="781" on="1"/>
        <pt x="349" y="932" on="1"/>
      </contour>
      <contour>
        <pt x="275" y="690" on="1"/>
        <pt x="202" y="175" on="1"/>
        <pt x="199" y="149" on="0"/>
        <pt x="218" y="124" on="0"/>
        <pt x="247" y="124" on="1"/>
        <pt x="483" y="124" on="1"/>
        <pt x="480" y="7" on="1"/>
        <pt x="382" y="-3" on="0"/>
        <pt x="190" y="-3" on="1"/>
        <pt x="116" y="-3" on="0"/>
        <pt x="38" y="82" on="0"/>
        <pt x="49" y="156" on="1"/>
        <pt x="122" y="690" on="1"/>
      </contour>
    </TTGlyph>
    <TTGlyph name="Lcaron" xMin="49" yMin="-3" xMax="483" yMax="691">
      <contour>
        <pt x="390" y="691" on="1"/>
        <pt x="420" y="691" on="1"/>
        <pt x="446" y="691" on="0"/>
        <pt x="467" y="671" on="0"/>
        <pt x="463" y="647" on="1"/>
        <pt x="455" y="596" on="1"/>
        <pt x="444" y="521" on="0"/>
        <pt x="389" y="450" on="1"/>
        <pt x="330" y="468" on="1"/>
        <pt x="353" y="525" on="0"/>
        <pt x="364" y="572" on="1"/>
        <pt x="324" y="569" on="0"/>
        <pt x="327" y="609" on="1"/>
        <pt x="334" y="651" on="1"/>
        <pt x="339" y="674" on="0"/>
        <pt x="363" y="691" on="0"/>
      </contour>
      <contour>
        <pt x="275" y="690" on="1"/>
        <pt x="202" y="175" on="1"/>
        <pt x="199" y="149" on="0"/>
        <pt x="218" y="124" on="0"/>
        <pt x="247" y="124" on="1"/>
        <pt x="483" y="124" on="1"/>
        <pt x="480" y="7" on="1"/>
        <pt x="382" y="-3" on="0"/>
        <pt x="190" y="-3" on="1"/>
        <pt x="116" y="-3" on="0"/>
        <pt x="38" y="82" on="0"/>
        <pt x="49" y="156" on="1"/>
        <pt x="122" y="690" on="1"/>
      </contour>
    </TTGlyph>
    <TTGlyph name="Lcommaaccent" xMin="49" yMin="-294" xMax="483" yMax="690">
      <contour>
        <pt x="275" y="690" on="1"/>
        <pt x="202" y="175" on="1"/>
        <pt x="199" y="149" on="0"/>
        <pt x="218" y="124" on="0"/>
        <pt x="247" y="124" on="1"/>
        <pt x="483" y="124" on="1"/>
        <pt x="480" y="7" on="1"/>
        <pt x="382" y="-3" on="0"/>
        <pt x="190" y="-3" on="1"/>
        <pt x="116" y="-3" on="0"/>
        <pt x="38" y="82" on="0"/>
        <pt x="49" y="156" on="1"/>
        <pt x="122" y="690" on="1"/>
      </contour>
      <contour>
        <pt x="249" y="-52" on="1"/>
        <pt x="278" y="-52" on="1"/>
        <pt x="304" y="-52" on="0"/>
        <pt x="325" y="-73" on="0"/>
        <pt x="321" y="-96" on="1"/>
        <pt x="313" y="-148" on="1"/>
        <pt x="302" y="-225" on="0"/>
        <pt x="247" y="-294" on="1"/>
        <pt x="188" y="-275" on="1"/>
        <pt x="211" y="-220" on="0"/>
        <pt x="222" y="-172" on="1"/>
        <pt x="201" y="-173" on="0"/>
        <pt x="184" y="-154" on="0"/>
        <pt x="186" y="-135" on="1"/>
        <pt x="192" y="-93" on="1"/>
        <pt x="197" y="-69" on="0"/>
        <pt x="221" y="-52" on="0"/>
      </contour>
    </TTGlyph>
    <TTGlyph name="Ldot" xMin="49" yMin="-3" xMax="485" yMax="690">
      <contour>
        <pt x="275" y="690" on="1"/>
        <pt x="202" y="175" on="1"/>
        <pt x="199" y="149" on="0"/>
        <pt x="218" y="124" on="0"/>
        <pt x="247" y="124" on="1"/>
        <pt x="483" y="124" on="1"/>
        <pt x="480" y="7" on="1"/>
        <pt x="382" y="-3" on="0"/>
        <pt x="190" y="-3" on="1"/>
        <pt x="116" y="-3" on="0"/>
        <pt x="38" y="82" on="0"/>
        <pt x="49" y="156" on="1"/>
        <pt x="122" y="690" on="1"/>
      </contour>
      <contour>
        <pt x="435" y="342" on="1"/>
        <pt x="391" y="342" on="1"/>
        <pt x="371" y="342" on="0"/>
        <pt x="348" y="365" on="0"/>
        <pt x="350" y="385" on="1"/>
        <pt x="357" y="438" on="1"/>
        <pt x="362" y="476" on="0"/>
        <pt x="400" y="476" on="1"/>
        <pt x="445" y="476" on="1"/>
        <pt x="491" y="476" on="0"/>
        <pt x="485" y="432" on="1"/>
        <pt x="478" y="380" on="1"/>
        <pt x="472" y="342" on="0"/>
      </contour>
    </TTGlyph>
    <TTGlyph name="Lslash" xMin="13" yMin="-3" xMax="484" yMax="690">
      <contour>
        <pt x="484" y="124" on="1"/>
        <pt x="481" y="7" on="1"/>
        <pt x="383" y="-3" on="0"/>
        <pt x="191" y="-3" on="1"/>
        <pt x="117" y="-3" on="0"/>
        <pt x="39" y="82" on="0"/>
        <pt x="50" y="156" on="1"/>
        <pt x="71" y="309" on="1"/>
        <pt x="13" y="287" on="1"/>
        <pt x="22" y="368" on="1"/>
        <pt x="82" y="391" on="1"/>
        <pt x="123" y="690" on="1"/>
        <pt x="276" y="690" on="1"/>
        <pt x="242" y="452" on="1"/>
        <pt x="358" y="495" on="1"/>
        <pt x="347" y="414" on="1"/>
        <pt x="231" y="370" on="1"/>
        <pt x="203" y="175" on="1"/>
        <pt x="200" y="149" on="0"/>
        <pt x="219" y="124" on="0"/>
        <pt x="248" y="124" on="1"/>
      </contour>
    </TTGlyph>
    <TTGlyph name="M" xMin="16" yMin="0" xMax="873" yMax="690">
      <contour>
        <pt x="673" y="690" on="1"/>
        <pt x="820" y="690" on="1"/>
        <pt x="848" y="690" on="0"/>
        <pt x="876" y="658" on="0"/>
        <pt x="873" y="631" on="1"/>
        <pt x="811" y="0" on="1"/>
        <pt x="667" y="0" on="1"/>
        <pt x="727" y="571" on="1"/>
        <pt x="710" y="571" on="1"/>
        <pt x="547" y="141" on="1"/>
        <pt x="532" y="95" on="0"/>
        <pt x="482" y="95" on="1"/>
        <pt x="382" y="95" on="1"/>
        <pt x="330" y="95" on="0"/>
        <pt x="325" y="146" on="1"/>
        <pt x="276" y="571" on="1"/>
        <pt x="259" y="571" on="1"/>
        <pt x="160" y="0" on="1"/>
        <pt x="16" y="0" on="1"/>
        <pt x="131" y="636" on="1"/>
        <pt x="136" y="664" on="0"/>
        <pt x="164" y="690" on="0"/>
        <pt x="191" y="690" on="1"/>
        <pt x="334" y="690" on="1"/>
        <pt x="383" y="690" on="0"/>
        <pt x="388" y="638" on="1"/>
        <pt x="427" y="294" on="1"/>
        <pt x="432" y="253" on="0"/>
        <pt x="432" y="196" on="1"/>
        <pt x="446" y="196" on="1"/>
        <pt x="460" y="242" on="0"/>
        <pt x="478" y="291" on="1"/>
        <pt x="608" y="643" on="1"/>
        <pt x="623" y="689" on="0"/>
      </contour>
    </TTGlyph>
    <TTGlyph name="N" xMin="28" yMin="0" xMax="704" yMax="690">
      <contour>
        <pt x="704" y="690" on="1"/>
        <pt x="614" y="52" on="1"/>
        <pt x="607" y="0" on="0"/>
        <pt x="557" y="0" on="1"/>
        <pt x="472" y="0" on="1"/>
        <pt x="449" y="0" on="0"/>
        <pt x="426" y="22" on="0"/>
        <pt x="415" y="48" on="1"/>
        <pt x="278" y="416" on="1"/>
        <pt x="259" y="466" on="0"/>
        <pt x="248" y="520" on="1"/>
        <pt x="238" y="520" on="1"/>
        <pt x="236" y="459" on="0"/>
        <pt x="230" y="412" on="1"/>
        <pt x="173" y="0" on="1"/>
        <pt x="28" y="0" on="1"/>
        <pt x="118" y="638" on="1"/>
        <pt x="125" y="690" on="0"/>
        <pt x="176" y="690" on="1"/>
        <pt x="260" y="690" on="1"/>
        <pt x="282" y="690" on="0"/>
        <pt x="306" y="667" on="0"/>
        <pt x="316" y="642" on="1"/>
        <pt x="449" y="286" on="1"/>
        <pt x="472" y="225" on="0"/>
        <pt x="485" y="174" on="1"/>
        <pt x="497" y="174" on="1"/>
        <pt x="497" y="233" on="0"/>
        <pt x="504" y="285" on="1"/>
        <pt x="559" y="690" on="1"/>
      </contour>
    </TTGlyph>
    <TTGlyph name="Nacute" xMin="28" yMin="0" xMax="704" yMax="937">
      <contour>
        <pt x="621" y="829" on="1"/>
        <pt x="384" y="723" on="1"/>
        <pt x="347" y="786" on="1"/>
        <pt x="565" y="937" on="1"/>
      </contour>
      <contour>
        <pt x="704" y="690" on="1"/>
        <pt x="614" y="52" on="1"/>
        <pt x="607" y="0" on="0"/>
        <pt x="557" y="0" on="1"/>
        <pt x="472" y="0" on="1"/>
        <pt x="449" y="0" on="0"/>
        <pt x="426" y="22" on="0"/>
        <pt x="415" y="48" on="1"/>
        <pt x="278" y="416" on="1"/>
        <pt x="259" y="466" on="0"/>
        <pt x="248" y="520" on="1"/>
        <pt x="238" y="520" on="1"/>
        <pt x="236" y="459" on="0"/>
        <pt x="230" y="412" on="1"/>
        <pt x="173" y="0" on="1"/>
        <pt x="28" y="0" on="1"/>
        <pt x="118" y="638" on="1"/>
        <pt x="125" y="690" on="0"/>
        <pt x="176" y="690" on="1"/>
        <pt x="260" y="690" on="1"/>
        <pt x="282" y="690" on="0"/>
        <pt x="306" y="667" on="0"/>
        <pt x="316" y="642" on="1"/>
        <pt x="449" y="286" on="1"/>
        <pt x="472" y="225" on="0"/>
        <pt x="485" y="174" on="1"/>
        <pt x="497" y="174" on="1"/>
        <pt x="497" y="233" on="0"/>
        <pt x="504" y="285" on="1"/>
        <pt x="559" y="690" on="1"/>
      </contour>
    </TTGlyph>
    <TTGlyph name="Ncaron" xMin="28" yMin="0" xMax="704" yMax="929">
      <contour>
        <pt x="626" y="870" on="1"/>
        <pt x="466" y="739" on="1"/>
        <pt x="386" y="739" on="1"/>
        <pt x="252" y="880" on="1"/>
        <pt x="301" y="929" on="1"/>
        <pt x="427" y="837" on="1"/>
        <pt x="435" y="837" on="1"/>
        <pt x="591" y="928" on="1"/>
      </contour>
      <contour>
        <pt x="704" y="690" on="1"/>
        <pt x="614" y="52" on="1"/>
        <pt x="607" y="0" on="0"/>
        <pt x="557" y="0" on="1"/>
        <pt x="472" y="0" on="1"/>
        <pt x="449" y="0" on="0"/>
        <pt x="426" y="22" on="0"/>
        <pt x="415" y="48" on="1"/>
        <pt x="278" y="416" on="1"/>
        <pt x="259" y="466" on="0"/>
        <pt x="248" y="520" on="1"/>
        <pt x="238" y="520" on="1"/>
        <pt x="236" y="459" on="0"/>
        <pt x="230" y="412" on="1"/>
        <pt x="173" y="0" on="1"/>
        <pt x="28" y="0" on="1"/>
        <pt x="118" y="638" on="1"/>
        <pt x="125" y="690" on="0"/>
        <pt x="176" y="690" on="1"/>
        <pt x="260" y="690" on="1"/>
        <pt x="282" y="690" on="0"/>
        <pt x="306" y="667" on="0"/>
        <pt x="316" y="642" on="1"/>
        <pt x="449" y="286" on="1"/>
        <pt x="472" y="225" on="0"/>
        <pt x="485" y="174" on="1"/>
        <pt x="497" y="174" on="1"/>
        <pt x="497" y="233" on="0"/>
        <pt x="504" y="285" on="1"/>
        <pt x="559" y="690" on="1"/>
      </contour>
    </TTGlyph>
    <TTGlyph name="Ncommaaccent" xMin="28" yMin="-294" xMax="704" yMax="690">
      <contour>
        <pt x="704" y="690" on="1"/>
        <pt x="614" y="52" on="1"/>
        <pt x="607" y="0" on="0"/>
        <pt x="557" y="0" on="1"/>
        <pt x="472" y="0" on="1"/>
        <pt x="449" y="0" on="0"/>
        <pt x="426" y="22" on="0"/>
        <pt x="415" y="48" on="1"/>
        <pt x="278" y="416" on="1"/>
        <pt x="259" y="466" on="0"/>
        <pt x="248" y="520" on="1"/>
        <pt x="238" y="520" on="1"/>
        <pt x="236" y="459" on="0"/>
        <pt x="230" y="412" on="1"/>
        <pt x="173" y="0" on="1"/>
        <pt x="28" y="0" on="1"/>
        <pt x="118" y="638" on="1"/>
        <pt x="125" y="690" on="0"/>
        <pt x="176" y="690" on="1"/>
        <pt x="260" y="690" on="1"/>
        <pt x="282" y="690" on="0"/>
        <pt x="306" y="667" on="0"/>
        <pt x="316" y="642" on="1"/>
        <pt x="449" y="286" on="1"/>
        <pt x="472" y="225" on="0"/>
        <pt x="485" y="174" on="1"/>
        <pt x="497" y="174" on="1"/>
        <pt x="497" y="233" on="0"/>
        <pt x="504" y="285" on="1"/>
        <pt x="559" y="690" on="1"/>
      </contour>
      <contour>
        <pt x="322" y="-52" on="1"/>
        <pt x="352" y="-52" on="1"/>
        <pt x="403" y="-52" on="0"/>
        <pt x="394" y="-96" on="1"/>
        <pt x="387" y="-148" on="1"/>
        <pt x="374" y="-226" on="0"/>
        <pt x="320" y="-294" on="1"/>
        <pt x="261" y="-275" on="1"/>
        <pt x="283" y="-222" on="0"/>
        <pt x="296" y="-172" on="1"/>
        <pt x="275" y="-173" on="0"/>
        <pt x="257" y="-154" on="0"/>
        <pt x="259" y="-135" on="1"/>
        <pt x="266" y="-93" on="1"/>
        <pt x="270" y="-69" on="0"/>
        <pt x="295" y="-52" on="0"/>
      </contour>
    </TTGlyph>
    <TTGlyph name="Ntilde" xMin="28" yMin="0" xMax="704" yMax="899">
      <contour>
        <pt x="315" y="754" on="1"/>
        <pt x="253" y="760" on="1"/>
        <pt x="253" y="830" on="0"/>
        <pt x="305" y="901" on="0"/>
        <pt x="346" y="899" on="1"/>
        <pt x="380" y="897" on="0"/>
        <pt x="480" y="853" on="0"/>
        <pt x="497" y="850" on="1"/>
        <pt x="524" y="846" on="0"/>
        <pt x="547" y="869" on="0"/>
        <pt x="551" y="896" on="1"/>
        <pt x="613" y="891" on="1"/>
        <pt x="614" y="822" on="0"/>
        <pt x="563" y="751" on="0"/>
        <pt x="521" y="753" on="1"/>
        <pt x="485" y="755" on="0"/>
        <pt x="382" y="801" on="0"/>
        <pt x="368" y="803" on="1"/>
        <pt x="342" y="807" on="0"/>
        <pt x="319" y="782" on="0"/>
      </contour>
      <contour>
        <pt x="704" y="690" on="1"/>
        <pt x="614" y="52" on="1"/>
        <pt x="607" y="0" on="0"/>
        <pt x="557" y="0" on="1"/>
        <pt x="472" y="0" on="1"/>
        <pt x="449" y="0" on="0"/>
        <pt x="426" y="22" on="0"/>
        <pt x="415" y="48" on="1"/>
        <pt x="278" y="416" on="1"/>
        <pt x="259" y="466" on="0"/>
        <pt x="248" y="520" on="1"/>
        <pt x="238" y="520" on="1"/>
        <pt x="236" y="459" on="0"/>
        <pt x="230" y="412" on="1"/>
        <pt x="173" y="0" on="1"/>
        <pt x="28" y="0" on="1"/>
        <pt x="118" y="638" on="1"/>
        <pt x="125" y="690" on="0"/>
        <pt x="176" y="690" on="1"/>
        <pt x="260" y="690" on="1"/>
        <pt x="282" y="690" on="0"/>
        <pt x="306" y="667" on="0"/>
        <pt x="316" y="642" on="1"/>
        <pt x="449" y="286" on="1"/>
        <pt x="472" y="225" on="0"/>
        <pt x="485" y="174" on="1"/>
        <pt x="497" y="174" on="1"/>
        <pt x="497" y="233" on="0"/>
        <pt x="504" y="285" on="1"/>
        <pt x="559" y="690" on="1"/>
      </contour>
    </TTGlyph>
    <TTGlyph name="O" xMin="54" yMin="-13" xMax="641" yMax="703">
      <contour>
        <pt x="229" y="703" on="0"/>
        <pt x="547" y="703" on="0"/>
        <pt x="669" y="540" on="0"/>
        <pt x="641" y="339" on="1"/>
        <pt x="614" y="137" on="0"/>
        <pt x="467" y="-13" on="0"/>
        <pt x="309" y="-13" on="1"/>
        <pt x="147" y="-13" on="0"/>
        <pt x="27" y="147" on="0"/>
        <pt x="54" y="351" on="1"/>
        <pt x="82" y="550" on="0"/>
      </contour>
      <contour>
        <pt x="383" y="580" on="1"/>
        <pt x="303" y="580" on="0"/>
        <pt x="235" y="483" on="0"/>
        <pt x="214" y="339" on="1"/>
        <pt x="195" y="204" on="0"/>
        <pt x="235" y="110" on="0"/>
        <pt x="312" y="110" on="1"/>
        <pt x="391" y="110" on="0"/>
        <pt x="461" y="209" on="0"/>
        <pt x="482" y="351" on="1"/>
        <pt x="502" y="488" on="0"/>
        <pt x="461" y="580" on="0"/>
      </contour>
    </TTGlyph>
    <TTGlyph name="OE" xMin="46" yMin="-13" xMax="959" yMax="703">
      <contour>
        <pt x="940" y="570" on="1"/>
        <pt x="685" y="570" on="1"/>
        <pt x="633" y="570" on="0"/>
        <pt x="627" y="516" on="1"/>
        <pt x="612" y="411" on="1"/>
        <pt x="881" y="411" on="1"/>
        <pt x="868" y="306" on="1"/>
        <pt x="598" y="306" on="1"/>
        <pt x="579" y="168" on="1"/>
        <pt x="575" y="142" on="0"/>
        <pt x="594" y="120" on="0"/>
        <pt x="620" y="120" on="1"/>
        <pt x="876" y="120" on="1"/>
        <pt x="873" y="7" on="1"/>
        <pt x="783" y="-3" on="0"/>
        <pt x="571" y="-3" on="1"/>
        <pt x="514" y="-3" on="0"/>
        <pt x="474" y="21" on="1"/>
        <pt x="399" y="-13" on="0"/>
        <pt x="304" y="-13" on="1"/>
        <pt x="219" y="-13" on="0"/>
        <pt x="114" y="22" on="0"/>
        <pt x="50" y="106" on="0"/>
        <pt x="42" y="246" on="0"/>
        <pt x="54" y="351" on="1"/>
        <pt x="83" y="554" on="0"/>
        <pt x="228" y="703" on="0"/>
        <pt x="388" y="703" on="1"/>
        <pt x="488" y="703" on="0"/>
        <pt x="558" y="675" on="1"/>
        <pt x="592" y="693" on="0"/>
        <pt x="640" y="693" on="1"/>
        <pt x="859" y="693" on="0"/>
        <pt x="959" y="682" on="1"/>
      </contour>
      <contour>
        <pt x="479" y="557" on="1"/>
        <pt x="482" y="572" on="1"/>
        <pt x="442" y="580" on="0"/>
        <pt x="388" y="580" on="1"/>
        <pt x="308" y="580" on="0"/>
        <pt x="233" y="478" on="0"/>
        <pt x="214" y="339" on="1"/>
        <pt x="195" y="205" on="0"/>
        <pt x="232" y="110" on="0"/>
        <pt x="305" y="110" on="1"/>
        <pt x="374" y="110" on="0"/>
        <pt x="421" y="124" on="1"/>
        <pt x="421" y="132" on="0"/>
        <pt x="423" y="152" on="1"/>
      </contour>
    </TTGlyph>
    <TTGlyph name="Oacute" xMin="54" yMin="-13" xMax="641" yMax="937">
      <contour>
        <pt x="601" y="829" on="1"/>
        <pt x="364" y="723" on="1"/>
        <pt x="326" y="786" on="1"/>
        <pt x="545" y="937" on="1"/>
      </contour>
      <contour>
        <pt x="229" y="703" on="0"/>
        <pt x="547" y="703" on="0"/>
        <pt x="669" y="540" on="0"/>
        <pt x="641" y="339" on="1"/>
        <pt x="614" y="137" on="0"/>
        <pt x="467" y="-13" on="0"/>
        <pt x="309" y="-13" on="1"/>
        <pt x="147" y="-13" on="0"/>
        <pt x="27" y="147" on="0"/>
        <pt x="54" y="351" on="1"/>
        <pt x="82" y="550" on="0"/>
      </contour>
      <contour>
        <pt x="383" y="580" on="1"/>
        <pt x="303" y="580" on="0"/>
        <pt x="235" y="483" on="0"/>
        <pt x="214" y="339" on="1"/>
        <pt x="195" y="204" on="0"/>
        <pt x="235" y="110" on="0"/>
        <pt x="312" y="110" on="1"/>
        <pt x="391" y="110" on="0"/>
        <pt x="461" y="209" on="0"/>
        <pt x="482" y="351" on="1"/>
        <pt x="502" y="488" on="0"/>
        <pt x="461" y="580" on="0"/>
      </contour>
    </TTGlyph>
    <TTGlyph name="Ocircumflex" xMin="54" yMin="-13" xMax="641" yMax="912">
      <contour>
        <pt x="598" y="773" on="1"/>
        <pt x="552" y="721" on="1"/>
        <pt x="421" y="819" on="1"/>
        <pt x="413" y="819" on="1"/>
        <pt x="258" y="723" on="1"/>
        <pt x="221" y="779" on="1"/>
        <pt x="369" y="912" on="1"/>
        <pt x="470" y="912" on="1"/>
      </contour>
      <contour>
        <pt x="229" y="703" on="0"/>
        <pt x="547" y="703" on="0"/>
        <pt x="669" y="540" on="0"/>
        <pt x="641" y="339" on="1"/>
        <pt x="614" y="137" on="0"/>
        <pt x="467" y="-13" on="0"/>
        <pt x="309" y="-13" on="1"/>
        <pt x="147" y="-13" on="0"/>
        <pt x="27" y="147" on="0"/>
        <pt x="54" y="351" on="1"/>
        <pt x="82" y="550" on="0"/>
      </contour>
      <contour>
        <pt x="383" y="580" on="1"/>
        <pt x="303" y="580" on="0"/>
        <pt x="235" y="483" on="0"/>
        <pt x="214" y="339" on="1"/>
        <pt x="195" y="204" on="0"/>
        <pt x="235" y="110" on="0"/>
        <pt x="312" y="110" on="1"/>
        <pt x="391" y="110" on="0"/>
        <pt x="461" y="209" on="0"/>
        <pt x="482" y="351" on="1"/>
        <pt x="502" y="488" on="0"/>
        <pt x="461" y="580" on="0"/>
      </contour>
    </TTGlyph>
    <TTGlyph name="Odieresis" xMin="54" yMin="-13" xMax="641" yMax="886">
      <contour>
        <pt x="485" y="886" on="1"/>
        <pt x="536" y="886" on="1"/>
        <pt x="568" y="886" on="0"/>
        <pt x="564" y="856" on="1"/>
        <pt x="554" y="793" on="1"/>
        <pt x="551" y="763" on="0"/>
        <pt x="522" y="763" on="1"/>
        <pt x="468" y="763" on="1"/>
        <pt x="437" y="763" on="0"/>
        <pt x="441" y="792" on="1"/>
        <pt x="450" y="855" on="1"/>
        <pt x="456" y="886" on="0"/>
      </contour>
      <contour>
        <pt x="311" y="886" on="1"/>
        <pt x="361" y="886" on="1"/>
        <pt x="379" y="886" on="0"/>
        <pt x="391" y="872" on="0"/>
        <pt x="389" y="856" on="1"/>
        <pt x="379" y="793" on="1"/>
        <pt x="376" y="763" on="0"/>
        <pt x="347" y="763" on="1"/>
        <pt x="293" y="763" on="1"/>
        <pt x="262" y="763" on="0"/>
        <pt x="266" y="792" on="1"/>
        <pt x="275" y="855" on="1"/>
        <pt x="279" y="886" on="0"/>
      </contour>
      <contour>
        <pt x="229" y="703" on="0"/>
        <pt x="547" y="703" on="0"/>
        <pt x="669" y="540" on="0"/>
        <pt x="641" y="339" on="1"/>
        <pt x="614" y="137" on="0"/>
        <pt x="467" y="-13" on="0"/>
        <pt x="309" y="-13" on="1"/>
        <pt x="147" y="-13" on="0"/>
        <pt x="27" y="147" on="0"/>
        <pt x="54" y="351" on="1"/>
        <pt x="82" y="550" on="0"/>
      </contour>
      <contour>
        <pt x="383" y="580" on="1"/>
        <pt x="303" y="580" on="0"/>
        <pt x="235" y="483" on="0"/>
        <pt x="214" y="339" on="1"/>
        <pt x="195" y="204" on="0"/>
        <pt x="235" y="110" on="0"/>
        <pt x="312" y="110" on="1"/>
        <pt x="391" y="110" on="0"/>
        <pt x="461" y="209" on="0"/>
        <pt x="482" y="351" on="1"/>
        <pt x="502" y="488" on="0"/>
        <pt x="461" y="580" on="0"/>
      </contour>
    </TTGlyph>
    <TTGlyph name="Ograve" xMin="54" yMin="-13" xMax="641" yMax="934">
      <contour>
        <pt x="481" y="786" on="1"/>
        <pt x="432" y="723" on="1"/>
        <pt x="211" y="837" on="1"/>
        <pt x="277" y="934" on="1"/>
      </contour>
      <contour>
        <pt x="229" y="703" on="0"/>
        <pt x="547" y="703" on="0"/>
        <pt x="669" y="540" on="0"/>
        <pt x="641" y="339" on="1"/>
        <pt x="614" y="137" on="0"/>
        <pt x="467" y="-13" on="0"/>
        <pt x="309" y="-13" on="1"/>
        <pt x="147" y="-13" on="0"/>
        <pt x="27" y="147" on="0"/>
        <pt x="54" y="351" on="1"/>
        <pt x="82" y="550" on="0"/>
      </contour>
      <contour>
        <pt x="383" y="580" on="1"/>
        <pt x="303" y="580" on="0"/>
        <pt x="235" y="483" on="0"/>
        <pt x="214" y="339" on="1"/>
        <pt x="195" y="204" on="0"/>
        <pt x="235" y="110" on="0"/>
        <pt x="312" y="110" on="1"/>
        <pt x="391" y="110" on="0"/>
        <pt x="461" y="209" on="0"/>
        <pt x="482" y="351" on="1"/>
        <pt x="502" y="488" on="0"/>
        <pt x="461" y="580" on="0"/>
      </contour>
    </TTGlyph>
    <TTGlyph name="Ohungarumlaut" xMin="54" yMin="-13" xMax="658" yMax="942">
      <contour>
        <pt x="469" y="882" on="1"/>
        <pt x="299" y="720" on="1"/>
        <pt x="239" y="762" on="1"/>
        <pt x="382" y="942" on="1"/>
      </contour>
      <contour>
        <pt x="658" y="882" on="1"/>
        <pt x="488" y="720" on="1"/>
        <pt x="429" y="761" on="1"/>
        <pt x="571" y="942" on="1"/>
      </contour>
      <contour>
        <pt x="229" y="703" on="0"/>
        <pt x="547" y="703" on="0"/>
        <pt x="669" y="540" on="0"/>
        <pt x="641" y="339" on="1"/>
        <pt x="614" y="137" on="0"/>
        <pt x="467" y="-13" on="0"/>
        <pt x="309" y="-13" on="1"/>
        <pt x="147" y="-13" on="0"/>
        <pt x="27" y="147" on="0"/>
        <pt x="54" y="351" on="1"/>
        <pt x="82" y="550" on="0"/>
      </contour>
      <contour>
        <pt x="383" y="580" on="1"/>
        <pt x="303" y="580" on="0"/>
        <pt x="235" y="483" on="0"/>
        <pt x="214" y="339" on="1"/>
        <pt x="195" y="204" on="0"/>
        <pt x="235" y="110" on="0"/>
        <pt x="312" y="110" on="1"/>
        <pt x="391" y="110" on="0"/>
        <pt x="461" y="209" on="0"/>
        <pt x="482" y="351" on="1"/>
        <pt x="502" y="488" on="0"/>
        <pt x="461" y="580" on="0"/>
      </contour>
    </TTGlyph>
    <TTGlyph name="Omacron" xMin="54" yMin="-13" xMax="641" yMax="872">
      <contour>
        <pt x="557" y="776" on="1"/>
        <pt x="258" y="776" on="1"/>
        <pt x="271" y="872" on="1"/>
        <pt x="570" y="872" on="1"/>
      </contour>
      <contour>
        <pt x="229" y="703" on="0"/>
        <pt x="547" y="703" on="0"/>
        <pt x="669" y="540" on="0"/>
        <pt x="641" y="339" on="1"/>
        <pt x="614" y="137" on="0"/>
        <pt x="467" y="-13" on="0"/>
        <pt x="309" y="-13" on="1"/>
        <pt x="147" y="-13" on="0"/>
        <pt x="27" y="147" on="0"/>
        <pt x="54" y="351" on="1"/>
        <pt x="82" y="550" on="0"/>
      </contour>
      <contour>
        <pt x="383" y="580" on="1"/>
        <pt x="303" y="580" on="0"/>
        <pt x="235" y="483" on="0"/>
        <pt x="214" y="339" on="1"/>
        <pt x="195" y="204" on="0"/>
        <pt x="235" y="110" on="0"/>
        <pt x="312" y="110" on="1"/>
        <pt x="391" y="110" on="0"/>
        <pt x="461" y="209" on="0"/>
        <pt x="482" y="351" on="1"/>
        <pt x="502" y="488" on="0"/>
        <pt x="461" y="580" on="0"/>
      </contour>
    </TTGlyph>
    <TTGlyph name="Omega" xMin="4" yMin="0" xMax="670" yMax="703">
      <contour>
        <pt x="20" y="123" on="1"/>
        <pt x="100" y="123" on="1"/>
        <pt x="137" y="123" on="0"/>
        <pt x="171" y="111" on="1"/>
        <pt x="109" y="175" on="0"/>
        <pt x="61" y="302" on="0"/>
        <pt x="74" y="395" on="1"/>
        <pt x="95" y="552" on="0"/>
        <pt x="252" y="703" on="0"/>
        <pt x="408" y="703" on="1"/>
        <pt x="715" y="703" on="0"/>
        <pt x="670" y="381" on="1"/>
        <pt x="656" y="283" on="0"/>
        <pt x="579" y="168" on="0"/>
        <pt x="494" y="110" on="1"/>
        <pt x="529" y="123" on="0"/>
        <pt x="566" y="123" on="1"/>
        <pt x="648" y="123" on="1"/>
        <pt x="632" y="0" on="1"/>
        <pt x="355" y="0" on="1"/>
        <pt x="368" y="115" on="1"/>
        <pt x="435" y="164" on="0"/>
        <pt x="496" y="274" on="0"/>
        <pt x="509" y="368" on="1"/>
        <pt x="526" y="488" on="0"/>
        <pt x="479" y="581" on="0"/>
        <pt x="402" y="581" on="1"/>
        <pt x="321" y="581" on="0"/>
        <pt x="246" y="487" on="0"/>
        <pt x="229" y="367" on="1"/>
        <pt x="215" y="273" on="0"/>
        <pt x="243" y="164" on="0"/>
        <pt x="293" y="114" on="1"/>
        <pt x="280" y="0" on="1"/>
        <pt x="4" y="0" on="1"/>
      </contour>
    </TTGlyph>
    <TTGlyph name="Oslash" xMin="46" yMin="-103" xMax="659" yMax="801">
      <contour>
        <pt x="659" y="746" on="1"/>
        <pt x="595" y="638" on="1"/>
        <pt x="672" y="555" on="0"/>
        <pt x="641" y="339" on="1"/>
        <pt x="614" y="137" on="0"/>
        <pt x="467" y="-13" on="0"/>
        <pt x="309" y="-13" on="1"/>
        <pt x="251" y="-13" on="0"/>
        <pt x="212" y="-5" on="1"/>
        <pt x="152" y="-103" on="1"/>
        <pt x="46" y="-47" on="1"/>
        <pt x="104" y="48" on="1"/>
        <pt x="24" y="128" on="0"/>
        <pt x="54" y="351" on="1"/>
        <pt x="82" y="550" on="0"/>
        <pt x="229" y="703" on="0"/>
        <pt x="388" y="703" on="1"/>
        <pt x="444" y="703" on="0"/>
        <pt x="488" y="694" on="1"/>
        <pt x="553" y="801" on="1"/>
      </contour>
      <contour>
        <pt x="482" y="351" on="1"/>
        <pt x="502" y="488" on="0"/>
        <pt x="461" y="580" on="0"/>
        <pt x="383" y="580" on="1"/>
        <pt x="303" y="580" on="0"/>
        <pt x="235" y="483" on="0"/>
        <pt x="214" y="339" on="1"/>
        <pt x="195" y="204" on="0"/>
        <pt x="235" y="110" on="0"/>
        <pt x="312" y="110" on="1"/>
        <pt x="391" y="110" on="0"/>
        <pt x="461" y="209" on="0"/>
      </contour>
    </TTGlyph>
    <TTGlyph name="Otilde" xMin="54" yMin="-13" xMax="641" yMax="899">
      <contour>
        <pt x="295" y="754" on="1"/>
        <pt x="232" y="760" on="1"/>
        <pt x="233" y="830" on="0"/>
        <pt x="285" y="901" on="0"/>
        <pt x="326" y="899" on="1"/>
        <pt x="359" y="897" on="0"/>
        <pt x="460" y="853" on="0"/>
        <pt x="477" y="850" on="1"/>
        <pt x="504" y="846" on="0"/>
        <pt x="527" y="869" on="0"/>
        <pt x="531" y="896" on="1"/>
        <pt x="593" y="891" on="1"/>
        <pt x="594" y="822" on="0"/>
        <pt x="543" y="751" on="0"/>
        <pt x="501" y="753" on="1"/>
        <pt x="465" y="755" on="0"/>
        <pt x="362" y="801" on="0"/>
        <pt x="348" y="803" on="1"/>
        <pt x="322" y="807" on="0"/>
        <pt x="299" y="782" on="0"/>
      </contour>
      <contour>
        <pt x="229" y="703" on="0"/>
        <pt x="547" y="703" on="0"/>
        <pt x="669" y="540" on="0"/>
        <pt x="641" y="339" on="1"/>
        <pt x="614" y="137" on="0"/>
        <pt x="467" y="-13" on="0"/>
        <pt x="309" y="-13" on="1"/>
        <pt x="147" y="-13" on="0"/>
        <pt x="27" y="147" on="0"/>
        <pt x="54" y="351" on="1"/>
        <pt x="82" y="550" on="0"/>
      </contour>
      <contour>
        <pt x="383" y="580" on="1"/>
        <pt x="303" y="580" on="0"/>
        <pt x="235" y="483" on="0"/>
        <pt x="214" y="339" on="1"/>
        <pt x="195" y="204" on="0"/>
        <pt x="235" y="110" on="0"/>
        <pt x="312" y="110" on="1"/>
        <pt x="391" y="110" on="0"/>
        <pt x="461" y="209" on="0"/>
        <pt x="482" y="351" on="1"/>
        <pt x="502" y="488" on="0"/>
        <pt x="461" y="580" on="0"/>
      </contour>
    </TTGlyph>
    <TTGlyph name="P" xMin="28" yMin="0" xMax="604" yMax="699">
      <contour>
        <pt x="28" y="0" on="1"/>
        <pt x="125" y="690" on="1"/>
        <pt x="217" y="699" on="0"/>
        <pt x="379" y="699" on="1"/>
        <pt x="518" y="699" on="0"/>
        <pt x="622" y="596" on="0"/>
        <pt x="604" y="468" on="1"/>
        <pt x="586" y="336" on="0"/>
        <pt x="476" y="248" on="0"/>
        <pt x="345" y="248" on="1"/>
        <pt x="276" y="248" on="0"/>
        <pt x="216" y="257" on="1"/>
        <pt x="180" y="0" on="1"/>
      </contour>
      <contour>
        <pt x="231" y="365" on="1"/>
        <pt x="335" y="365" on="1"/>
        <pt x="397" y="365" on="0"/>
        <pt x="444" y="409" on="0"/>
        <pt x="454" y="479" on="1"/>
        <pt x="463" y="539" on="0"/>
        <pt x="429" y="582" on="0"/>
        <pt x="375" y="582" on="1"/>
        <pt x="262" y="581" on="1"/>
      </contour>
    </TTGlyph>
    <TTGlyph name="Q" xMin="54" yMin="-246" xMax="641" yMax="703">
      <contour>
        <pt x="229" y="703" on="0"/>
        <pt x="547" y="703" on="0"/>
        <pt x="669" y="540" on="0"/>
        <pt x="641" y="339" on="1"/>
        <pt x="614" y="137" on="0"/>
        <pt x="467" y="-13" on="0"/>
        <pt x="309" y="-13" on="1"/>
        <pt x="147" y="-13" on="0"/>
        <pt x="27" y="147" on="0"/>
        <pt x="54" y="351" on="1"/>
        <pt x="82" y="550" on="0"/>
      </contour>
      <contour>
        <pt x="383" y="580" on="1"/>
        <pt x="303" y="580" on="0"/>
        <pt x="235" y="483" on="0"/>
        <pt x="214" y="339" on="1"/>
        <pt x="195" y="204" on="0"/>
        <pt x="235" y="110" on="0"/>
        <pt x="312" y="110" on="1"/>
        <pt x="391" y="110" on="0"/>
        <pt x="461" y="209" on="0"/>
        <pt x="482" y="351" on="1"/>
        <pt x="502" y="488" on="0"/>
        <pt x="461" y="580" on="0"/>
      </contour>
      <contour>
        <pt x="191" y="-116" on="1"/>
        <pt x="240" y="-36" on="1"/>
        <pt x="357" y="-83" on="0"/>
        <pt x="532" y="-110" on="1"/>
        <pt x="474" y="-246" on="1"/>
        <pt x="313" y="-201" on="0"/>
      </contour>
    </TTGlyph>
    <TTGlyph name="R" xMin="28" yMin="0" xMax="612" yMax="699">
      <contour>
        <pt x="28" y="0" on="1"/>
        <pt x="125" y="690" on="1"/>
        <pt x="217" y="699" on="0"/>
        <pt x="380" y="699" on="1"/>
        <pt x="509" y="699" on="0"/>
        <pt x="628" y="604" on="0"/>
        <pt x="612" y="489" on="1"/>
        <pt x="602" y="416" on="0"/>
        <pt x="531" y="333" on="0"/>
        <pt x="457" y="324" on="1"/>
        <pt x="456" y="318" on="1"/>
        <pt x="525" y="302" on="0"/>
        <pt x="539" y="212" on="1"/>
        <pt x="575" y="0" on="1"/>
        <pt x="419" y="0" on="1"/>
        <pt x="387" y="214" on="1"/>
        <pt x="383" y="246" on="0"/>
        <pt x="357" y="269" on="0"/>
        <pt x="329" y="269" on="1"/>
        <pt x="215" y="270" on="1"/>
        <pt x="177" y="0" on="1"/>
      </contour>
      <contour>
        <pt x="232" y="387" on="1"/>
        <pt x="340" y="387" on="1"/>
        <pt x="400" y="387" on="0"/>
        <pt x="451" y="431" on="0"/>
        <pt x="460" y="491" on="1"/>
        <pt x="468" y="543" on="0"/>
        <pt x="432" y="582" on="0"/>
        <pt x="377" y="582" on="1"/>
        <pt x="259" y="581" on="1"/>
      </contour>
    </TTGlyph>
    <TTGlyph name="Racute" xMin="28" yMin="0" xMax="612" yMax="937">
      <contour>
        <pt x="336" y="723" on="1"/>
        <pt x="299" y="786" on="1"/>
        <pt x="517" y="937" on="1"/>
        <pt x="573" y="829" on="1"/>
      </contour>
      <contour>
        <pt x="28" y="0" on="1"/>
        <pt x="125" y="690" on="1"/>
        <pt x="217" y="699" on="0"/>
        <pt x="380" y="699" on="1"/>
        <pt x="509" y="699" on="0"/>
        <pt x="628" y="604" on="0"/>
        <pt x="612" y="489" on="1"/>
        <pt x="602" y="416" on="0"/>
        <pt x="531" y="333" on="0"/>
        <pt x="457" y="324" on="1"/>
        <pt x="456" y="318" on="1"/>
        <pt x="525" y="302" on="0"/>
        <pt x="539" y="212" on="1"/>
        <pt x="575" y="0" on="1"/>
        <pt x="419" y="0" on="1"/>
        <pt x="387" y="214" on="1"/>
        <pt x="383" y="246" on="0"/>
        <pt x="357" y="269" on="0"/>
        <pt x="329" y="269" on="1"/>
        <pt x="215" y="270" on="1"/>
        <pt x="177" y="0" on="1"/>
      </contour>
      <contour>
        <pt x="232" y="387" on="1"/>
        <pt x="340" y="387" on="1"/>
        <pt x="400" y="387" on="0"/>
        <pt x="451" y="431" on="0"/>
        <pt x="460" y="491" on="1"/>
        <pt x="468" y="543" on="0"/>
        <pt x="432" y="582" on="0"/>
        <pt x="377" y="582" on="1"/>
        <pt x="259" y="581" on="1"/>
      </contour>
    </TTGlyph>
    <TTGlyph name="Rcaron" xMin="28" yMin="0" xMax="612" yMax="929">
      <contour>
        <pt x="339" y="739" on="1"/>
        <pt x="204" y="880" on="1"/>
        <pt x="253" y="929" on="1"/>
        <pt x="379" y="837" on="1"/>
        <pt x="387" y="837" on="1"/>
        <pt x="543" y="928" on="1"/>
        <pt x="578" y="870" on="1"/>
        <pt x="418" y="739" on="1"/>
      </contour>
      <contour>
        <pt x="28" y="0" on="1"/>
        <pt x="125" y="690" on="1"/>
        <pt x="217" y="699" on="0"/>
        <pt x="380" y="699" on="1"/>
        <pt x="509" y="699" on="0"/>
        <pt x="628" y="604" on="0"/>
        <pt x="612" y="489" on="1"/>
        <pt x="602" y="416" on="0"/>
        <pt x="531" y="333" on="0"/>
        <pt x="457" y="324" on="1"/>
        <pt x="456" y="318" on="1"/>
        <pt x="525" y="302" on="0"/>
        <pt x="539" y="212" on="1"/>
        <pt x="575" y="0" on="1"/>
        <pt x="419" y="0" on="1"/>
        <pt x="387" y="214" on="1"/>
        <pt x="383" y="246" on="0"/>
        <pt x="357" y="269" on="0"/>
        <pt x="329" y="269" on="1"/>
        <pt x="215" y="270" on="1"/>
        <pt x="177" y="0" on="1"/>
      </contour>
      <contour>
        <pt x="232" y="387" on="1"/>
        <pt x="340" y="387" on="1"/>
        <pt x="400" y="387" on="0"/>
        <pt x="451" y="431" on="0"/>
        <pt x="460" y="491" on="1"/>
        <pt x="468" y="543" on="0"/>
        <pt x="432" y="582" on="0"/>
        <pt x="377" y="582" on="1"/>
        <pt x="259" y="581" on="1"/>
      </contour>
    </TTGlyph>
    <TTGlyph name="Rcommaaccent" xMin="28" yMin="-294" xMax="612" yMax="699">
      <contour>
        <pt x="28" y="0" on="1"/>
        <pt x="125" y="690" on="1"/>
        <pt x="217" y="699" on="0"/>
        <pt x="380" y="699" on="1"/>
        <pt x="509" y="699" on="0"/>
        <pt x="628" y="604" on="0"/>
        <pt x="612" y="489" on="1"/>
        <pt x="602" y="416" on="0"/>
        <pt x="531" y="333" on="0"/>
        <pt x="457" y="324" on="1"/>
        <pt x="456" y="318" on="1"/>
        <pt x="525" y="302" on="0"/>
        <pt x="539" y="212" on="1"/>
        <pt x="575" y="0" on="1"/>
        <pt x="419" y="0" on="1"/>
        <pt x="387" y="214" on="1"/>
        <pt x="383" y="246" on="0"/>
        <pt x="357" y="269" on="0"/>
        <pt x="329" y="269" on="1"/>
        <pt x="215" y="270" on="1"/>
        <pt x="177" y="0" on="1"/>
      </contour>
      <contour>
        <pt x="232" y="387" on="1"/>
        <pt x="340" y="387" on="1"/>
        <pt x="400" y="387" on="0"/>
        <pt x="451" y="431" on="0"/>
        <pt x="460" y="491" on="1"/>
        <pt x="468" y="543" on="0"/>
        <pt x="432" y="582" on="0"/>
        <pt x="377" y="582" on="1"/>
        <pt x="259" y="581" on="1"/>
      </contour>
      <contour>
        <pt x="295" y="-52" on="1"/>
        <pt x="325" y="-52" on="1"/>
        <pt x="376" y="-52" on="0"/>
        <pt x="367" y="-96" on="1"/>
        <pt x="360" y="-148" on="1"/>
        <pt x="347" y="-226" on="0"/>
        <pt x="293" y="-294" on="1"/>
        <pt x="234" y="-275" on="1"/>
        <pt x="256" y="-222" on="0"/>
        <pt x="269" y="-172" on="1"/>
        <pt x="248" y="-173" on="0"/>
        <pt x="230" y="-154" on="0"/>
        <pt x="232" y="-135" on="1"/>
        <pt x="239" y="-93" on="1"/>
        <pt x="243" y="-69" on="0"/>
        <pt x="268" y="-52" on="0"/>
      </contour>
    </TTGlyph>
    <TTGlyph name="S" xMin="15" yMin="-13" xMax="567" yMax="703">
      <contour>
        <pt x="323" y="262" on="1"/>
        <pt x="192" y="315" on="1"/>
        <pt x="117" y="346" on="0"/>
        <pt x="65" y="444" on="0"/>
        <pt x="74" y="518" on="1"/>
        <pt x="89" y="628" on="0"/>
        <pt x="212" y="703" on="0"/>
        <pt x="342" y="703" on="1"/>
        <pt x="471" y="703" on="0"/>
        <pt x="567" y="675" on="1"/>
        <pt x="552" y="572" on="1"/>
        <pt x="462" y="575" on="0"/>
        <pt x="338" y="575" on="1"/>
        <pt x="277" y="576" on="0"/>
        <pt x="233" y="555" on="0"/>
        <pt x="226" y="509" on="1"/>
        <pt x="221" y="475" on="0"/>
        <pt x="242" y="448" on="0"/>
        <pt x="281" y="433" on="1"/>
        <pt x="405" y="385" on="1"/>
        <pt x="484" y="354" on="0"/>
        <pt x="534" y="261" on="0"/>
        <pt x="524" y="180" on="1"/>
        <pt x="509" y="66" on="0"/>
        <pt x="392" y="-13" on="0"/>
        <pt x="252" y="-13" on="1"/>
        <pt x="136" y="-13" on="0"/>
        <pt x="15" y="14" on="1"/>
        <pt x="31" y="123" on="1"/>
        <pt x="243" y="118" on="0"/>
        <pt x="246" y="118" on="1"/>
        <pt x="316" y="118" on="0"/>
        <pt x="366" y="145" on="0"/>
        <pt x="373" y="189" on="1"/>
        <pt x="377" y="223" on="0"/>
        <pt x="357" y="249" on="0"/>
      </contour>
    </TTGlyph>
    <TTGlyph name="Sacute" xMin="15" yMin="-13" xMax="567" yMax="937">
      <contour>
        <pt x="548" y="829" on="1"/>
        <pt x="310" y="723" on="1"/>
        <pt x="273" y="786" on="1"/>
        <pt x="491" y="937" on="1"/>
      </contour>
      <contour>
        <pt x="323" y="262" on="1"/>
        <pt x="192" y="315" on="1"/>
        <pt x="117" y="346" on="0"/>
        <pt x="65" y="444" on="0"/>
        <pt x="74" y="518" on="1"/>
        <pt x="89" y="628" on="0"/>
        <pt x="212" y="703" on="0"/>
        <pt x="342" y="703" on="1"/>
        <pt x="471" y="703" on="0"/>
        <pt x="567" y="675" on="1"/>
        <pt x="552" y="572" on="1"/>
        <pt x="462" y="575" on="0"/>
        <pt x="338" y="575" on="1"/>
        <pt x="277" y="576" on="0"/>
        <pt x="233" y="555" on="0"/>
        <pt x="226" y="509" on="1"/>
        <pt x="221" y="475" on="0"/>
        <pt x="242" y="448" on="0"/>
        <pt x="281" y="433" on="1"/>
        <pt x="405" y="385" on="1"/>
        <pt x="484" y="354" on="0"/>
        <pt x="534" y="261" on="0"/>
        <pt x="524" y="180" on="1"/>
        <pt x="509" y="66" on="0"/>
        <pt x="392" y="-13" on="0"/>
        <pt x="252" y="-13" on="1"/>
        <pt x="136" y="-13" on="0"/>
        <pt x="15" y="14" on="1"/>
        <pt x="31" y="123" on="1"/>
        <pt x="243" y="118" on="0"/>
        <pt x="246" y="118" on="1"/>
        <pt x="316" y="118" on="0"/>
        <pt x="366" y="145" on="0"/>
        <pt x="373" y="189" on="1"/>
        <pt x="377" y="223" on="0"/>
        <pt x="357" y="249" on="0"/>
      </contour>
    </TTGlyph>
    <TTGlyph name="Scaron" xMin="15" yMin="-13" xMax="567" yMax="929">
      <contour>
        <pt x="552" y="870" on="1"/>
        <pt x="392" y="739" on="1"/>
        <pt x="313" y="739" on="1"/>
        <pt x="178" y="880" on="1"/>
        <pt x="227" y="929" on="1"/>
        <pt x="353" y="837" on="1"/>
        <pt x="361" y="837" on="1"/>
        <pt x="517" y="928" on="1"/>
      </contour>
      <contour>
        <pt x="323" y="262" on="1"/>
        <pt x="192" y="315" on="1"/>
        <pt x="117" y="346" on="0"/>
        <pt x="65" y="444" on="0"/>
        <pt x="74" y="518" on="1"/>
        <pt x="89" y="628" on="0"/>
        <pt x="212" y="703" on="0"/>
        <pt x="342" y="703" on="1"/>
        <pt x="471" y="703" on="0"/>
        <pt x="567" y="675" on="1"/>
        <pt x="552" y="572" on="1"/>
        <pt x="462" y="575" on="0"/>
        <pt x="338" y="575" on="1"/>
        <pt x="277" y="576" on="0"/>
        <pt x="233" y="555" on="0"/>
        <pt x="226" y="509" on="1"/>
        <pt x="221" y="475" on="0"/>
        <pt x="242" y="448" on="0"/>
        <pt x="281" y="433" on="1"/>
        <pt x="405" y="385" on="1"/>
        <pt x="484" y="354" on="0"/>
        <pt x="534" y="261" on="0"/>
        <pt x="524" y="180" on="1"/>
        <pt x="509" y="66" on="0"/>
        <pt x="392" y="-13" on="0"/>
        <pt x="252" y="-13" on="1"/>
        <pt x="136" y="-13" on="0"/>
        <pt x="15" y="14" on="1"/>
        <pt x="31" y="123" on="1"/>
        <pt x="243" y="118" on="0"/>
        <pt x="246" y="118" on="1"/>
        <pt x="316" y="118" on="0"/>
        <pt x="366" y="145" on="0"/>
        <pt x="373" y="189" on="1"/>
        <pt x="377" y="223" on="0"/>
        <pt x="357" y="249" on="0"/>
      </contour>
    </TTGlyph>
    <TTGlyph name="Scedilla" xMin="15" yMin="-258" xMax="567" yMax="703">
      <contour>
        <pt x="323" y="262" on="1"/>
        <pt x="192" y="315" on="1"/>
        <pt x="117" y="346" on="0"/>
        <pt x="65" y="444" on="0"/>
        <pt x="74" y="518" on="1"/>
        <pt x="89" y="628" on="0"/>
        <pt x="212" y="703" on="0"/>
        <pt x="342" y="703" on="1"/>
        <pt x="471" y="703" on="0"/>
        <pt x="567" y="675" on="1"/>
        <pt x="552" y="572" on="1"/>
        <pt x="462" y="575" on="0"/>
        <pt x="338" y="575" on="1"/>
        <pt x="277" y="576" on="0"/>
        <pt x="233" y="555" on="0"/>
        <pt x="226" y="509" on="1"/>
        <pt x="221" y="475" on="0"/>
        <pt x="242" y="448" on="0"/>
        <pt x="281" y="433" on="1"/>
        <pt x="405" y="385" on="1"/>
        <pt x="484" y="354" on="0"/>
        <pt x="534" y="261" on="0"/>
        <pt x="524" y="180" on="1"/>
        <pt x="509" y="66" on="0"/>
        <pt x="392" y="-13" on="0"/>
        <pt x="252" y="-13" on="1"/>
        <pt x="136" y="-13" on="0"/>
        <pt x="15" y="14" on="1"/>
        <pt x="31" y="123" on="1"/>
        <pt x="243" y="118" on="0"/>
        <pt x="246" y="118" on="1"/>
        <pt x="316" y="118" on="0"/>
        <pt x="366" y="145" on="0"/>
        <pt x="373" y="189" on="1"/>
        <pt x="377" y="223" on="0"/>
        <pt x="357" y="249" on="0"/>
      </contour>
      <contour>
        <pt x="169" y="-117" on="1"/>
        <pt x="184" y="-58" on="1"/>
        <pt x="263" y="-50" on="0"/>
        <pt x="331" y="-77" on="0"/>
        <pt x="322" y="-129" on="1"/>
        <pt x="310" y="-201" on="0"/>
        <pt x="191" y="-269" on="0"/>
        <pt x="108" y="-258" on="1"/>
        <pt x="128" y="-194" on="1"/>
        <pt x="165" y="-194" on="0"/>
        <pt x="220" y="-164" on="0"/>
        <pt x="226" y="-135" on="1"/>
        <pt x="228" y="-124" on="0"/>
        <pt x="209" y="-117" on="0"/>
      </contour>
    </TTGlyph>
    <TTGlyph name="Scommaaccent" xMin="15" yMin="-294" xMax="567" yMax="703">
      <contour>
        <pt x="323" y="262" on="1"/>
        <pt x="192" y="315" on="1"/>
        <pt x="117" y="346" on="0"/>
        <pt x="65" y="444" on="0"/>
        <pt x="74" y="518" on="1"/>
        <pt x="89" y="628" on="0"/>
        <pt x="212" y="703" on="0"/>
        <pt x="342" y="703" on="1"/>
        <pt x="471" y="703" on="0"/>
        <pt x="567" y="675" on="1"/>
        <pt x="552" y="572" on="1"/>
        <pt x="462" y="575" on="0"/>
        <pt x="338" y="575" on="1"/>
        <pt x="277" y="576" on="0"/>
        <pt x="233" y="555" on="0"/>
        <pt x="226" y="509" on="1"/>
        <pt x="221" y="475" on="0"/>
        <pt x="242" y="448" on="0"/>
        <pt x="281" y="433" on="1"/>
        <pt x="405" y="385" on="1"/>
        <pt x="484" y="354" on="0"/>
        <pt x="534" y="261" on="0"/>
        <pt x="524" y="180" on="1"/>
        <pt x="509" y="66" on="0"/>
        <pt x="392" y="-13" on="0"/>
        <pt x="252" y="-13" on="1"/>
        <pt x="136" y="-13" on="0"/>
        <pt x="15" y="14" on="1"/>
        <pt x="31" y="123" on="1"/>
        <pt x="243" y="118" on="0"/>
        <pt x="246" y="118" on="1"/>
        <pt x="316" y="118" on="0"/>
        <pt x="366" y="145" on="0"/>
        <pt x="373" y="189" on="1"/>
        <pt x="377" y="223" on="0"/>
        <pt x="357" y="249" on="0"/>
      </contour>
      <contour>
        <pt x="246" y="-52" on="1"/>
        <pt x="276" y="-52" on="1"/>
        <pt x="302" y="-52" on="0"/>
        <pt x="323" y="-73" on="0"/>
        <pt x="319" y="-96" on="1"/>
        <pt x="311" y="-148" on="1"/>
        <pt x="300" y="-224" on="0"/>
        <pt x="244" y="-294" on="1"/>
        <pt x="185" y="-275" on="1"/>
        <pt x="210" y="-214" on="0"/>
        <pt x="220" y="-172" on="1"/>
        <pt x="199" y="-173" on="0"/>
        <pt x="181" y="-154" on="0"/>
        <pt x="183" y="-135" on="1"/>
        <pt x="190" y="-93" on="1"/>
        <pt x="194" y="-69" on="0"/>
        <pt x="219" y="-52" on="0"/>
      </contour>
    </TTGlyph>
    <TTGlyph name="T" xMin="54" yMin="0" xMax="634" yMax="690">
      <contour>
        <pt x="617" y="566" on="1"/>
        <pt x="411" y="566" on="1"/>
        <pt x="332" y="0" on="1"/>
        <pt x="179" y="0" on="1"/>
        <pt x="259" y="566" on="1"/>
        <pt x="54" y="566" on="1"/>
        <pt x="71" y="690" on="1"/>
        <pt x="634" y="690" on="1"/>
      </contour>
    </TTGlyph>
    <TTGlyph name="Tbar" xMin="54" yMin="0" xMax="634" yMax="690">
      <contour>
        <pt x="411" y="566" on="1"/>
        <pt x="389" y="409" on="1"/>
        <pt x="523" y="409" on="1"/>
        <pt x="513" y="336" on="1"/>
        <pt x="379" y="336" on="1"/>
        <pt x="332" y="0" on="1"/>
        <pt x="179" y="0" on="1"/>
        <pt x="226" y="336" on="1"/>
        <pt x="104" y="336" on="1"/>
        <pt x="114" y="409" on="1"/>
        <pt x="237" y="409" on="1"/>
        <pt x="259" y="566" on="1"/>
        <pt x="54" y="566" on="1"/>
        <pt x="71" y="690" on="1"/>
        <pt x="634" y="690" on="1"/>
        <pt x="617" y="566" on="1"/>
      </contour>
    </TTGlyph>
    <TTGlyph name="Tcaron" xMin="54" yMin="0" xMax="634" yMax="929">
      <contour>
        <pt x="321" y="739" on="1"/>
        <pt x="187" y="880" on="1"/>
        <pt x="236" y="929" on="1"/>
        <pt x="361" y="837" on="1"/>
        <pt x="369" y="837" on="1"/>
        <pt x="526" y="928" on="1"/>
        <pt x="561" y="870" on="1"/>
        <pt x="401" y="739" on="1"/>
      </contour>
      <contour>
        <pt x="617" y="566" on="1"/>
        <pt x="411" y="566" on="1"/>
        <pt x="332" y="0" on="1"/>
        <pt x="179" y="0" on="1"/>
        <pt x="259" y="566" on="1"/>
        <pt x="54" y="566" on="1"/>
        <pt x="71" y="690" on="1"/>
        <pt x="634" y="690" on="1"/>
      </contour>
    </TTGlyph>
    <TTGlyph name="Tcedilla" xMin="54" yMin="-241" xMax="634" yMax="690">
      <contour>
        <pt x="617" y="566" on="1"/>
        <pt x="411" y="566" on="1"/>
        <pt x="332" y="0" on="1"/>
        <pt x="179" y="0" on="1"/>
        <pt x="259" y="566" on="1"/>
        <pt x="54" y="566" on="1"/>
        <pt x="71" y="690" on="1"/>
        <pt x="634" y="690" on="1"/>
      </contour>
      <contour>
        <pt x="171" y="-100" on="1"/>
        <pt x="186" y="-42" on="1"/>
        <pt x="264" y="-33" on="0"/>
        <pt x="333" y="-61" on="0"/>
        <pt x="324" y="-112" on="1"/>
        <pt x="312" y="-184" on="0"/>
        <pt x="193" y="-253" on="0"/>
        <pt x="110" y="-241" on="1"/>
        <pt x="130" y="-177" on="1"/>
        <pt x="167" y="-178" on="0"/>
        <pt x="222" y="-148" on="0"/>
        <pt x="228" y="-119" on="1"/>
        <pt x="230" y="-107" on="0"/>
        <pt x="211" y="-100" on="0"/>
      </contour>
    </TTGlyph>
    <TTGlyph name="Thorn" xMin="28" yMin="0" xMax="586" yMax="690">
      <contour>
        <pt x="278" y="690" on="1"/>
        <pt x="262" y="574" on="1"/>
        <pt x="361" y="574" on="1"/>
        <pt x="497" y="574" on="0"/>
        <pt x="604" y="472" on="0"/>
        <pt x="586" y="340" on="1"/>
        <pt x="568" y="211" on="0"/>
        <pt x="457" y="119" on="0"/>
        <pt x="333" y="119" on="1"/>
        <pt x="273" y="119" on="0"/>
        <pt x="199" y="128" on="1"/>
        <pt x="181" y="0" on="1"/>
        <pt x="28" y="0" on="1"/>
        <pt x="125" y="690" on="1"/>
      </contour>
      <contour>
        <pt x="214" y="237" on="1"/>
        <pt x="317" y="237" on="1"/>
        <pt x="376" y="237" on="0"/>
        <pt x="424" y="282" on="0"/>
        <pt x="434" y="352" on="1"/>
        <pt x="443" y="415" on="0"/>
        <pt x="412" y="457" on="0"/>
        <pt x="357" y="457" on="1"/>
        <pt x="245" y="456" on="1"/>
      </contour>
    </TTGlyph>
    <TTGlyph name="U" xMin="61" yMin="-13" xMax="670" yMax="690">
      <contour>
        <pt x="670" y="690" on="1"/>
        <pt x="610" y="272" on="1"/>
        <pt x="587" y="114" on="0"/>
        <pt x="453" y="-13" on="0"/>
        <pt x="309" y="-13" on="1"/>
        <pt x="162" y="-13" on="0"/>
        <pt x="40" y="123" on="0"/>
        <pt x="61" y="278" on="1"/>
        <pt x="119" y="690" on="1"/>
        <pt x="272" y="690" on="1"/>
        <pt x="213" y="272" on="1"/>
        <pt x="199" y="178" on="0"/>
        <pt x="239" y="110" on="0"/>
        <pt x="309" y="110" on="1"/>
        <pt x="381" y="110" on="0"/>
        <pt x="445" y="182" on="0"/>
        <pt x="459" y="278" on="1"/>
        <pt x="517" y="690" on="1"/>
      </contour>
    </TTGlyph>
    <TTGlyph name="Uacute" xMin="61" yMin="-13" xMax="670" yMax="937">
      <contour>
        <pt x="599" y="829" on="1"/>
        <pt x="362" y="723" on="1"/>
        <pt x="324" y="786" on="1"/>
        <pt x="543" y="937" on="1"/>
      </contour>
      <contour>
        <pt x="670" y="690" on="1"/>
        <pt x="610" y="272" on="1"/>
        <pt x="587" y="114" on="0"/>
        <pt x="453" y="-13" on="0"/>
        <pt x="309" y="-13" on="1"/>
        <pt x="162" y="-13" on="0"/>
        <pt x="40" y="123" on="0"/>
        <pt x="61" y="278" on="1"/>
        <pt x="119" y="690" on="1"/>
        <pt x="272" y="690" on="1"/>
        <pt x="213" y="272" on="1"/>
        <pt x="199" y="178" on="0"/>
        <pt x="239" y="110" on="0"/>
        <pt x="309" y="110" on="1"/>
        <pt x="381" y="110" on="0"/>
        <pt x="445" y="182" on="0"/>
        <pt x="459" y="278" on="1"/>
        <pt x="517" y="690" on="1"/>
      </contour>
    </TTGlyph>
    <TTGlyph name="Ucircumflex" xMin="61" yMin="-13" xMax="670" yMax="912">
      <contour>
        <pt x="596" y="773" on="1"/>
        <pt x="550" y="721" on="1"/>
        <pt x="419" y="819" on="1"/>
        <pt x="411" y="819" on="1"/>
        <pt x="256" y="723" on="1"/>
        <pt x="219" y="779" on="1"/>
        <pt x="367" y="912" on="1"/>
        <pt x="468" y="912" on="1"/>
      </contour>
      <contour>
        <pt x="670" y="690" on="1"/>
        <pt x="610" y="272" on="1"/>
        <pt x="587" y="114" on="0"/>
        <pt x="453" y="-13" on="0"/>
        <pt x="309" y="-13" on="1"/>
        <pt x="162" y="-13" on="0"/>
        <pt x="40" y="123" on="0"/>
        <pt x="61" y="278" on="1"/>
        <pt x="119" y="690" on="1"/>
        <pt x="272" y="690" on="1"/>
        <pt x="213" y="272" on="1"/>
        <pt x="199" y="178" on="0"/>
        <pt x="239" y="110" on="0"/>
        <pt x="309" y="110" on="1"/>
        <pt x="381" y="110" on="0"/>
        <pt x="445" y="182" on="0"/>
        <pt x="459" y="278" on="1"/>
        <pt x="517" y="690" on="1"/>
      </contour>
    </TTGlyph>
    <TTGlyph name="Udieresis" xMin="61" yMin="-13" xMax="670" yMax="886">
      <contour>
        <pt x="483" y="886" on="1"/>
        <pt x="534" y="886" on="1"/>
        <pt x="566" y="886" on="0"/>
        <pt x="562" y="856" on="1"/>
        <pt x="552" y="793" on="1"/>
        <pt x="549" y="763" on="0"/>
        <pt x="520" y="763" on="1"/>
        <pt x="466" y="763" on="1"/>
        <pt x="435" y="763" on="0"/>
        <pt x="438" y="792" on="1"/>
        <pt x="448" y="855" on="1"/>
        <pt x="454" y="886" on="0"/>
      </contour>
      <contour>
        <pt x="309" y="886" on="1"/>
        <pt x="359" y="886" on="1"/>
        <pt x="377" y="886" on="0"/>
        <pt x="389" y="872" on="0"/>
        <pt x="387" y="856" on="1"/>
        <pt x="377" y="793" on="1"/>
        <pt x="374" y="763" on="0"/>
        <pt x="345" y="763" on="1"/>
        <pt x="291" y="763" on="1"/>
        <pt x="260" y="763" on="0"/>
        <pt x="263" y="792" on="1"/>
        <pt x="273" y="855" on="1"/>
        <pt x="277" y="886" on="0"/>
      </contour>
      <contour>
        <pt x="670" y="690" on="1"/>
        <pt x="610" y="272" on="1"/>
        <pt x="587" y="114" on="0"/>
        <pt x="453" y="-13" on="0"/>
        <pt x="309" y="-13" on="1"/>
        <pt x="162" y="-13" on="0"/>
        <pt x="40" y="123" on="0"/>
        <pt x="61" y="278" on="1"/>
        <pt x="119" y="690" on="1"/>
        <pt x="272" y="690" on="1"/>
        <pt x="213" y="272" on="1"/>
        <pt x="199" y="178" on="0"/>
        <pt x="239" y="110" on="0"/>
        <pt x="309" y="110" on="1"/>
        <pt x="381" y="110" on="0"/>
        <pt x="445" y="182" on="0"/>
        <pt x="459" y="278" on="1"/>
        <pt x="517" y="690" on="1"/>
      </contour>
    </TTGlyph>
    <TTGlyph name="Ugrave" xMin="61" yMin="-13" xMax="670" yMax="934">
      <contour>
        <pt x="479" y="786" on="1"/>
        <pt x="430" y="723" on="1"/>
        <pt x="209" y="837" on="1"/>
        <pt x="275" y="934" on="1"/>
      </contour>
      <contour>
        <pt x="670" y="690" on="1"/>
        <pt x="610" y="272" on="1"/>
        <pt x="587" y="114" on="0"/>
        <pt x="453" y="-13" on="0"/>
        <pt x="309" y="-13" on="1"/>
        <pt x="162" y="-13" on="0"/>
        <pt x="40" y="123" on="0"/>
        <pt x="61" y="278" on="1"/>
        <pt x="119" y="690" on="1"/>
        <pt x="272" y="690" on="1"/>
        <pt x="213" y="272" on="1"/>
        <pt x="199" y="178" on="0"/>
        <pt x="239" y="110" on="0"/>
        <pt x="309" y="110" on="1"/>
        <pt x="381" y="110" on="0"/>
        <pt x="445" y="182" on="0"/>
        <pt x="459" y="278" on="1"/>
        <pt x="517" y="690" on="1"/>
      </contour>
    </TTGlyph>
    <TTGlyph name="Uhungarumlaut" xMin="61" yMin="-13" xMax="670" yMax="942">
      <contour>
        <pt x="467" y="882" on="1"/>
        <pt x="297" y="720" on="1"/>
        <pt x="237" y="762" on="1"/>
        <pt x="380" y="942" on="1"/>
      </contour>
      <contour>
        <pt x="656" y="882" on="1"/>
        <pt x="486" y="720" on="1"/>
        <pt x="427" y="761" on="1"/>
        <pt x="569" y="942" on="1"/>
      </contour>
      <contour>
        <pt x="670" y="690" on="1"/>
        <pt x="610" y="272" on="1"/>
        <pt x="587" y="114" on="0"/>
        <pt x="453" y="-13" on="0"/>
        <pt x="309" y="-13" on="1"/>
        <pt x="162" y="-13" on="0"/>
        <pt x="40" y="123" on="0"/>
        <pt x="61" y="278" on="1"/>
        <pt x="119" y="690" on="1"/>
        <pt x="272" y="690" on="1"/>
        <pt x="213" y="272" on="1"/>
        <pt x="199" y="178" on="0"/>
        <pt x="239" y="110" on="0"/>
        <pt x="309" y="110" on="1"/>
        <pt x="381" y="110" on="0"/>
        <pt x="445" y="182" on="0"/>
        <pt x="459" y="278" on="1"/>
        <pt x="517" y="690" on="1"/>
      </contour>
    </TTGlyph>
    <TTGlyph name="Umacron" xMin="61" yMin="-13" xMax="670" yMax="872">
      <contour>
        <pt x="555" y="776" on="1"/>
        <pt x="255" y="776" on="1"/>
        <pt x="269" y="872" on="1"/>
        <pt x="568" y="872" on="1"/>
      </contour>
      <contour>
        <pt x="670" y="690" on="1"/>
        <pt x="610" y="272" on="1"/>
        <pt x="587" y="114" on="0"/>
        <pt x="453" y="-13" on="0"/>
        <pt x="309" y="-13" on="1"/>
        <pt x="162" y="-13" on="0"/>
        <pt x="40" y="123" on="0"/>
        <pt x="61" y="278" on="1"/>
        <pt x="119" y="690" on="1"/>
        <pt x="272" y="690" on="1"/>
        <pt x="213" y="272" on="1"/>
        <pt x="199" y="178" on="0"/>
        <pt x="239" y="110" on="0"/>
        <pt x="309" y="110" on="1"/>
        <pt x="381" y="110" on="0"/>
        <pt x="445" y="182" on="0"/>
        <pt x="459" y="278" on="1"/>
        <pt x="517" y="690" on="1"/>
      </contour>
    </TTGlyph>
    <TTGlyph name="Uogonek" xMin="61" yMin="-221" xMax="670" yMax="690">
      <contour>
        <pt x="670" y="690" on="1"/>
        <pt x="610" y="272" on="1"/>
        <pt x="589" y="122" on="0"/>
        <pt x="465" y="-8" on="0"/>
        <pt x="336" y="-13" on="1"/>
        <pt x="299" y="-54" on="0"/>
        <pt x="267" y="-113" on="1"/>
        <pt x="254" y="-139" on="0"/>
        <pt x="280" y="-154" on="0"/>
        <pt x="317" y="-144" on="1"/>
        <pt x="331" y="-201" on="1"/>
        <pt x="287" y="-217" on="0"/>
        <pt x="216" y="-224" on="0"/>
        <pt x="173" y="-207" on="0"/>
        <pt x="150" y="-176" on="0"/>
        <pt x="151" y="-135" on="0"/>
        <pt x="162" y="-113" on="1"/>
        <pt x="188" y="-62" on="0"/>
        <pt x="264" y="-12" on="1"/>
        <pt x="142" y="-2" on="0"/>
        <pt x="42" y="136" on="0"/>
        <pt x="61" y="278" on="1"/>
        <pt x="119" y="690" on="1"/>
        <pt x="272" y="690" on="1"/>
        <pt x="213" y="272" on="1"/>
        <pt x="199" y="178" on="0"/>
        <pt x="239" y="110" on="0"/>
        <pt x="309" y="110" on="1"/>
        <pt x="381" y="110" on="0"/>
        <pt x="445" y="182" on="0"/>
        <pt x="459" y="278" on="1"/>
        <pt x="517" y="690" on="1"/>
      </contour>
    </TTGlyph>
    <TTGlyph name="Uring" xMin="61" yMin="-13" xMax="670" yMax="941">
      <contour>
        <pt x="419" y="941" on="1"/>
        <pt x="472" y="941" on="0"/>
        <pt x="538" y="873" on="0"/>
        <pt x="531" y="822" on="1"/>
        <pt x="525" y="776" on="0"/>
        <pt x="460" y="715" on="0"/>
        <pt x="409" y="715" on="1"/>
        <pt x="356" y="715" on="0"/>
        <pt x="291" y="783" on="0"/>
        <pt x="297" y="833" on="1"/>
        <pt x="302" y="879" on="0"/>
        <pt x="368" y="941" on="0"/>
      </contour>
      <contour>
        <pt x="418" y="880" on="1"/>
        <pt x="396" y="880" on="0"/>
        <pt x="367" y="851" on="0"/>
        <pt x="365" y="829" on="1"/>
        <pt x="362" y="804" on="0"/>
        <pt x="388" y="776" on="0"/>
        <pt x="410" y="776" on="1"/>
        <pt x="433" y="776" on="0"/>
        <pt x="462" y="806" on="0"/>
        <pt x="464" y="830" on="1"/>
        <pt x="466" y="852" on="0"/>
        <pt x="441" y="880" on="0"/>
      </contour>
      <contour>
        <pt x="670" y="690" on="1"/>
        <pt x="610" y="272" on="1"/>
        <pt x="587" y="114" on="0"/>
        <pt x="453" y="-13" on="0"/>
        <pt x="309" y="-13" on="1"/>
        <pt x="162" y="-13" on="0"/>
        <pt x="40" y="123" on="0"/>
        <pt x="61" y="278" on="1"/>
        <pt x="119" y="690" on="1"/>
        <pt x="272" y="690" on="1"/>
        <pt x="213" y="272" on="1"/>
        <pt x="199" y="178" on="0"/>
        <pt x="239" y="110" on="0"/>
        <pt x="309" y="110" on="1"/>
        <pt x="381" y="110" on="0"/>
        <pt x="445" y="182" on="0"/>
        <pt x="459" y="278" on="1"/>
        <pt x="517" y="690" on="1"/>
      </contour>
    </TTGlyph>
    <TTGlyph name="V" xMin="61" yMin="0" xMax="682" yMax="690">
      <contour>
        <pt x="682" y="690" on="1"/>
        <pt x="401" y="39" on="1"/>
        <pt x="385" y="0" on="0"/>
        <pt x="346" y="0" on="1"/>
        <pt x="208" y="0" on="1"/>
        <pt x="189" y="0" on="0"/>
        <pt x="161" y="26" on="0"/>
        <pt x="159" y="44" on="1"/>
        <pt x="61" y="690" on="1"/>
        <pt x="215" y="690" on="1"/>
        <pt x="269" y="194" on="1"/>
        <pt x="273" y="154" on="0"/>
        <pt x="275" y="113" on="1"/>
        <pt x="300" y="113" on="1"/>
        <pt x="309" y="149" on="0"/>
        <pt x="327" y="195" on="1"/>
        <pt x="521" y="690" on="1"/>
      </contour>
    </TTGlyph>
    <TTGlyph name="W" xMin="79" yMin="0" xMax="998" yMax="690">
      <contour>
        <pt x="998" y="690" on="1"/>
        <pt x="796" y="39" on="1"/>
        <pt x="784" y="0" on="0"/>
        <pt x="740" y="0" on="1"/>
        <pt x="596" y="0" on="1"/>
        <pt x="576" y="0" on="0"/>
        <pt x="546" y="27" on="0"/>
        <pt x="545" y="46" on="1"/>
        <pt x="532" y="492" on="1"/>
        <pt x="532" y="580" on="1"/>
        <pt x="513" y="580" on="1"/>
        <pt x="500" y="525" on="0"/>
        <pt x="490" y="491" on="1"/>
        <pt x="353" y="40" on="1"/>
        <pt x="341" y="0" on="0"/>
        <pt x="296" y="0" on="1"/>
        <pt x="151" y="0" on="1"/>
        <pt x="131" y="0" on="0"/>
        <pt x="100" y="26" on="0"/>
        <pt x="100" y="45" on="1"/>
        <pt x="79" y="690" on="1"/>
        <pt x="231" y="690" on="1"/>
        <pt x="231" y="208" on="1"/>
        <pt x="231" y="191" on="0"/>
        <pt x="228" y="118" on="0"/>
        <pt x="228" y="108" on="1"/>
        <pt x="248" y="108" on="1"/>
        <pt x="253" y="129" on="0"/>
        <pt x="277" y="214" on="1"/>
        <pt x="410" y="646" on="1"/>
        <pt x="423" y="690" on="0"/>
        <pt x="468" y="690" on="1"/>
        <pt x="597" y="690" on="1"/>
        <pt x="618" y="690" on="0"/>
        <pt x="645" y="661" on="0"/>
        <pt x="645" y="640" on="1"/>
        <pt x="664" y="207" on="1"/>
        <pt x="666" y="142" on="0"/>
        <pt x="665" y="108" on="1"/>
        <pt x="686" y="108" on="1"/>
        <pt x="701" y="176" on="0"/>
        <pt x="711" y="212" on="1"/>
        <pt x="843" y="690" on="1"/>
      </contour>
    </TTGlyph>
    <TTGlyph name="Wacute" xMin="79" yMin="0" xMax="998" yMax="936">
      <contour>
        <pt x="741" y="829" on="1"/>
        <pt x="503" y="722" on="1"/>
        <pt x="466" y="786" on="1"/>
        <pt x="684" y="936" on="1"/>
      </contour>
      <contour>
        <pt x="998" y="690" on="1"/>
        <pt x="796" y="39" on="1"/>
        <pt x="784" y="0" on="0"/>
        <pt x="740" y="0" on="1"/>
        <pt x="596" y="0" on="1"/>
        <pt x="576" y="0" on="0"/>
        <pt x="546" y="27" on="0"/>
        <pt x="545" y="46" on="1"/>
        <pt x="532" y="492" on="1"/>
        <pt x="532" y="580" on="1"/>
        <pt x="513" y="580" on="1"/>
        <pt x="500" y="525" on="0"/>
        <pt x="490" y="491" on="1"/>
        <pt x="353" y="40" on="1"/>
        <pt x="341" y="0" on="0"/>
        <pt x="296" y="0" on="1"/>
        <pt x="151" y="0" on="1"/>
        <pt x="131" y="0" on="0"/>
        <pt x="100" y="26" on="0"/>
        <pt x="100" y="45" on="1"/>
        <pt x="79" y="690" on="1"/>
        <pt x="231" y="690" on="1"/>
        <pt x="231" y="208" on="1"/>
        <pt x="231" y="191" on="0"/>
        <pt x="228" y="118" on="0"/>
        <pt x="228" y="108" on="1"/>
        <pt x="248" y="108" on="1"/>
        <pt x="253" y="129" on="0"/>
        <pt x="277" y="214" on="1"/>
        <pt x="410" y="646" on="1"/>
        <pt x="423" y="690" on="0"/>
        <pt x="468" y="690" on="1"/>
        <pt x="597" y="690" on="1"/>
        <pt x="618" y="690" on="0"/>
        <pt x="645" y="661" on="0"/>
        <pt x="645" y="640" on="1"/>
        <pt x="664" y="207" on="1"/>
        <pt x="666" y="142" on="0"/>
        <pt x="665" y="108" on="1"/>
        <pt x="686" y="108" on="1"/>
        <pt x="701" y="176" on="0"/>
        <pt x="711" y="212" on="1"/>
        <pt x="843" y="690" on="1"/>
      </contour>
    </TTGlyph>
    <TTGlyph name="Wcircumflex" xMin="79" yMin="0" xMax="998" yMax="911">
      <contour>
        <pt x="737" y="772" on="1"/>
        <pt x="692" y="720" on="1"/>
        <pt x="561" y="818" on="1"/>
        <pt x="553" y="818" on="1"/>
        <pt x="397" y="722" on="1"/>
        <pt x="360" y="778" on="1"/>
        <pt x="509" y="911" on="1"/>
        <pt x="610" y="911" on="1"/>
      </contour>
      <contour>
        <pt x="998" y="690" on="1"/>
        <pt x="796" y="39" on="1"/>
        <pt x="784" y="0" on="0"/>
        <pt x="740" y="0" on="1"/>
        <pt x="596" y="0" on="1"/>
        <pt x="576" y="0" on="0"/>
        <pt x="546" y="27" on="0"/>
        <pt x="545" y="46" on="1"/>
        <pt x="532" y="492" on="1"/>
        <pt x="532" y="580" on="1"/>
        <pt x="513" y="580" on="1"/>
        <pt x="500" y="525" on="0"/>
        <pt x="490" y="491" on="1"/>
        <pt x="353" y="40" on="1"/>
        <pt x="341" y="0" on="0"/>
        <pt x="296" y="0" on="1"/>
        <pt x="151" y="0" on="1"/>
        <pt x="131" y="0" on="0"/>
        <pt x="100" y="26" on="0"/>
        <pt x="100" y="45" on="1"/>
        <pt x="79" y="690" on="1"/>
        <pt x="231" y="690" on="1"/>
        <pt x="231" y="208" on="1"/>
        <pt x="231" y="191" on="0"/>
        <pt x="228" y="118" on="0"/>
        <pt x="228" y="108" on="1"/>
        <pt x="248" y="108" on="1"/>
        <pt x="253" y="129" on="0"/>
        <pt x="277" y="214" on="1"/>
        <pt x="410" y="646" on="1"/>
        <pt x="423" y="690" on="0"/>
        <pt x="468" y="690" on="1"/>
        <pt x="597" y="690" on="1"/>
        <pt x="618" y="690" on="0"/>
        <pt x="645" y="661" on="0"/>
        <pt x="645" y="640" on="1"/>
        <pt x="664" y="207" on="1"/>
        <pt x="666" y="142" on="0"/>
        <pt x="665" y="108" on="1"/>
        <pt x="686" y="108" on="1"/>
        <pt x="701" y="176" on="0"/>
        <pt x="711" y="212" on="1"/>
        <pt x="843" y="690" on="1"/>
      </contour>
    </TTGlyph>
    <TTGlyph name="Wdieresis" xMin="79" yMin="0" xMax="998" yMax="886">
      <contour>
        <pt x="625" y="886" on="1"/>
        <pt x="675" y="886" on="1"/>
        <pt x="708" y="886" on="0"/>
        <pt x="704" y="855" on="1"/>
        <pt x="694" y="792" on="1"/>
        <pt x="690" y="762" on="0"/>
        <pt x="661" y="762" on="1"/>
        <pt x="608" y="762" on="1"/>
        <pt x="576" y="762" on="0"/>
        <pt x="580" y="792" on="1"/>
        <pt x="590" y="855" on="1"/>
        <pt x="594" y="886" on="0"/>
      </contour>
      <contour>
        <pt x="451" y="886" on="1"/>
        <pt x="500" y="886" on="1"/>
        <pt x="533" y="886" on="0"/>
        <pt x="529" y="855" on="1"/>
        <pt x="519" y="792" on="1"/>
        <pt x="515" y="762" on="0"/>
        <pt x="486" y="762" on="1"/>
        <pt x="433" y="762" on="1"/>
        <pt x="400" y="762" on="0"/>
        <pt x="405" y="792" on="1"/>
        <pt x="415" y="854" on="1"/>
        <pt x="419" y="886" on="0"/>
      </contour>
      <contour>
        <pt x="998" y="690" on="1"/>
        <pt x="796" y="39" on="1"/>
        <pt x="784" y="0" on="0"/>
        <pt x="740" y="0" on="1"/>
        <pt x="596" y="0" on="1"/>
        <pt x="576" y="0" on="0"/>
        <pt x="546" y="27" on="0"/>
        <pt x="545" y="46" on="1"/>
        <pt x="532" y="492" on="1"/>
        <pt x="532" y="580" on="1"/>
        <pt x="513" y="580" on="1"/>
        <pt x="500" y="525" on="0"/>
        <pt x="490" y="491" on="1"/>
        <pt x="353" y="40" on="1"/>
        <pt x="341" y="0" on="0"/>
        <pt x="296" y="0" on="1"/>
        <pt x="151" y="0" on="1"/>
        <pt x="131" y="0" on="0"/>
        <pt x="100" y="26" on="0"/>
        <pt x="100" y="45" on="1"/>
        <pt x="79" y="690" on="1"/>
        <pt x="231" y="690" on="1"/>
        <pt x="231" y="208" on="1"/>
        <pt x="231" y="191" on="0"/>
        <pt x="228" y="118" on="0"/>
        <pt x="228" y="108" on="1"/>
        <pt x="248" y="108" on="1"/>
        <pt x="253" y="129" on="0"/>
        <pt x="277" y="214" on="1"/>
        <pt x="410" y="646" on="1"/>
        <pt x="423" y="690" on="0"/>
        <pt x="468" y="690" on="1"/>
        <pt x="597" y="690" on="1"/>
        <pt x="618" y="690" on="0"/>
        <pt x="645" y="661" on="0"/>
        <pt x="645" y="640" on="1"/>
        <pt x="664" y="207" on="1"/>
        <pt x="666" y="142" on="0"/>
        <pt x="665" y="108" on="1"/>
        <pt x="686" y="108" on="1"/>
        <pt x="701" y="176" on="0"/>
        <pt x="711" y="212" on="1"/>
        <pt x="843" y="690" on="1"/>
      </contour>
    </TTGlyph>
    <TTGlyph name="Wgrave" xMin="79" yMin="0" xMax="998" yMax="933">
      <contour>
        <pt x="621" y="785" on="1"/>
        <pt x="572" y="722" on="1"/>
        <pt x="351" y="836" on="1"/>
        <pt x="417" y="933" on="1"/>
      </contour>
      <contour>
        <pt x="998" y="690" on="1"/>
        <pt x="796" y="39" on="1"/>
        <pt x="784" y="0" on="0"/>
        <pt x="740" y="0" on="1"/>
        <pt x="596" y="0" on="1"/>
        <pt x="576" y="0" on="0"/>
        <pt x="546" y="27" on="0"/>
        <pt x="545" y="46" on="1"/>
        <pt x="532" y="492" on="1"/>
        <pt x="532" y="580" on="1"/>
        <pt x="513" y="580" on="1"/>
        <pt x="500" y="525" on="0"/>
        <pt x="490" y="491" on="1"/>
        <pt x="353" y="40" on="1"/>
        <pt x="341" y="0" on="0"/>
        <pt x="296" y="0" on="1"/>
        <pt x="151" y="0" on="1"/>
        <pt x="131" y="0" on="0"/>
        <pt x="100" y="26" on="0"/>
        <pt x="100" y="45" on="1"/>
        <pt x="79" y="690" on="1"/>
        <pt x="231" y="690" on="1"/>
        <pt x="231" y="208" on="1"/>
        <pt x="231" y="191" on="0"/>
        <pt x="228" y="118" on="0"/>
        <pt x="228" y="108" on="1"/>
        <pt x="248" y="108" on="1"/>
        <pt x="253" y="129" on="0"/>
        <pt x="277" y="214" on="1"/>
        <pt x="410" y="646" on="1"/>
        <pt x="423" y="690" on="0"/>
        <pt x="468" y="690" on="1"/>
        <pt x="597" y="690" on="1"/>
        <pt x="618" y="690" on="0"/>
        <pt x="645" y="661" on="0"/>
        <pt x="645" y="640" on="1"/>
        <pt x="664" y="207" on="1"/>
        <pt x="666" y="142" on="0"/>
        <pt x="665" y="108" on="1"/>
        <pt x="686" y="108" on="1"/>
        <pt x="701" y="176" on="0"/>
        <pt x="711" y="212" on="1"/>
        <pt x="843" y="690" on="1"/>
      </contour>
    </TTGlyph>
    <TTGlyph name="X" xMin="-32" yMin="0" xMax="672" yMax="690">
      <contour>
        <pt x="458" y="354" on="1"/>
        <pt x="587" y="0" on="1"/>
        <pt x="434" y="0" on="1"/>
        <pt x="334" y="307" on="1"/>
        <pt x="323" y="307" on="1"/>
        <pt x="136" y="0" on="1"/>
        <pt x="-32" y="0" on="1"/>
        <pt x="198" y="354" on="1"/>
        <pt x="81" y="690" on="1"/>
        <pt x="232" y="690" on="1"/>
        <pt x="322" y="405" on="1"/>
        <pt x="335" y="405" on="1"/>
        <pt x="512" y="690" on="1"/>
        <pt x="672" y="690" on="1"/>
      </contour>
    </TTGlyph>
    <TTGlyph name="Y" xMin="55" yMin="0" xMax="660" yMax="690">
      <contour>
        <pt x="367" y="225" on="1"/>
        <pt x="336" y="0" on="1"/>
        <pt x="182" y="0" on="1"/>
        <pt x="215" y="233" on="1"/>
        <pt x="55" y="690" on="1"/>
        <pt x="208" y="690" on="1"/>
        <pt x="286" y="434" on="1"/>
        <pt x="297" y="390" on="0"/>
        <pt x="299" y="345" on="1"/>
        <pt x="310" y="345" on="1"/>
        <pt x="320" y="391" on="0"/>
        <pt x="346" y="436" on="1"/>
        <pt x="496" y="690" on="1"/>
        <pt x="660" y="690" on="1"/>
      </contour>
    </TTGlyph>
    <TTGlyph name="Yacute" xMin="55" yMin="0" xMax="660" yMax="937">
      <contour>
        <pt x="321" y="723" on="1"/>
        <pt x="284" y="786" on="1"/>
        <pt x="502" y="937" on="1"/>
        <pt x="558" y="829" on="1"/>
      </contour>
      <contour>
        <pt x="367" y="225" on="1"/>
        <pt x="336" y="0" on="1"/>
        <pt x="182" y="0" on="1"/>
        <pt x="215" y="233" on="1"/>
        <pt x="55" y="690" on="1"/>
        <pt x="208" y="690" on="1"/>
        <pt x="286" y="434" on="1"/>
        <pt x="297" y="390" on="0"/>
        <pt x="299" y="345" on="1"/>
        <pt x="310" y="345" on="1"/>
        <pt x="320" y="391" on="0"/>
        <pt x="346" y="436" on="1"/>
        <pt x="496" y="690" on="1"/>
        <pt x="660" y="690" on="1"/>
      </contour>
    </TTGlyph>
    <TTGlyph name="Ycircumflex" xMin="55" yMin="0" xMax="660" yMax="912">
      <contour>
        <pt x="215" y="723" on="1"/>
        <pt x="178" y="779" on="1"/>
        <pt x="326" y="912" on="1"/>
        <pt x="428" y="912" on="1"/>
        <pt x="555" y="773" on="1"/>
        <pt x="510" y="721" on="1"/>
        <pt x="379" y="819" on="1"/>
        <pt x="371" y="819" on="1"/>
      </contour>
      <contour>
        <pt x="367" y="225" on="1"/>
        <pt x="336" y="0" on="1"/>
        <pt x="182" y="0" on="1"/>
        <pt x="215" y="233" on="1"/>
        <pt x="55" y="690" on="1"/>
        <pt x="208" y="690" on="1"/>
        <pt x="286" y="434" on="1"/>
        <pt x="297" y="390" on="0"/>
        <pt x="299" y="345" on="1"/>
        <pt x="310" y="345" on="1"/>
        <pt x="320" y="391" on="0"/>
        <pt x="346" y="436" on="1"/>
        <pt x="496" y="690" on="1"/>
        <pt x="660" y="690" on="1"/>
      </contour>
    </TTGlyph>
    <TTGlyph name="Ydieresis" xMin="55" yMin="0" xMax="660" yMax="886">
      <contour>
        <pt x="479" y="763" on="1"/>
        <pt x="425" y="763" on="1"/>
        <pt x="394" y="763" on="0"/>
        <pt x="398" y="792" on="1"/>
        <pt x="408" y="855" on="1"/>
        <pt x="412" y="886" on="0"/>
        <pt x="442" y="886" on="1"/>
        <pt x="493" y="886" on="1"/>
        <pt x="527" y="886" on="0"/>
        <pt x="521" y="856" on="1"/>
        <pt x="512" y="793" on="1"/>
        <pt x="508" y="763" on="0"/>
      </contour>
      <contour>
        <pt x="304" y="763" on="1"/>
        <pt x="250" y="763" on="1"/>
        <pt x="219" y="763" on="0"/>
        <pt x="223" y="792" on="1"/>
        <pt x="233" y="855" on="1"/>
        <pt x="237" y="886" on="0"/>
        <pt x="269" y="886" on="1"/>
        <pt x="318" y="886" on="1"/>
        <pt x="352" y="886" on="0"/>
        <pt x="346" y="856" on="1"/>
        <pt x="337" y="793" on="1"/>
        <pt x="333" y="763" on="0"/>
      </contour>
      <contour>
        <pt x="367" y="225" on="1"/>
        <pt x="336" y="0" on="1"/>
        <pt x="182" y="0" on="1"/>
        <pt x="215" y="233" on="1"/>
        <pt x="55" y="690" on="1"/>
        <pt x="208" y="690" on="1"/>
        <pt x="286" y="434" on="1"/>
        <pt x="297" y="390" on="0"/>
        <pt x="299" y="345" on="1"/>
        <pt x="310" y="345" on="1"/>
        <pt x="320" y="391" on="0"/>
        <pt x="346" y="436" on="1"/>
        <pt x="496" y="690" on="1"/>
        <pt x="660" y="690" on="1"/>
      </contour>
    </TTGlyph>
    <TTGlyph name="Ygrave" xMin="55" yMin="0" xMax="660" yMax="934">
      <contour>
        <pt x="389" y="723" on="1"/>
        <pt x="168" y="837" on="1"/>
        <pt x="234" y="934" on="1"/>
        <pt x="438" y="786" on="1"/>
      </contour>
      <contour>
        <pt x="367" y="225" on="1"/>
        <pt x="336" y="0" on="1"/>
        <pt x="182" y="0" on="1"/>
        <pt x="215" y="233" on="1"/>
        <pt x="55" y="690" on="1"/>
        <pt x="208" y="690" on="1"/>
        <pt x="286" y="434" on="1"/>
        <pt x="297" y="390" on="0"/>
        <pt x="299" y="345" on="1"/>
        <pt x="310" y="345" on="1"/>
        <pt x="320" y="391" on="0"/>
        <pt x="346" y="436" on="1"/>
        <pt x="496" y="690" on="1"/>
        <pt x="660" y="690" on="1"/>
      </contour>
    </TTGlyph>
    <TTGlyph name="Z" xMin="-1" yMin="0" xMax="588" yMax="690">
      <contour>
        <pt x="187" y="117" on="1"/>
        <pt x="515" y="117" on="1"/>
        <pt x="499" y="0" on="1"/>
        <pt x="-1" y="0" on="1"/>
        <pt x="14" y="117" on="1"/>
        <pt x="399" y="573" on="1"/>
        <pt x="87" y="573" on="1"/>
        <pt x="103" y="690" on="1"/>
        <pt x="588" y="690" on="1"/>
        <pt x="571" y="573" on="1"/>
      </contour>
    </TTGlyph>
    <TTGlyph name="Zacute" xMin="-1" yMin="0" xMax="588" yMax="937">
      <contour>
        <pt x="312" y="723" on="1"/>
        <pt x="275" y="786" on="1"/>
        <pt x="493" y="937" on="1"/>
        <pt x="550" y="829" on="1"/>
      </contour>
      <contour>
        <pt x="187" y="117" on="1"/>
        <pt x="515" y="117" on="1"/>
        <pt x="499" y="0" on="1"/>
        <pt x="-1" y="0" on="1"/>
        <pt x="14" y="117" on="1"/>
        <pt x="399" y="573" on="1"/>
        <pt x="87" y="573" on="1"/>
        <pt x="103" y="690" on="1"/>
        <pt x="588" y="690" on="1"/>
        <pt x="571" y="573" on="1"/>
      </contour>
    </TTGlyph>
    <TTGlyph name="Zcaron" xMin="-1" yMin="0" xMax="588" yMax="929">
      <contour>
        <pt x="315" y="739" on="1"/>
        <pt x="180" y="880" on="1"/>
        <pt x="229" y="929" on="1"/>
        <pt x="355" y="837" on="1"/>
        <pt x="363" y="837" on="1"/>
        <pt x="519" y="928" on="1"/>
        <pt x="554" y="870" on="1"/>
        <pt x="394" y="739" on="1"/>
      </contour>
      <contour>
        <pt x="187" y="117" on="1"/>
        <pt x="515" y="117" on="1"/>
        <pt x="499" y="0" on="1"/>
        <pt x="-1" y="0" on="1"/>
        <pt x="14" y="117" on="1"/>
        <pt x="399" y="573" on="1"/>
        <pt x="87" y="573" on="1"/>
        <pt x="103" y="690" on="1"/>
        <pt x="588" y="690" on="1"/>
        <pt x="571" y="573" on="1"/>
      </contour>
    </TTGlyph>
    <TTGlyph name="Zdotaccent" xMin="-1" yMin="0" xMax="588" yMax="887">
      <contour>
        <pt x="381" y="753" on="1"/>
        <pt x="336" y="753" on="1"/>
        <pt x="290" y="753" on="0"/>
        <pt x="296" y="797" on="1"/>
        <pt x="303" y="848" on="1"/>
        <pt x="309" y="887" on="0"/>
        <pt x="346" y="887" on="1"/>
        <pt x="390" y="887" on="1"/>
        <pt x="410" y="887" on="0"/>
        <pt x="433" y="864" on="0"/>
        <pt x="431" y="844" on="1"/>
        <pt x="424" y="791" on="1"/>
        <pt x="420" y="753" on="0"/>
      </contour>
      <contour>
        <pt x="187" y="117" on="1"/>
        <pt x="515" y="117" on="1"/>
        <pt x="499" y="0" on="1"/>
        <pt x="-1" y="0" on="1"/>
        <pt x="14" y="117" on="1"/>
        <pt x="399" y="573" on="1"/>
        <pt x="87" y="573" on="1"/>
        <pt x="103" y="690" on="1"/>
        <pt x="588" y="690" on="1"/>
        <pt x="571" y="573" on="1"/>
      </contour>
    </TTGlyph>
    <TTGlyph name="a" xMin="37" yMin="-12" xMax="557" yMax="507">
      <contour>
        <pt x="490" y="0" on="1"/>
        <pt x="375" y="0" on="1"/>
        <pt x="376" y="89" on="1"/>
        <pt x="300" y="-9" on="0"/>
        <pt x="174" y="-12" on="1"/>
        <pt x="81" y="-15" on="0"/>
        <pt x="16" y="112" on="0"/>
        <pt x="37" y="256" on="1"/>
        <pt x="47" y="324" on="0"/>
        <pt x="83" y="417" on="0"/>
        <pt x="127" y="471" on="0"/>
        <pt x="197" y="499" on="0"/>
        <pt x="262" y="507" on="0"/>
        <pt x="312" y="507" on="1"/>
        <pt x="365" y="507" on="0"/>
        <pt x="513" y="489" on="0"/>
        <pt x="557" y="477" on="1"/>
      </contour>
      <contour>
        <pt x="399" y="398" on="1"/>
        <pt x="323" y="398" on="1"/>
        <pt x="251" y="398" on="0"/>
        <pt x="199" y="348" on="0"/>
        <pt x="186" y="254" on="1"/>
        <pt x="173" y="159" on="0"/>
        <pt x="187" y="106" on="0"/>
        <pt x="223" y="108" on="1"/>
        <pt x="289" y="109" on="0"/>
        <pt x="371" y="201" on="1"/>
      </contour>
    </TTGlyph>
    <TTGlyph name="aacute" xMin="37" yMin="-12" xMax="557" yMax="754">
      <contour>
        <pt x="296" y="541" on="1"/>
        <pt x="259" y="604" on="1"/>
        <pt x="477" y="754" on="1"/>
        <pt x="533" y="647" on="1"/>
      </contour>
      <contour>
        <pt x="490" y="0" on="1"/>
        <pt x="375" y="0" on="1"/>
        <pt x="376" y="89" on="1"/>
        <pt x="300" y="-9" on="0"/>
        <pt x="174" y="-12" on="1"/>
        <pt x="81" y="-15" on="0"/>
        <pt x="16" y="112" on="0"/>
        <pt x="37" y="256" on="1"/>
        <pt x="47" y="324" on="0"/>
        <pt x="83" y="417" on="0"/>
        <pt x="127" y="471" on="0"/>
        <pt x="197" y="499" on="0"/>
        <pt x="262" y="507" on="0"/>
        <pt x="312" y="507" on="1"/>
        <pt x="365" y="507" on="0"/>
        <pt x="513" y="489" on="0"/>
        <pt x="557" y="477" on="1"/>
      </contour>
      <contour>
        <pt x="399" y="398" on="1"/>
        <pt x="323" y="398" on="1"/>
        <pt x="251" y="398" on="0"/>
        <pt x="199" y="348" on="0"/>
        <pt x="186" y="254" on="1"/>
        <pt x="173" y="159" on="0"/>
        <pt x="187" y="106" on="0"/>
        <pt x="223" y="108" on="1"/>
        <pt x="289" y="109" on="0"/>
        <pt x="371" y="201" on="1"/>
      </contour>
    </TTGlyph>
    <TTGlyph name="abreve" xMin="37" yMin="-12" xMax="557" yMax="719">
      <contour>
        <pt x="451" y="719" on="1"/>
        <pt x="520" y="706" on="1"/>
        <pt x="518" y="642" on="0"/>
        <pt x="421" y="558" on="0"/>
        <pt x="342" y="558" on="1"/>
        <pt x="259" y="558" on="0"/>
        <pt x="175" y="648" on="0"/>
        <pt x="192" y="712" on="1"/>
        <pt x="263" y="716" on="1"/>
        <pt x="259" y="684" on="0"/>
        <pt x="301" y="654" on="0"/>
        <pt x="345" y="654" on="1"/>
        <pt x="443" y="654" on="0"/>
      </contour>
      <contour>
        <pt x="490" y="0" on="1"/>
        <pt x="375" y="0" on="1"/>
        <pt x="376" y="89" on="1"/>
        <pt x="300" y="-9" on="0"/>
        <pt x="174" y="-12" on="1"/>
        <pt x="81" y="-15" on="0"/>
        <pt x="16" y="112" on="0"/>
        <pt x="37" y="256" on="1"/>
        <pt x="47" y="324" on="0"/>
        <pt x="83" y="417" on="0"/>
        <pt x="127" y="471" on="0"/>
        <pt x="197" y="499" on="0"/>
        <pt x="262" y="507" on="0"/>
        <pt x="312" y="507" on="1"/>
        <pt x="365" y="507" on="0"/>
        <pt x="513" y="489" on="0"/>
        <pt x="557" y="477" on="1"/>
      </contour>
      <contour>
        <pt x="399" y="398" on="1"/>
        <pt x="323" y="398" on="1"/>
        <pt x="251" y="398" on="0"/>
        <pt x="199" y="348" on="0"/>
        <pt x="186" y="254" on="1"/>
        <pt x="173" y="159" on="0"/>
        <pt x="187" y="106" on="0"/>
        <pt x="223" y="108" on="1"/>
        <pt x="289" y="109" on="0"/>
        <pt x="371" y="201" on="1"/>
      </contour>
    </TTGlyph>
    <TTGlyph name="acircumflex" xMin="37" yMin="-12" xMax="557" yMax="729">
      <contour>
        <pt x="190" y="540" on="1"/>
        <pt x="153" y="596" on="1"/>
        <pt x="301" y="729" on="1"/>
        <pt x="402" y="729" on="1"/>
        <pt x="530" y="590" on="1"/>
        <pt x="485" y="538" on="1"/>
        <pt x="353" y="637" on="1"/>
        <pt x="345" y="637" on="1"/>
      </contour>
      <contour>
        <pt x="490" y="0" on="1"/>
        <pt x="375" y="0" on="1"/>
        <pt x="376" y="89" on="1"/>
        <pt x="300" y="-9" on="0"/>
        <pt x="174" y="-12" on="1"/>
        <pt x="81" y="-15" on="0"/>
        <pt x="16" y="112" on="0"/>
        <pt x="37" y="256" on="1"/>
        <pt x="47" y="324" on="0"/>
        <pt x="83" y="417" on="0"/>
        <pt x="127" y="471" on="0"/>
        <pt x="197" y="499" on="0"/>
        <pt x="262" y="507" on="0"/>
        <pt x="312" y="507" on="1"/>
        <pt x="365" y="507" on="0"/>
        <pt x="513" y="489" on="0"/>
        <pt x="557" y="477" on="1"/>
      </contour>
      <contour>
        <pt x="399" y="398" on="1"/>
        <pt x="323" y="398" on="1"/>
        <pt x="251" y="398" on="0"/>
        <pt x="199" y="348" on="0"/>
        <pt x="186" y="254" on="1"/>
        <pt x="173" y="159" on="0"/>
        <pt x="187" y="106" on="0"/>
        <pt x="223" y="108" on="1"/>
        <pt x="289" y="109" on="0"/>
        <pt x="371" y="201" on="1"/>
      </contour>
    </TTGlyph>
    <TTGlyph name="acute" xMin="96" yMin="524" xMax="371" yMax="738">
      <contour>
        <pt x="371" y="631" on="1"/>
        <pt x="133" y="524" on="1"/>
        <pt x="96" y="588" on="1"/>
        <pt x="314" y="738" on="1"/>
      </contour>
    </TTGlyph>
    <TTGlyph name="adieresis" xMin="37" yMin="-12" xMax="557" yMax="704">
      <contour>
        <pt x="279" y="580" on="1"/>
        <pt x="225" y="580" on="1"/>
        <pt x="194" y="580" on="0"/>
        <pt x="198" y="610" on="1"/>
        <pt x="207" y="672" on="1"/>
        <pt x="211" y="704" on="0"/>
        <pt x="243" y="704" on="1"/>
        <pt x="293" y="704" on="1"/>
        <pt x="327" y="704" on="0"/>
        <pt x="321" y="673" on="1"/>
        <pt x="311" y="610" on="1"/>
        <pt x="308" y="580" on="0"/>
      </contour>
      <contour>
        <pt x="454" y="580" on="1"/>
        <pt x="400" y="580" on="1"/>
        <pt x="368" y="580" on="0"/>
        <pt x="373" y="610" on="1"/>
        <pt x="382" y="673" on="1"/>
        <pt x="388" y="704" on="0"/>
        <pt x="417" y="704" on="1"/>
        <pt x="468" y="704" on="1"/>
        <pt x="502" y="704" on="0"/>
        <pt x="496" y="673" on="1"/>
        <pt x="486" y="610" on="1"/>
        <pt x="483" y="580" on="0"/>
      </contour>
      <contour>
        <pt x="490" y="0" on="1"/>
        <pt x="375" y="0" on="1"/>
        <pt x="376" y="89" on="1"/>
        <pt x="300" y="-9" on="0"/>
        <pt x="174" y="-12" on="1"/>
        <pt x="81" y="-15" on="0"/>
        <pt x="16" y="112" on="0"/>
        <pt x="37" y="256" on="1"/>
        <pt x="47" y="324" on="0"/>
        <pt x="83" y="417" on="0"/>
        <pt x="127" y="471" on="0"/>
        <pt x="197" y="499" on="0"/>
        <pt x="262" y="507" on="0"/>
        <pt x="312" y="507" on="1"/>
        <pt x="365" y="507" on="0"/>
        <pt x="513" y="489" on="0"/>
        <pt x="557" y="477" on="1"/>
      </contour>
      <contour>
        <pt x="399" y="398" on="1"/>
        <pt x="323" y="398" on="1"/>
        <pt x="251" y="398" on="0"/>
        <pt x="199" y="348" on="0"/>
        <pt x="186" y="254" on="1"/>
        <pt x="173" y="159" on="0"/>
        <pt x="187" y="106" on="0"/>
        <pt x="223" y="108" on="1"/>
        <pt x="289" y="109" on="0"/>
        <pt x="371" y="201" on="1"/>
      </contour>
    </TTGlyph>
    <TTGlyph name="ae" xMin="37" yMin="-12" xMax="863" yMax="507">
      <contour>
        <pt x="800" y="117" on="1"/>
        <pt x="809" y="23" on="1"/>
        <pt x="730" y="-12" on="0"/>
        <pt x="598" y="-12" on="1"/>
        <pt x="424" y="-12" on="0"/>
        <pt x="380" y="96" on="1"/>
        <pt x="303" y="-9" on="0"/>
        <pt x="174" y="-12" on="1"/>
        <pt x="81" y="-15" on="0"/>
        <pt x="17" y="112" on="0"/>
        <pt x="37" y="256" on="1"/>
        <pt x="46" y="324" on="0"/>
        <pt x="81" y="417" on="0"/>
        <pt x="121" y="470" on="0"/>
        <pt x="186" y="499" on="0"/>
        <pt x="246" y="507" on="0"/>
        <pt x="293" y="507" on="1"/>
        <pt x="407" y="507" on="0"/>
        <pt x="509" y="487" on="1"/>
        <pt x="563" y="507" on="0"/>
        <pt x="652" y="507" on="1"/>
        <pt x="781" y="507" on="0"/>
        <pt x="874" y="421" on="0"/>
        <pt x="863" y="337" on="1"/>
        <pt x="852" y="267" on="0"/>
        <pt x="759" y="207" on="0"/>
        <pt x="662" y="200" on="1"/>
        <pt x="515" y="188" on="1"/>
        <pt x="516" y="139" on="0"/>
        <pt x="563" y="106" on="0"/>
        <pt x="615" y="106" on="1"/>
        <pt x="710" y="106" on="0"/>
      </contour>
      <contour>
        <pt x="523" y="276" on="1"/>
        <pt x="639" y="287" on="1"/>
        <pt x="679" y="290" on="0"/>
        <pt x="715" y="316" on="0"/>
        <pt x="719" y="351" on="1"/>
        <pt x="723" y="384" on="0"/>
        <pt x="691" y="400" on="0"/>
        <pt x="642" y="399" on="1"/>
        <pt x="584" y="399" on="0"/>
        <pt x="536" y="350" on="0"/>
      </contour>
      <contour>
        <pt x="224" y="108" on="1"/>
        <pt x="287" y="108" on="0"/>
        <pt x="364" y="195" on="1"/>
        <pt x="364" y="213" on="0"/>
        <pt x="368" y="257" on="1"/>
        <pt x="380" y="347" on="0"/>
        <pt x="406" y="397" on="1"/>
        <pt x="322" y="398" on="1"/>
        <pt x="250" y="398" on="0"/>
        <pt x="201" y="349" on="0"/>
        <pt x="175" y="159" on="0"/>
        <pt x="188" y="106" on="0"/>
      </contour>
    </TTGlyph>
    <TTGlyph name="agrave" xMin="37" yMin="-12" xMax="557" yMax="752">
      <contour>
        <pt x="364" y="541" on="1"/>
        <pt x="143" y="654" on="1"/>
        <pt x="209" y="752" on="1"/>
        <pt x="413" y="603" on="1"/>
      </contour>
      <contour>
        <pt x="490" y="0" on="1"/>
        <pt x="375" y="0" on="1"/>
        <pt x="376" y="89" on="1"/>
        <pt x="300" y="-9" on="0"/>
        <pt x="174" y="-12" on="1"/>
        <pt x="81" y="-15" on="0"/>
        <pt x="16" y="112" on="0"/>
        <pt x="37" y="256" on="1"/>
        <pt x="47" y="324" on="0"/>
        <pt x="83" y="417" on="0"/>
        <pt x="127" y="471" on="0"/>
        <pt x="197" y="499" on="0"/>
        <pt x="262" y="507" on="0"/>
        <pt x="312" y="507" on="1"/>
        <pt x="365" y="507" on="0"/>
        <pt x="513" y="489" on="0"/>
        <pt x="557" y="477" on="1"/>
      </contour>
      <contour>
        <pt x="399" y="398" on="1"/>
        <pt x="323" y="398" on="1"/>
        <pt x="251" y="398" on="0"/>
        <pt x="199" y="348" on="0"/>
        <pt x="186" y="254" on="1"/>
        <pt x="173" y="159" on="0"/>
        <pt x="187" y="106" on="0"/>
        <pt x="223" y="108" on="1"/>
        <pt x="289" y="109" on="0"/>
        <pt x="371" y="201" on="1"/>
      </contour>
    </TTGlyph>
    <TTGlyph name="amacron" xMin="37" yMin="-12" xMax="557" yMax="689">
      <contour>
        <pt x="489" y="594" on="1"/>
        <pt x="190" y="594" on="1"/>
        <pt x="203" y="689" on="1"/>
        <pt x="502" y="689" on="1"/>
      </contour>
      <contour>
        <pt x="490" y="0" on="1"/>
        <pt x="375" y="0" on="1"/>
        <pt x="376" y="89" on="1"/>
        <pt x="300" y="-9" on="0"/>
        <pt x="174" y="-12" on="1"/>
        <pt x="81" y="-15" on="0"/>
        <pt x="16" y="112" on="0"/>
        <pt x="37" y="256" on="1"/>
        <pt x="47" y="324" on="0"/>
        <pt x="83" y="417" on="0"/>
        <pt x="127" y="471" on="0"/>
        <pt x="197" y="499" on="0"/>
        <pt x="262" y="507" on="0"/>
        <pt x="312" y="507" on="1"/>
        <pt x="365" y="507" on="0"/>
        <pt x="513" y="489" on="0"/>
        <pt x="557" y="477" on="1"/>
      </contour>
      <contour>
        <pt x="399" y="398" on="1"/>
        <pt x="323" y="398" on="1"/>
        <pt x="251" y="398" on="0"/>
        <pt x="199" y="348" on="0"/>
        <pt x="186" y="254" on="1"/>
        <pt x="173" y="159" on="0"/>
        <pt x="187" y="106" on="0"/>
        <pt x="223" y="108" on="1"/>
        <pt x="289" y="109" on="0"/>
        <pt x="371" y="201" on="1"/>
      </contour>
    </TTGlyph>
    <TTGlyph name="ampersand" xMin="31" yMin="-12" xMax="736" yMax="702">
      <contour>
        <pt x="721" y="304" on="1"/>
        <pt x="635" y="304" on="1"/>
        <pt x="621" y="218" on="0"/>
        <pt x="586" y="157" on="1"/>
        <pt x="493" y="-12" on="0"/>
        <pt x="248" y="-12" on="1"/>
        <pt x="122" y="-12" on="0"/>
        <pt x="19" y="80" on="0"/>
        <pt x="31" y="181" on="1"/>
        <pt x="49" y="346" on="0"/>
        <pt x="190" y="356" on="1"/>
        <pt x="191" y="361" on="1"/>
        <pt x="136" y="365" on="0"/>
        <pt x="88" y="455" on="0"/>
        <pt x="100" y="526" on="1"/>
        <pt x="108" y="571" on="0"/>
        <pt x="142" y="635" on="0"/>
        <pt x="187" y="673" on="0"/>
        <pt x="256" y="695" on="0"/>
        <pt x="326" y="702" on="0"/>
        <pt x="375" y="702" on="1"/>
        <pt x="470" y="702" on="0"/>
        <pt x="548" y="680" on="1"/>
        <pt x="524" y="575" on="1"/>
        <pt x="461" y="588" on="0"/>
        <pt x="381" y="588" on="1"/>
        <pt x="311" y="588" on="0"/>
        <pt x="257" y="553" on="0"/>
        <pt x="249" y="496" on="1"/>
        <pt x="242" y="444" on="0"/>
        <pt x="276" y="407" on="0"/>
        <pt x="329" y="407" on="1"/>
        <pt x="519" y="407" on="1"/>
        <pt x="521" y="440" on="0"/>
        <pt x="521" y="513" on="1"/>
        <pt x="648" y="513" on="1"/>
        <pt x="649" y="464" on="0"/>
        <pt x="646" y="407" on="1"/>
        <pt x="736" y="407" on="1"/>
      </contour>
      <contour>
        <pt x="506" y="304" on="1"/>
        <pt x="314" y="304" on="1"/>
        <pt x="256" y="304" on="0"/>
        <pt x="201" y="259" on="0"/>
        <pt x="193" y="200" on="1"/>
        <pt x="186" y="150" on="0"/>
        <pt x="223" y="110" on="0"/>
        <pt x="278" y="110" on="1"/>
        <pt x="410" y="110" on="0"/>
        <pt x="467" y="205" on="1"/>
        <pt x="493" y="242" on="0"/>
      </contour>
    </TTGlyph>
    <TTGlyph name="aogonek" xMin="37" yMin="-212" xMax="557" yMax="507">
      <contour>
        <pt x="557" y="477" on="1"/>
        <pt x="490" y="0" on="1"/>
        <pt x="447" y="-48" on="0"/>
        <pt x="418" y="-104" on="1"/>
        <pt x="404" y="-130" on="0"/>
        <pt x="431" y="-145" on="0"/>
        <pt x="467" y="-135" on="1"/>
        <pt x="481" y="-192" on="1"/>
        <pt x="437" y="-208" on="0"/>
        <pt x="366" y="-215" on="0"/>
        <pt x="324" y="-198" on="0"/>
        <pt x="301" y="-167" on="0"/>
        <pt x="302" y="-126" on="0"/>
        <pt x="313" y="-104" on="1"/>
        <pt x="339" y="-52" on="0"/>
        <pt x="418" y="0" on="1"/>
        <pt x="375" y="0" on="1"/>
        <pt x="376" y="89" on="1"/>
        <pt x="300" y="-9" on="0"/>
        <pt x="174" y="-12" on="1"/>
        <pt x="81" y="-15" on="0"/>
        <pt x="16" y="112" on="0"/>
        <pt x="37" y="256" on="1"/>
        <pt x="47" y="324" on="0"/>
        <pt x="83" y="417" on="0"/>
        <pt x="127" y="471" on="0"/>
        <pt x="197" y="499" on="0"/>
        <pt x="262" y="507" on="0"/>
        <pt x="312" y="507" on="1"/>
        <pt x="365" y="507" on="0"/>
        <pt x="513" y="489" on="0"/>
      </contour>
      <contour>
        <pt x="399" y="398" on="1"/>
        <pt x="323" y="398" on="1"/>
        <pt x="251" y="398" on="0"/>
        <pt x="199" y="348" on="0"/>
        <pt x="186" y="254" on="1"/>
        <pt x="173" y="159" on="0"/>
        <pt x="187" y="106" on="0"/>
        <pt x="223" y="108" on="1"/>
        <pt x="289" y="109" on="0"/>
        <pt x="371" y="201" on="1"/>
      </contour>
    </TTGlyph>
    <TTGlyph name="approxequal" xMin="42" yMin="114" xMax="540" yMax="464">
      <contour>
        <pt x="162" y="311" on="1"/>
        <pt x="70" y="317" on="1"/>
        <pt x="65" y="395" on="0"/>
        <pt x="135" y="469" on="0"/>
        <pt x="196" y="464" on="1"/>
        <pt x="226" y="462" on="0"/>
        <pt x="375" y="416" on="0"/>
        <pt x="398" y="415" on="1"/>
        <pt x="423" y="413" on="0"/>
        <pt x="443" y="435" on="0"/>
        <pt x="447" y="463" on="1"/>
        <pt x="540" y="456" on="1"/>
        <pt x="544" y="382" on="0"/>
        <pt x="480" y="308" on="0"/>
        <pt x="412" y="310" on="1"/>
        <pt x="380" y="311" on="0"/>
        <pt x="232" y="358" on="0"/>
        <pt x="210" y="360" on="1"/>
        <pt x="186" y="361" on="0"/>
        <pt x="166" y="339" on="0"/>
      </contour>
      <contour>
        <pt x="135" y="115" on="1"/>
        <pt x="42" y="121" on="1"/>
        <pt x="38" y="199" on="0"/>
        <pt x="108" y="273" on="0"/>
        <pt x="169" y="269" on="1"/>
        <pt x="199" y="267" on="0"/>
        <pt x="348" y="220" on="0"/>
        <pt x="371" y="218" on="1"/>
        <pt x="396" y="216" on="0"/>
        <pt x="416" y="238" on="0"/>
        <pt x="420" y="266" on="1"/>
        <pt x="513" y="260" on="1"/>
        <pt x="517" y="186" on="0"/>
        <pt x="453" y="112" on="0"/>
        <pt x="385" y="114" on="1"/>
        <pt x="352" y="115" on="0"/>
        <pt x="206" y="162" on="0"/>
        <pt x="183" y="163" on="1"/>
        <pt x="158" y="164" on="0"/>
        <pt x="138" y="142" on="0"/>
      </contour>
    </TTGlyph>
    <TTGlyph name="aring" xMin="37" yMin="-12" xMax="557" yMax="759">
      <contour>
        <pt x="343" y="532" on="1"/>
        <pt x="290" y="532" on="0"/>
        <pt x="225" y="600" on="0"/>
        <pt x="232" y="651" on="1"/>
        <pt x="237" y="696" on="0"/>
        <pt x="302" y="759" on="0"/>
        <pt x="353" y="759" on="1"/>
        <pt x="406" y="759" on="0"/>
        <pt x="472" y="691" on="0"/>
        <pt x="466" y="640" on="1"/>
        <pt x="460" y="594" on="0"/>
        <pt x="394" y="532" on="0"/>
      </contour>
      <contour>
        <pt x="299" y="647" on="1"/>
        <pt x="296" y="622" on="0"/>
        <pt x="323" y="594" on="0"/>
        <pt x="345" y="594" on="1"/>
        <pt x="368" y="594" on="0"/>
        <pt x="397" y="624" on="0"/>
        <pt x="399" y="648" on="1"/>
        <pt x="401" y="670" on="0"/>
        <pt x="374" y="697" on="0"/>
        <pt x="330" y="697" on="0"/>
        <pt x="301" y="669" on="0"/>
      </contour>
      <contour>
        <pt x="490" y="0" on="1"/>
        <pt x="375" y="0" on="1"/>
        <pt x="376" y="89" on="1"/>
        <pt x="300" y="-9" on="0"/>
        <pt x="174" y="-12" on="1"/>
        <pt x="81" y="-15" on="0"/>
        <pt x="16" y="112" on="0"/>
        <pt x="37" y="256" on="1"/>
        <pt x="47" y="324" on="0"/>
        <pt x="83" y="417" on="0"/>
        <pt x="127" y="471" on="0"/>
        <pt x="197" y="499" on="0"/>
        <pt x="262" y="507" on="0"/>
        <pt x="312" y="507" on="1"/>
        <pt x="365" y="507" on="0"/>
        <pt x="513" y="489" on="0"/>
        <pt x="557" y="477" on="1"/>
      </contour>
      <contour>
        <pt x="399" y="398" on="1"/>
        <pt x="323" y="398" on="1"/>
        <pt x="251" y="398" on="0"/>
        <pt x="199" y="348" on="0"/>
        <pt x="186" y="254" on="1"/>
        <pt x="173" y="159" on="0"/>
        <pt x="187" y="106" on="0"/>
        <pt x="223" y="108" on="1"/>
        <pt x="289" y="109" on="0"/>
        <pt x="371" y="201" on="1"/>
      </contour>
    </TTGlyph>
    <TTGlyph name="asciicircum" xMin="51" yMin="370" xMax="453" yMax="627">
      <contour>
        <pt x="453" y="402" on="1"/>
        <pt x="393" y="370" on="1"/>
        <pt x="280" y="536" on="1"/>
        <pt x="272" y="536" on="1"/>
        <pt x="107" y="370" on="1"/>
        <pt x="51" y="402" on="1"/>
        <pt x="228" y="627" on="1"/>
        <pt x="335" y="627" on="1"/>
      </contour>
    </TTGlyph>
    <TTGlyph name="asciitilde" xMin="51" yMin="213" xMax="459" yMax="363">
      <contour>
        <pt x="117" y="214" on="1"/>
        <pt x="51" y="220" on="1"/>
        <pt x="50" y="292" on="0"/>
        <pt x="103" y="364" on="0"/>
        <pt x="143" y="363" on="1"/>
        <pt x="178" y="362" on="0"/>
        <pt x="330" y="314" on="0"/>
        <pt x="342" y="312" on="1"/>
        <pt x="367" y="308" on="0"/>
        <pt x="389" y="331" on="0"/>
        <pt x="393" y="360" on="1"/>
        <pt x="459" y="355" on="1"/>
        <pt x="460" y="284" on="0"/>
        <pt x="409" y="211" on="0"/>
        <pt x="367" y="213" on="1"/>
        <pt x="329" y="214" on="0"/>
        <pt x="179" y="262" on="0"/>
        <pt x="167" y="264" on="1"/>
        <pt x="142" y="268" on="0"/>
        <pt x="121" y="244" on="0"/>
      </contour>
    </TTGlyph>
    <TTGlyph name="asterisk" xMin="71" yMin="346" xMax="448" yMax="691">
      <contour>
        <pt x="287" y="524" on="1"/>
        <pt x="376" y="395" on="1"/>
        <pt x="308" y="346" on="1"/>
        <pt x="254" y="468" on="1"/>
        <pt x="167" y="347" on="1"/>
        <pt x="105" y="395" on="1"/>
        <pt x="230" y="523" on="1"/>
        <pt x="241" y="691" on="1"/>
        <pt x="324" y="691" on="1"/>
      </contour>
      <contour>
        <pt x="217" y="563" on="1"/>
        <pt x="213" y="528" on="1"/>
        <pt x="192" y="506" on="1"/>
        <pt x="71" y="535" on="1"/>
        <pt x="104" y="612" on="1"/>
      </contour>
      <contour>
        <pt x="448" y="532" on="1"/>
        <pt x="323" y="505" on="1"/>
        <pt x="307" y="527" on="1"/>
        <pt x="312" y="563" on="1"/>
        <pt x="432" y="612" on="1"/>
      </contour>
    </TTGlyph>
    <TTGlyph name="at" xMin="43" yMin="-12" xMax="759" yMax="654">
      <contour>
        <pt x="94" y="544" on="1"/>
        <pt x="103" y="644" on="1"/>
        <pt x="252" y="652" on="0"/>
        <pt x="432" y="654" on="1"/>
        <pt x="510" y="655" on="0"/>
        <pt x="611" y="647" on="0"/>
        <pt x="695" y="620" on="0"/>
        <pt x="737" y="576" on="0"/>
        <pt x="760" y="499" on="0"/>
        <pt x="758" y="396" on="0"/>
        <pt x="747" y="320" on="1"/>
        <pt x="721" y="122" on="0"/>
        <pt x="623" y="-10" on="0"/>
        <pt x="492" y="-10" on="1"/>
        <pt x="370" y="-10" on="0"/>
        <pt x="349" y="83" on="1"/>
        <pt x="277" y="-12" on="0"/>
        <pt x="178" y="-12" on="1"/>
        <pt x="3" y="-12" on="0"/>
        <pt x="43" y="231" on="1"/>
        <pt x="55" y="303" on="0"/>
        <pt x="96" y="395" on="0"/>
        <pt x="161" y="440" on="0"/>
        <pt x="229" y="455" on="0"/>
        <pt x="281" y="455" on="1"/>
        <pt x="374" y="455" on="0"/>
        <pt x="528" y="427" on="1"/>
        <pt x="482" y="138" on="1"/>
        <pt x="478" y="98" on="0"/>
        <pt x="508" y="98" on="1"/>
        <pt x="557" y="98" on="0"/>
        <pt x="594" y="186" on="0"/>
        <pt x="615" y="328" on="1"/>
        <pt x="622" y="371" on="0"/>
        <pt x="629" y="427" on="0"/>
        <pt x="625" y="477" on="0"/>
        <pt x="621" y="504" on="0"/>
        <pt x="594" y="528" on="0"/>
        <pt x="574" y="537" on="0"/>
        <pt x="517" y="543" on="0"/>
        <pt x="474" y="544" on="0"/>
        <pt x="429" y="544" on="1"/>
      </contour>
      <contour>
        <pt x="379" y="351" on="1"/>
        <pt x="312" y="352" on="1"/>
        <pt x="242" y="352" on="0"/>
        <pt x="193" y="309" on="0"/>
        <pt x="179" y="224" on="1"/>
        <pt x="167" y="142" on="0"/>
        <pt x="184" y="102" on="0"/>
        <pt x="256" y="102" on="0"/>
        <pt x="315" y="146" on="0"/>
        <pt x="353" y="198" on="1"/>
      </contour>
    </TTGlyph>
    <TTGlyph name="atilde" xMin="37" yMin="-12" xMax="557" yMax="716">
      <contour>
        <pt x="463" y="714" on="1"/>
        <pt x="525" y="708" on="1"/>
        <pt x="526" y="639" on="0"/>
        <pt x="475" y="569" on="0"/>
        <pt x="433" y="571" on="1"/>
        <pt x="397" y="573" on="0"/>
        <pt x="294" y="618" on="0"/>
        <pt x="280" y="620" on="1"/>
        <pt x="254" y="624" on="0"/>
        <pt x="231" y="600" on="0"/>
        <pt x="227" y="572" on="1"/>
        <pt x="165" y="577" on="1"/>
        <pt x="165" y="648" on="0"/>
        <pt x="217" y="718" on="0"/>
        <pt x="258" y="716" on="1"/>
        <pt x="291" y="714" on="0"/>
        <pt x="391" y="671" on="0"/>
        <pt x="409" y="668" on="1"/>
        <pt x="436" y="664" on="0"/>
        <pt x="459" y="686" on="0"/>
      </contour>
      <contour>
        <pt x="490" y="0" on="1"/>
        <pt x="375" y="0" on="1"/>
        <pt x="376" y="89" on="1"/>
        <pt x="300" y="-9" on="0"/>
        <pt x="174" y="-12" on="1"/>
        <pt x="81" y="-15" on="0"/>
        <pt x="16" y="112" on="0"/>
        <pt x="37" y="256" on="1"/>
        <pt x="47" y="324" on="0"/>
        <pt x="83" y="417" on="0"/>
        <pt x="127" y="471" on="0"/>
        <pt x="197" y="499" on="0"/>
        <pt x="262" y="507" on="0"/>
        <pt x="312" y="507" on="1"/>
        <pt x="365" y="507" on="0"/>
        <pt x="513" y="489" on="0"/>
        <pt x="557" y="477" on="1"/>
      </contour>
      <contour>
        <pt x="399" y="398" on="1"/>
        <pt x="323" y="398" on="1"/>
        <pt x="251" y="398" on="0"/>
        <pt x="199" y="348" on="0"/>
        <pt x="186" y="254" on="1"/>
        <pt x="173" y="159" on="0"/>
        <pt x="187" y="106" on="0"/>
        <pt x="223" y="108" on="1"/>
        <pt x="289" y="109" on="0"/>
        <pt x="371" y="201" on="1"/>
      </contour>
    </TTGlyph>
    <TTGlyph name="b" xMin="21" yMin="-13" xMax="543" yMax="700">
      <contour>
        <pt x="263" y="700" on="1"/>
        <pt x="241" y="529" on="1"/>
        <pt x="233" y="465" on="0"/>
        <pt x="213" y="412" on="1"/>
        <pt x="311" y="506" on="0"/>
        <pt x="408" y="506" on="1"/>
        <pt x="498" y="506" on="0"/>
        <pt x="564" y="386" on="0"/>
        <pt x="543" y="242" on="1"/>
        <pt x="524" y="102" on="0"/>
        <pt x="406" y="-13" on="0"/>
        <pt x="286" y="-13" on="1"/>
        <pt x="226" y="-13" on="0"/>
        <pt x="67" y="9" on="0"/>
        <pt x="21" y="26" on="1"/>
        <pt x="116" y="700" on="1"/>
      </contour>
      <contour>
        <pt x="210" y="313" on="1"/>
        <pt x="180" y="98" on="1"/>
        <pt x="244" y="96" on="0"/>
        <pt x="257" y="96" on="1"/>
        <pt x="330" y="97" on="0"/>
        <pt x="380" y="153" on="0"/>
        <pt x="394" y="252" on="1"/>
        <pt x="405" y="338" on="0"/>
        <pt x="390" y="386" on="0"/>
        <pt x="355" y="386" on="1"/>
        <pt x="297" y="386" on="0"/>
      </contour>
    </TTGlyph>
    <TTGlyph name="backslash" xMin="74" yMin="-72" xMax="474" yMax="690">
      <contour>
        <pt x="474" y="-72" on="1"/>
        <pt x="363" y="-72" on="1"/>
        <pt x="74" y="690" on="1"/>
        <pt x="185" y="690" on="1"/>
      </contour>
    </TTGlyph>
    <TTGlyph name="bar" xMin="13" yMin="-169" xMax="251" yMax="781">
      <contour>
        <pt x="117" y="-169" on="1"/>
        <pt x="13" y="-169" on="1"/>
        <pt x="146" y="781" on="1"/>
        <pt x="251" y="781" on="1"/>
      </contour>
    </TTGlyph>
    <TTGlyph name="braceleft" xMin="32" yMin="-165" xMax="367" yMax="768">
      <contour>
        <pt x="367" y="768" on="1"/>
        <pt x="359" y="677" on="1"/>
        <pt x="316" y="677" on="0"/>
        <pt x="277" y="650" on="0"/>
        <pt x="273" y="613" on="1"/>
        <pt x="251" y="461" on="1"/>
        <pt x="243" y="395" on="0"/>
        <pt x="195" y="337" on="0"/>
        <pt x="131" y="327" on="1"/>
        <pt x="187" y="309" on="0"/>
        <pt x="226" y="248" on="0"/>
        <pt x="218" y="194" on="1"/>
        <pt x="189" y="-13" on="1"/>
        <pt x="184" y="-47" on="0"/>
        <pt x="211" y="-74" on="0"/>
        <pt x="254" y="-74" on="1"/>
        <pt x="249" y="-165" on="1"/>
        <pt x="138" y="-179" on="0"/>
        <pt x="36" y="-100" on="0"/>
        <pt x="48" y="-23" on="1"/>
        <pt x="81" y="216" on="1"/>
        <pt x="82" y="223" on="0"/>
        <pt x="82" y="235" on="0"/>
        <pt x="83" y="244" on="0"/>
        <pt x="79" y="252" on="0"/>
        <pt x="78" y="257" on="0"/>
        <pt x="70" y="263" on="0"/>
        <pt x="68" y="266" on="0"/>
        <pt x="55" y="272" on="0"/>
        <pt x="52" y="273" on="0"/>
        <pt x="34" y="280" on="0"/>
        <pt x="32" y="281" on="1"/>
        <pt x="44" y="377" on="1"/>
        <pt x="65" y="383" on="0"/>
        <pt x="80" y="389" on="0"/>
        <pt x="99" y="405" on="0"/>
        <pt x="107" y="429" on="0"/>
        <pt x="110" y="450" on="1"/>
        <pt x="135" y="631" on="1"/>
        <pt x="158" y="794" on="0"/>
      </contour>
    </TTGlyph>
    <TTGlyph name="braceright" xMin="-28" yMin="-165" xMax="320" yMax="768">
      <contour>
        <pt x="93" y="677" on="1"/>
        <pt x="98" y="768" on="1"/>
        <pt x="211" y="783" on="0"/>
        <pt x="310" y="702" on="0"/>
        <pt x="300" y="626" on="1"/>
        <pt x="275" y="444" on="1"/>
        <pt x="274" y="435" on="0"/>
        <pt x="273" y="422" on="0"/>
        <pt x="272" y="410" on="0"/>
        <pt x="274" y="402" on="0"/>
        <pt x="275" y="396" on="0"/>
        <pt x="282" y="390" on="0"/>
        <pt x="284" y="387" on="0"/>
        <pt x="295" y="383" on="0"/>
        <pt x="300" y="381" on="0"/>
        <pt x="316" y="376" on="0"/>
        <pt x="320" y="375" on="1"/>
        <pt x="307" y="279" on="1"/>
        <pt x="280" y="269" on="0"/>
        <pt x="260" y="260" on="0"/>
        <pt x="241" y="233" on="0"/>
        <pt x="238" y="210" on="1"/>
        <pt x="204" y="-28" on="1"/>
        <pt x="193" y="-107" on="0"/>
        <pt x="84" y="-179" on="0"/>
        <pt x="-28" y="-165" on="1"/>
        <pt x="-20" y="-74" on="1"/>
        <pt x="24" y="-74" on="0"/>
        <pt x="61" y="-48" on="0"/>
        <pt x="66" y="-11" on="1"/>
        <pt x="95" y="199" on="1"/>
        <pt x="104" y="255" on="0"/>
        <pt x="155" y="312" on="0"/>
        <pt x="220" y="329" on="1"/>
        <pt x="164" y="339" on="0"/>
        <pt x="127" y="402" on="0"/>
        <pt x="137" y="466" on="1"/>
        <pt x="159" y="618" on="1"/>
        <pt x="164" y="652" on="0"/>
        <pt x="137" y="677" on="0"/>
      </contour>
    </TTGlyph>
    <TTGlyph name="bracketleft" xMin="22" yMin="-165" xMax="379" yMax="768">
      <contour>
        <pt x="366" y="676" on="1"/>
        <pt x="290" y="676" on="1"/>
        <pt x="267" y="676" on="0"/>
        <pt x="264" y="654" on="1"/>
        <pt x="164" y="-55" on="1"/>
        <pt x="162" y="-73" on="0"/>
        <pt x="178" y="-73" on="1"/>
        <pt x="261" y="-73" on="1"/>
        <pt x="248" y="-165" on="1"/>
        <pt x="92" y="-165" on="1"/>
        <pt x="11" y="-165" on="0"/>
        <pt x="22" y="-85" on="1"/>
        <pt x="131" y="694" on="1"/>
        <pt x="136" y="729" on="0"/>
        <pt x="181" y="768" on="0"/>
        <pt x="215" y="768" on="1"/>
        <pt x="379" y="768" on="1"/>
      </contour>
    </TTGlyph>
    <TTGlyph name="bracketright" xMin="-32" yMin="-165" xMax="325" yMax="768">
      <contour>
        <pt x="99" y="768" on="1"/>
        <pt x="254" y="768" on="1"/>
        <pt x="288" y="768" on="0"/>
        <pt x="330" y="722" on="0"/>
        <pt x="325" y="688" on="1"/>
        <pt x="215" y="-91" on="1"/>
        <pt x="210" y="-125" on="0"/>
        <pt x="165" y="-165" on="0"/>
        <pt x="131" y="-165" on="1"/>
        <pt x="-32" y="-165" on="1"/>
        <pt x="-20" y="-73" on="1"/>
        <pt x="56" y="-73" on="1"/>
        <pt x="79" y="-73" on="0"/>
        <pt x="82" y="-51" on="1"/>
        <pt x="182" y="658" on="1"/>
        <pt x="185" y="676" on="0"/>
        <pt x="168" y="676" on="1"/>
        <pt x="86" y="676" on="1"/>
      </contour>
    </TTGlyph>
    <TTGlyph name="breve" xMin="95" yMin="546" xMax="423" yMax="708">
      <contour>
        <pt x="354" y="708" on="1"/>
        <pt x="423" y="695" on="1"/>
        <pt x="422" y="631" on="0"/>
        <pt x="325" y="546" on="0"/>
        <pt x="245" y="546" on="1"/>
        <pt x="163" y="546" on="0"/>
        <pt x="78" y="636" on="0"/>
        <pt x="95" y="700" on="1"/>
        <pt x="167" y="705" on="1"/>
        <pt x="162" y="673" on="0"/>
        <pt x="204" y="643" on="0"/>
        <pt x="248" y="643" on="1"/>
        <pt x="296" y="643" on="0"/>
        <pt x="351" y="678" on="0"/>
      </contour>
    </TTGlyph>
    <TTGlyph name="brevecy" xMin="95" yMin="546" xMax="423" yMax="701">
      <contour>
        <pt x="326" y="701" on="1"/>
        <pt x="423" y="701" on="1"/>
        <pt x="421" y="634" on="0"/>
        <pt x="325" y="546" on="0"/>
        <pt x="247" y="546" on="1"/>
        <pt x="163" y="546" on="0"/>
        <pt x="78" y="634" on="0"/>
        <pt x="95" y="701" on="1"/>
        <pt x="194" y="701" on="1"/>
        <pt x="185" y="656" on="0"/>
        <pt x="215" y="619" on="0"/>
        <pt x="252" y="619" on="1"/>
        <pt x="321" y="619" on="0"/>
      </contour>
    </TTGlyph>
    <TTGlyph name="brokenbar" xMin="14" yMin="-169" xMax="252" yMax="781">
      <contour>
        <pt x="195" y="381" on="1"/>
        <pt x="91" y="381" on="1"/>
        <pt x="148" y="781" on="1"/>
        <pt x="252" y="781" on="1"/>
      </contour>
      <contour>
        <pt x="118" y="-169" on="1"/>
        <pt x="14" y="-169" on="1"/>
        <pt x="70" y="231" on="1"/>
        <pt x="174" y="231" on="1"/>
      </contour>
    </TTGlyph>
    <TTGlyph name="bullet" xMin="69" yMin="155" xMax="295" yMax="380">
      <contour>
        <pt x="188" y="380" on="1"/>
        <pt x="205" y="380" on="1"/>
        <pt x="261" y="380" on="0"/>
        <pt x="303" y="332" on="0"/>
        <pt x="295" y="275" on="1"/>
        <pt x="293" y="260" on="1"/>
        <pt x="284" y="199" on="0"/>
        <pt x="237" y="155" on="0"/>
        <pt x="180" y="155" on="1"/>
        <pt x="161" y="155" on="1"/>
        <pt x="102" y="155" on="0"/>
        <pt x="61" y="205" on="0"/>
        <pt x="69" y="266" on="1"/>
        <pt x="71" y="280" on="1"/>
        <pt x="79" y="338" on="0"/>
        <pt x="128" y="380" on="0"/>
      </contour>
    </TTGlyph>
    <TTGlyph name="c" xMin="33" yMin="-12" xMax="494" yMax="507">
      <contour>
        <pt x="435" y="117" on="1"/>
        <pt x="445" y="20" on="1"/>
        <pt x="369" y="-12" on="0"/>
        <pt x="253" y="-12" on="1"/>
        <pt x="119" y="-12" on="0"/>
        <pt x="13" y="112" on="0"/>
        <pt x="33" y="253" on="1"/>
        <pt x="53" y="392" on="0"/>
        <pt x="173" y="507" on="0"/>
        <pt x="305" y="507" on="1"/>
        <pt x="422" y="507" on="0"/>
        <pt x="494" y="475" on="1"/>
        <pt x="474" y="385" on="1"/>
        <pt x="358" y="387" on="0"/>
        <pt x="325" y="387" on="1"/>
        <pt x="256" y="387" on="0"/>
        <pt x="197" y="330" on="0"/>
        <pt x="187" y="246" on="1"/>
        <pt x="176" y="159" on="0"/>
        <pt x="213" y="108" on="0"/>
        <pt x="279" y="108" on="1"/>
        <pt x="372" y="108" on="0"/>
      </contour>
    </TTGlyph>
    <TTGlyph name="cacute" xMin="33" yMin="-12" xMax="508" yMax="754">
      <contour>
        <pt x="508" y="647" on="1"/>
        <pt x="271" y="541" on="1"/>
        <pt x="233" y="604" on="1"/>
        <pt x="452" y="754" on="1"/>
      </contour>
      <contour>
        <pt x="435" y="117" on="1"/>
        <pt x="445" y="20" on="1"/>
        <pt x="369" y="-12" on="0"/>
        <pt x="253" y="-12" on="1"/>
        <pt x="119" y="-12" on="0"/>
        <pt x="13" y="112" on="0"/>
        <pt x="33" y="253" on="1"/>
        <pt x="53" y="392" on="0"/>
        <pt x="173" y="507" on="0"/>
        <pt x="305" y="507" on="1"/>
        <pt x="422" y="507" on="0"/>
        <pt x="494" y="475" on="1"/>
        <pt x="474" y="385" on="1"/>
        <pt x="358" y="387" on="0"/>
        <pt x="325" y="387" on="1"/>
        <pt x="256" y="387" on="0"/>
        <pt x="197" y="330" on="0"/>
        <pt x="187" y="246" on="1"/>
        <pt x="176" y="159" on="0"/>
        <pt x="213" y="108" on="0"/>
        <pt x="279" y="108" on="1"/>
        <pt x="372" y="108" on="0"/>
      </contour>
    </TTGlyph>
    <TTGlyph name="caron" xMin="95" yMin="552" xMax="469" yMax="742">
      <contour>
        <pt x="469" y="683" on="1"/>
        <pt x="309" y="552" on="1"/>
        <pt x="230" y="552" on="1"/>
        <pt x="95" y="692" on="1"/>
        <pt x="144" y="742" on="1"/>
        <pt x="270" y="650" on="1"/>
        <pt x="278" y="650" on="1"/>
        <pt x="434" y="740" on="1"/>
      </contour>
    </TTGlyph>
    <TTGlyph name="ccaron" xMin="33" yMin="-12" xMax="513" yMax="747">
      <contour>
        <pt x="513" y="688" on="1"/>
        <pt x="353" y="557" on="1"/>
        <pt x="273" y="557" on="1"/>
        <pt x="139" y="697" on="1"/>
        <pt x="188" y="747" on="1"/>
        <pt x="313" y="655" on="1"/>
        <pt x="321" y="655" on="1"/>
        <pt x="478" y="745" on="1"/>
      </contour>
      <contour>
        <pt x="435" y="117" on="1"/>
        <pt x="445" y="20" on="1"/>
        <pt x="369" y="-12" on="0"/>
        <pt x="253" y="-12" on="1"/>
        <pt x="119" y="-12" on="0"/>
        <pt x="13" y="112" on="0"/>
        <pt x="33" y="253" on="1"/>
        <pt x="53" y="392" on="0"/>
        <pt x="173" y="507" on="0"/>
        <pt x="305" y="507" on="1"/>
        <pt x="422" y="507" on="0"/>
        <pt x="494" y="475" on="1"/>
        <pt x="474" y="385" on="1"/>
        <pt x="358" y="387" on="0"/>
        <pt x="325" y="387" on="1"/>
        <pt x="256" y="387" on="0"/>
        <pt x="197" y="330" on="0"/>
        <pt x="187" y="246" on="1"/>
        <pt x="176" y="159" on="0"/>
        <pt x="213" y="108" on="0"/>
        <pt x="279" y="108" on="1"/>
        <pt x="372" y="108" on="0"/>
      </contour>
    </TTGlyph>
    <TTGlyph name="ccedilla" xMin="33" yMin="-249" xMax="494" yMax="507">
      <contour>
        <pt x="435" y="117" on="1"/>
        <pt x="445" y="20" on="1"/>
        <pt x="369" y="-12" on="0"/>
        <pt x="253" y="-12" on="1"/>
        <pt x="119" y="-12" on="0"/>
        <pt x="13" y="112" on="0"/>
        <pt x="33" y="253" on="1"/>
        <pt x="53" y="392" on="0"/>
        <pt x="173" y="507" on="0"/>
        <pt x="305" y="507" on="1"/>
        <pt x="422" y="507" on="0"/>
        <pt x="494" y="475" on="1"/>
        <pt x="474" y="385" on="1"/>
        <pt x="358" y="387" on="0"/>
        <pt x="325" y="387" on="1"/>
        <pt x="256" y="387" on="0"/>
        <pt x="197" y="330" on="0"/>
        <pt x="187" y="246" on="1"/>
        <pt x="176" y="159" on="0"/>
        <pt x="213" y="108" on="0"/>
        <pt x="279" y="108" on="1"/>
        <pt x="372" y="108" on="0"/>
      </contour>
      <contour>
        <pt x="152" y="-108" on="1"/>
        <pt x="167" y="-50" on="1"/>
        <pt x="246" y="-41" on="0"/>
        <pt x="314" y="-69" on="0"/>
        <pt x="306" y="-120" on="1"/>
        <pt x="294" y="-192" on="0"/>
        <pt x="174" y="-261" on="0"/>
        <pt x="91" y="-249" on="1"/>
        <pt x="112" y="-185" on="1"/>
        <pt x="149" y="-186" on="0"/>
        <pt x="203" y="-156" on="0"/>
        <pt x="209" y="-127" on="1"/>
        <pt x="211" y="-115" on="0"/>
        <pt x="192" y="-108" on="0"/>
      </contour>
    </TTGlyph>
    <TTGlyph name="cdotaccent" xMin="33" yMin="-12" xMax="494" yMax="704">
      <contour>
        <pt x="305" y="704" on="1"/>
        <pt x="349" y="704" on="1"/>
        <pt x="369" y="704" on="0"/>
        <pt x="392" y="681" on="0"/>
        <pt x="389" y="661" on="1"/>
        <pt x="382" y="608" on="1"/>
        <pt x="377" y="570" on="0"/>
        <pt x="339" y="570" on="1"/>
        <pt x="294" y="570" on="1"/>
        <pt x="272" y="570" on="0"/>
        <pt x="251" y="593" on="0"/>
        <pt x="255" y="614" on="1"/>
        <pt x="261" y="666" on="1"/>
        <pt x="267" y="704" on="0"/>
      </contour>
      <contour>
        <pt x="435" y="117" on="1"/>
        <pt x="445" y="20" on="1"/>
        <pt x="369" y="-12" on="0"/>
        <pt x="253" y="-12" on="1"/>
        <pt x="119" y="-12" on="0"/>
        <pt x="13" y="112" on="0"/>
        <pt x="33" y="253" on="1"/>
        <pt x="53" y="392" on="0"/>
        <pt x="173" y="507" on="0"/>
        <pt x="305" y="507" on="1"/>
        <pt x="422" y="507" on="0"/>
        <pt x="494" y="475" on="1"/>
        <pt x="474" y="385" on="1"/>
        <pt x="358" y="387" on="0"/>
        <pt x="325" y="387" on="1"/>
        <pt x="256" y="387" on="0"/>
        <pt x="197" y="330" on="0"/>
        <pt x="187" y="246" on="1"/>
        <pt x="176" y="159" on="0"/>
        <pt x="213" y="108" on="0"/>
        <pt x="279" y="108" on="1"/>
        <pt x="372" y="108" on="0"/>
      </contour>
    </TTGlyph>
    <TTGlyph name="cedilla" xMin="-40" yMin="-237" xMax="174" yMax="-38">
      <contour>
        <pt x="21" y="-96" on="1"/>
        <pt x="36" y="-38" on="1"/>
        <pt x="114" y="-29" on="0"/>
        <pt x="183" y="-57" on="0"/>
        <pt x="174" y="-108" on="1"/>
        <pt x="162" y="-180" on="0"/>
        <pt x="43" y="-249" on="0"/>
        <pt x="-40" y="-237" on="1"/>
        <pt x="-20" y="-173" on="1"/>
        <pt x="17" y="-174" on="0"/>
        <pt x="72" y="-144" on="0"/>
        <pt x="78" y="-115" on="1"/>
        <pt x="80" y="-103" on="0"/>
        <pt x="61" y="-96" on="0"/>
      </contour>
    </TTGlyph>
    <TTGlyph name="cent" xMin="48" yMin="0" xMax="505" yMax="690">
      <contour>
        <pt x="505" y="575" on="1"/>
        <pt x="484" y="485" on="1"/>
        <pt x="370" y="487" on="0"/>
        <pt x="337" y="487" on="1"/>
        <pt x="269" y="487" on="0"/>
        <pt x="212" y="430" on="0"/>
        <pt x="201" y="346" on="1"/>
        <pt x="190" y="259" on="0"/>
        <pt x="227" y="208" on="0"/>
        <pt x="292" y="208" on="1"/>
        <pt x="384" y="208" on="0"/>
        <pt x="447" y="217" on="1"/>
        <pt x="456" y="120" on="1"/>
        <pt x="389" y="93" on="0"/>
        <pt x="290" y="89" on="1"/>
        <pt x="268" y="0" on="1"/>
        <pt x="158" y="0" on="1"/>
        <pt x="182" y="96" on="1"/>
        <pt x="97" y="113" on="0"/>
        <pt x="31" y="237" on="0"/>
        <pt x="48" y="353" on="1"/>
        <pt x="67" y="489" on="0"/>
        <pt x="181" y="604" on="0"/>
        <pt x="304" y="607" on="1"/>
        <pt x="325" y="690" on="1"/>
        <pt x="436" y="690" on="1"/>
        <pt x="413" y="600" on="1"/>
        <pt x="469" y="591" on="0"/>
      </contour>
    </TTGlyph>
    <TTGlyph name="circumflex" xMin="86" yMin="535" xMax="463" yMax="726">
      <contour>
        <pt x="463" y="587" on="1"/>
        <pt x="418" y="535" on="1"/>
        <pt x="287" y="633" on="1"/>
        <pt x="279" y="633" on="1"/>
        <pt x="123" y="537" on="1"/>
        <pt x="86" y="593" on="1"/>
        <pt x="234" y="726" on="1"/>
        <pt x="336" y="726" on="1"/>
      </contour>
    </TTGlyph>
    <TTGlyph name="colon" xMin="10" yMin="0" xMax="202" yMax="451">
      <contour>
        <pt x="116" y="451" on="1"/>
        <pt x="153" y="451" on="1"/>
        <pt x="209" y="451" on="0"/>
        <pt x="202" y="396" on="1"/>
        <pt x="195" y="349" on="1"/>
        <pt x="189" y="300" on="0"/>
        <pt x="139" y="300" on="1"/>
        <pt x="102" y="300" on="1"/>
        <pt x="46" y="300" on="0"/>
        <pt x="52" y="354" on="1"/>
        <pt x="59" y="403" on="1"/>
        <pt x="66" y="451" on="0"/>
      </contour>
      <contour>
        <pt x="74" y="152" on="1"/>
        <pt x="111" y="152" on="1"/>
        <pt x="167" y="152" on="0"/>
        <pt x="160" y="97" on="1"/>
        <pt x="153" y="49" on="1"/>
        <pt x="147" y="0" on="0"/>
        <pt x="97" y="0" on="1"/>
        <pt x="60" y="0" on="1"/>
        <pt x="4" y="0" on="0"/>
        <pt x="10" y="55" on="1"/>
        <pt x="17" y="103" on="1"/>
        <pt x="24" y="152" on="0"/>
      </contour>
    </TTGlyph>
    <TTGlyph name="comma" xMin="16" yMin="-149" xMax="166" yMax="151">
      <contour>
        <pt x="86" y="151" on="1"/>
        <pt x="119" y="151" on="1"/>
        <pt x="148" y="151" on="0"/>
        <pt x="170" y="126" on="0"/>
        <pt x="166" y="97" on="1"/>
        <pt x="157" y="33" on="1"/>
        <pt x="144" y="-63" on="0"/>
        <pt x="84" y="-149" on="1"/>
        <pt x="19" y="-126" on="1"/>
        <pt x="46" y="-48" on="0"/>
        <pt x="57" y="3" on="1"/>
        <pt x="11" y="0" on="0"/>
        <pt x="16" y="48" on="1"/>
        <pt x="24" y="101" on="1"/>
        <pt x="29" y="130" on="0"/>
        <pt x="56" y="151" on="0"/>
      </contour>
    </TTGlyph>
    <TTGlyph name="copyright" xMin="52" yMin="-13" xMax="774" yMax="703">
      <contour>
        <pt x="446" y="703" on="1"/>
        <pt x="610" y="703" on="0"/>
        <pt x="793" y="502" on="0"/>
        <pt x="774" y="339" on="1"/>
        <pt x="756" y="182" on="0"/>
        <pt x="541" y="-13" on="0"/>
        <pt x="378" y="-13" on="1"/>
        <pt x="213" y="-13" on="0"/>
        <pt x="32" y="189" on="0"/>
        <pt x="52" y="351" on="1"/>
        <pt x="71" y="508" on="0"/>
        <pt x="285" y="703" on="0"/>
      </contour>
      <contour>
        <pt x="450" y="635" on="1"/>
        <pt x="317" y="635" on="0"/>
        <pt x="139" y="472" on="0"/>
        <pt x="125" y="339" on="1"/>
        <pt x="111" y="210" on="0"/>
        <pt x="248" y="55" on="0"/>
        <pt x="376" y="55" on="1"/>
        <pt x="507" y="55" on="0"/>
        <pt x="686" y="217" on="0"/>
        <pt x="701" y="351" on="1"/>
        <pt x="715" y="478" on="0"/>
        <pt x="580" y="635" on="0"/>
      </contour>
      <contour>
        <pt x="535" y="236" on="1"/>
        <pt x="541" y="156" on="1"/>
        <pt x="480" y="138" on="0"/>
        <pt x="406" y="138" on="1"/>
        <pt x="288" y="138" on="0"/>
        <pt x="208" y="233" on="0"/>
        <pt x="224" y="352" on="1"/>
        <pt x="239" y="467" on="0"/>
        <pt x="338" y="554" on="0"/>
        <pt x="450" y="554" on="1"/>
        <pt x="517" y="554" on="0"/>
        <pt x="577" y="539" on="1"/>
        <pt x="565" y="460" on="1"/>
        <pt x="477" y="462" on="0"/>
        <pt x="449" y="462" on="1"/>
        <pt x="389" y="462" on="0"/>
        <pt x="344" y="420" on="0"/>
        <pt x="335" y="345" on="1"/>
        <pt x="326" y="277" on="0"/>
        <pt x="352" y="232" on="0"/>
        <pt x="399" y="232" on="1"/>
        <pt x="480" y="230" on="0"/>
      </contour>
    </TTGlyph>
    <TTGlyph name="currency" xMin="36" yMin="105" xMax="565" yMax="602">
      <contour>
        <pt x="565" y="525" on="1"/>
        <pt x="487" y="456" on="1"/>
        <pt x="510" y="407" on="0"/>
        <pt x="501" y="346" on="1"/>
        <pt x="494" y="285" on="0"/>
        <pt x="458" y="237" on="1"/>
        <pt x="525" y="165" on="1"/>
        <pt x="459" y="105" on="1"/>
        <pt x="392" y="179" on="1"/>
        <pt x="343" y="150" on="0"/>
        <pt x="215" y="150" on="0"/>
        <pt x="169" y="182" on="1"/>
        <pt x="95" y="116" on="1"/>
        <pt x="36" y="182" on="1"/>
        <pt x="112" y="250" on="1"/>
        <pt x="89" y="300" on="0"/>
        <pt x="98" y="358" on="1"/>
        <pt x="105" y="420" on="0"/>
        <pt x="142" y="469" on="1"/>
        <pt x="77" y="541" on="1"/>
        <pt x="143" y="602" on="1"/>
        <pt x="209" y="527" on="1"/>
        <pt x="259" y="555" on="0"/>
        <pt x="319" y="555" on="1"/>
        <pt x="384" y="555" on="0"/>
        <pt x="430" y="524" on="1"/>
        <pt x="506" y="592" on="1"/>
      </contour>
      <contour>
        <pt x="182" y="351" on="1"/>
        <pt x="175" y="296" on="0"/>
        <pt x="232" y="232" on="0"/>
        <pt x="283" y="232" on="1"/>
        <pt x="338" y="232" on="0"/>
        <pt x="411" y="298" on="0"/>
        <pt x="417" y="355" on="1"/>
        <pt x="424" y="409" on="0"/>
        <pt x="367" y="473" on="0"/>
        <pt x="315" y="473" on="1"/>
        <pt x="260" y="473" on="0"/>
        <pt x="189" y="407" on="0"/>
      </contour>
    </TTGlyph>
    <TTGlyph name="d" xMin="36" yMin="-12" xMax="590" yMax="700">
      <contour>
        <pt x="590" y="700" on="1"/>
        <pt x="491" y="0" on="1"/>
        <pt x="375" y="0" on="1"/>
        <pt x="375" y="90" on="1"/>
        <pt x="275" y="-12" on="0"/>
        <pt x="170" y="-12" on="1"/>
        <pt x="87" y="-12" on="0"/>
        <pt x="17" y="114" on="0"/>
        <pt x="36" y="256" on="1"/>
        <pt x="47" y="335" on="0"/>
        <pt x="87" y="437" on="0"/>
        <pt x="148" y="488" on="0"/>
        <pt x="213" y="507" on="0"/>
        <pt x="258" y="507" on="1"/>
        <pt x="337" y="507" on="0"/>
        <pt x="417" y="494" on="1"/>
        <pt x="419" y="556" on="0"/>
        <pt x="424" y="591" on="1"/>
        <pt x="442" y="700" on="1"/>
      </contour>
      <contour>
        <pt x="399" y="403" on="1"/>
        <pt x="320" y="403" on="1"/>
        <pt x="247" y="403" on="0"/>
        <pt x="199" y="352" on="0"/>
        <pt x="186" y="254" on="1"/>
        <pt x="174" y="171" on="0"/>
        <pt x="188" y="112" on="0"/>
        <pt x="260" y="114" on="0"/>
        <pt x="325" y="149" on="0"/>
        <pt x="369" y="188" on="1"/>
      </contour>
    </TTGlyph>
    <TTGlyph name="dagger" xMin="44" yMin="-110" xMax="466" yMax="691">
      <contour>
        <pt x="239" y="-110" on="1"/>
        <pt x="116" y="-110" on="1"/>
        <pt x="196" y="411" on="1"/>
        <pt x="207" y="485" on="1"/>
        <pt x="229" y="691" on="1"/>
        <pt x="352" y="691" on="1"/>
        <pt x="316" y="485" on="1"/>
        <pt x="306" y="411" on="1"/>
      </contour>
      <contour>
        <pt x="44" y="381" on="1"/>
        <pt x="59" y="493" on="1"/>
        <pt x="188" y="493" on="1"/>
        <pt x="174" y="397" on="1"/>
      </contour>
      <contour>
        <pt x="466" y="493" on="1"/>
        <pt x="451" y="381" on="1"/>
        <pt x="324" y="397" on="1"/>
        <pt x="337" y="493" on="1"/>
      </contour>
    </TTGlyph>
    <TTGlyph name="daggerdbl" xMin="18" yMin="-110" xMax="482" yMax="691">
      <contour>
        <pt x="333" y="492" on="1"/>
        <pt x="276" y="93" on="1"/>
        <pt x="255" y="-110" on="1"/>
        <pt x="132" y="-110" on="1"/>
        <pt x="168" y="93" on="1"/>
        <pt x="224" y="492" on="1"/>
        <pt x="245" y="691" on="1"/>
        <pt x="368" y="691" on="1"/>
      </contour>
      <contour>
        <pt x="190" y="397" on="1"/>
        <pt x="59" y="381" on="1"/>
        <pt x="75" y="493" on="1"/>
        <pt x="204" y="493" on="1"/>
      </contour>
      <contour>
        <pt x="466" y="381" on="1"/>
        <pt x="339" y="397" on="1"/>
        <pt x="353" y="493" on="1"/>
        <pt x="482" y="493" on="1"/>
      </contour>
      <contour>
        <pt x="161" y="184" on="1"/>
        <pt x="147" y="88" on="1"/>
        <pt x="18" y="88" on="1"/>
        <pt x="33" y="200" on="1"/>
      </contour>
      <contour>
        <pt x="425" y="88" on="1"/>
        <pt x="296" y="88" on="1"/>
        <pt x="310" y="184" on="1"/>
        <pt x="441" y="200" on="1"/>
      </contour>
    </TTGlyph>
    <TTGlyph name="dcaron" xMin="36" yMin="-12" xMax="757" yMax="700">
      <contour>
        <pt x="442" y="700" on="1"/>
        <pt x="590" y="700" on="1"/>
        <pt x="491" y="0" on="1"/>
        <pt x="375" y="0" on="1"/>
        <pt x="375" y="90" on="1"/>
        <pt x="275" y="-12" on="0"/>
        <pt x="170" y="-12" on="1"/>
        <pt x="87" y="-12" on="0"/>
        <pt x="17" y="114" on="0"/>
        <pt x="36" y="256" on="1"/>
        <pt x="47" y="335" on="0"/>
        <pt x="87" y="437" on="0"/>
        <pt x="148" y="488" on="0"/>
        <pt x="213" y="507" on="0"/>
        <pt x="258" y="507" on="1"/>
        <pt x="337" y="507" on="0"/>
        <pt x="417" y="494" on="1"/>
        <pt x="419" y="556" on="0"/>
        <pt x="424" y="591" on="1"/>
      </contour>
      <contour>
        <pt x="684" y="700" on="1"/>
        <pt x="714" y="700" on="1"/>
        <pt x="740" y="700" on="0"/>
        <pt x="761" y="680" on="0"/>
        <pt x="757" y="656" on="1"/>
        <pt x="749" y="605" on="1"/>
        <pt x="738" y="530" on="0"/>
        <pt x="682" y="460" on="1"/>
        <pt x="623" y="478" on="1"/>
        <pt x="647" y="537" on="0"/>
        <pt x="658" y="581" on="1"/>
        <pt x="637" y="580" on="0"/>
        <pt x="619" y="599" on="0"/>
        <pt x="621" y="618" on="1"/>
        <pt x="628" y="660" on="1"/>
        <pt x="632" y="683" on="0"/>
        <pt x="657" y="700" on="0"/>
      </contour>
      <contour>
        <pt x="399" y="403" on="1"/>
        <pt x="320" y="403" on="1"/>
        <pt x="247" y="403" on="0"/>
        <pt x="199" y="352" on="0"/>
        <pt x="186" y="254" on="1"/>
        <pt x="174" y="171" on="0"/>
        <pt x="188" y="112" on="0"/>
        <pt x="260" y="114" on="0"/>
        <pt x="325" y="149" on="0"/>
        <pt x="369" y="188" on="1"/>
      </contour>
    </TTGlyph>
</ttFont>
